<svg xmlns="http://www.w3.org/2000/svg" xmlns:xlink="http://www.w3.org/1999/xlink" width="745" height="1415" viewBox="0 0 745 1415"><defs><style>.a{fill:#fff;stroke:#707070;}.b{opacity:0.098;clip-path:url(#a);}.c{fill:#e2e2e2;}</style><clipPath id="a"><rect class="a" width="745" height="1415" transform="translate(590.176 670)"/></clipPath></defs><g class="b" transform="translate(-590.176 -670)"><g transform="translate(512.542 171.886)"><path class="c" d="M557.437,515.194A14.8,14.8,0,0,0,555,511.7l-78.563-78.564a14.737,14.737,0,0,0-20.8,0L377.076,511.7a13.868,13.868,0,0,0-2.4,3.613,30.369,30.369,0,0,1,5.932,4.488l31.373,31.371,31.37-31.371c12.094-12.094,33.236-12.134,45.367,0L520.1,551.168,551.469,519.8A31.187,31.187,0,0,1,557.437,515.194Z" transform="translate(570.627 2002.331)"/><path class="c" d="M459.1,435.968l-83.66,83.661a11.459,11.459,0,0,0-.874,1.026,30.023,30.023,0,0,1,6.313,4.639L414.3,558.757l33.463-33.464c12.095-12.092,33.237-12.13,45.368,0l33.427,33.464,33.463-33.464a29.7,29.7,0,0,1,6.274-4.639,6.964,6.964,0,0,0-.838-1.026L481.8,435.968A16.4,16.4,0,0,0,459.1,435.968Z" transform="translate(566.222 2097.49)"/><path class="c" d="M521.215,491.627l-59.968-59.968a16.022,16.022,0,0,0-22.7,0l-60.007,59.968a16.836,16.836,0,0,0-3.422,5.438l24.832,24.869,29.166-29.167a29.446,29.446,0,0,1,41.562,0l29.168,29.13L524.637,497.1A15.4,15.4,0,0,0,521.215,491.627Z" transform="translate(586.771 1932.314)"/><path class="c" d="M520.637,490.421c-.229-.266-.343-.607-.609-.875L460.06,429.58a16.061,16.061,0,0,0-22.74,0l-59.969,59.967a14.882,14.882,0,0,0-2.128,2.815,29.54,29.54,0,0,1,7.036,5.057l20.5,20.5,20.5-20.5c12.093-12.13,33.235-12.13,45.365,0l20.5,20.5,20.5-20.5A30.254,30.254,0,0,1,520.637,490.421Z" transform="translate(590.733 1855.262)"/><path class="c" d="M375.585,425.269l-.457.189,1.445,3.311-.115-1.522Z" transform="translate(587.215 1870.294)"/><path class="c" d="M469.727,472.227l-33.464-33.463a16.061,16.061,0,0,0-22.738,0l-34.606,34.6c-2.319,10.075-4.372,19.962-6.161,29.888,5.782,14.678,22.133,25.857,44.492,33.959a31.427,31.427,0,0,1,9.052-21.6Z" transform="translate(499.5 2195.352)"/><path class="c" d="M394.963,509.489a28.748,28.748,0,0,1,6.389-9.62l38.1-38.1-28.215-28.178a16.023,16.023,0,0,0-22.7,0l-14.793,14.794a204.447,204.447,0,0,1,6.959,63.313A33.765,33.765,0,0,1,394.963,509.489Z" transform="translate(535.97 2003.776)"/><path class="c" d="M393.372,430.1l-19.2,19.24a164.272,164.272,0,0,1,13.043,20.307,33.12,33.12,0,0,1,11.333-2.132,31.165,31.165,0,0,1,6.5-10.075l19.2-19.2-8.136-8.136a16.155,16.155,0,0,0-22.741,0Z" transform="translate(551.706 1876.07)"/><path class="c" d="M373.549,477.444c-2.825,2.755,8.063,16.655,11.3,25.325l9.012-9.05c9.316-9.317,23.917-11.41,35.669-6.388a30.594,30.594,0,0,1,5.171-7l28.14-28.178-20.458-20.5a15.966,15.966,0,0,0-11.369-4.715,15.354,15.354,0,0,0-5.249,1.064,56.266,56.266,0,0,1,2.737,23.615C425.685,477.178,376.374,474.689,373.549,477.444Z" transform="translate(519.319 1932.314)"/><path class="c" d="M388.789,525.442a31.909,31.909,0,0,1,22.929-9.049,33.006,33.006,0,0,1,5.666-7.948l40.955-40.955-31.373-31.373a16.016,16.016,0,0,0-22.7,0l-2.587,2.586a195.611,195.611,0,0,1-6.958,30.917c-8.517,26.313-15.668,49.624-21.6,71.527Z" transform="translate(512.94 2097.343)"/><path class="c" d="M387.865,395.08l-.494.647c.911.418,2.016.989,2.889,1.332C389.424,396.409,388.7,395.687,387.865,395.08Z" transform="translate(1040.535 752.492)"/><path class="c" d="M2537.425,1471.1c-79.323-59.966-180.969-102.557-280.067-94.534,84.229-30.763,175.456-13.766,266.721-9.658-76.548-27.912-155.15-53.772-285.279-26.849,106.667-42.322,221.318-62.324,335.626-83.239a971.115,971.115,0,0,0-353.04,52.211c98.869-69.438,211.123-105.715,324.823-138.342-116.931,16.5-233.675,29.7-354.142,105.6a683.157,683.157,0,0,1,60.385-45.366c3.348.381,6.694.8,10,1.217-2.891-.761-5.818-1.369-8.746-2.091,94.838-63.392,196.483-99.479,295.847-144.541-82.479,11.941-197.246,39.625-300.221,93.547-13.919-.417-27.837-.38-41.754.037,92.824-79.246,218.35-143.36,309.348-182.869-94.991,11.293-271.016,101.835-378.062,188.118-6.616.836-13.233,1.633-19.849,2.661,13.917-15.439,29.927-31.258,47.495-47.191q61.83-28.921,123.626-57.879c-24.147,3.575-48.142,8.367-71.833,14.261,95.068-75.178,212.494-145.035,285.77-173.819a1331.928,1331.928,0,0,0-373.2,201.5,756.048,756.048,0,0,0-108.034,51.224l.838-1.942c81.339-73.391,175.342-133.017,274.63-186.939-70.046,23.385-161.8,65.9-240.368,116.97q4.964-9.068,10.115-17.951c66.929-55.783,141.193-115.181,196.143-165.073a1444.335,1444.335,0,0,0-147.43,90.427,834.315,834.315,0,0,1,71.11-84.913c-52.286,33.046-96.246,78.031-135.261,132.41-31.714,24.831-62.479,50.842-91.986,78.259,85.37-94.155,174.316-180.019,264.781-262.346-91.531,55.062-181.2,130.811-263.068,214.774l.339-1.674c79.02-88.6,158.041-187.394,237.061-270.368-74.534,45.973-151.88,121.23-220.9,199.526,10.534-43.047,22.473-85.75,35.973-127.5,16.085-19.243,32.437-36.508,48.6-50.765a467.7,467.7,0,0,0-43.882,36.427c23.08-68.826,50.764-134.69,84.989-194.2-62.592,75.75-110.125,164.542-145.718,259.268-41.335,49.966-78.753,106.627-111.344,161.688-1.483-19.128-2.812-38.294-3.878-57.533,39.091-104.688,92.027-208.273,143.589-289.612-55.481,56.964-104.46,122.827-146.708,194.355-.608-55.519,1.1-110.7,5.972-164.58,5.17-12.889,10.418-25.63,15.781-38.065-4.755,6.692-9.357,13.613-14,20.536,3.536-34.263,8.214-68.07,14.526-101-18.671,46.24-32.4,95.066-42.324,145.3-34.3,58.18-64.454,122.826-89.247,190.436-9.051-53.729-13.766-107.272-13.08-159.1,10.684-34.416,22.587-67.649,35.593-98.947q-18.482,33.769-34.529,68.867c.341-5.932.531-11.9,1.025-17.759-1.177,7.188-1.976,14.641-2.888,22.016a1114.206,1114.206,0,0,0-87.728,301.668q-14.318-20.649-28.178-40.841c1.861-108.071,15.742-216.715,42.475-320.528a1394.775,1394.775,0,0,0-67.8,283.3c-12.053-17.873-23.614-35.212-34.413-51.793q.227-75.352,4.981-150.585-11.865,63.769-19.355,128.262l-1.635-2.586,1.558,3.309A1917.342,1917.342,0,0,0,1532,1444.6q-26.639-173.8-53.351-347.6c10.5-18.671,20.533-37.38,29.737-56.2-8.138,13.387-18.9,29.281-31.182,46.622l-15.06-97.994c-4.715,43.31-7.414,86.852-8.365,130.431-12.814,17.416-26.428,35.667-40.422,54.225q-2.853-29.09-4.639-58.218c19.127-36.735,36.658-70.388,50.005-95.676-18.139,22.359-35.289,44.339-51.565,66.282-.5-11.978-.875-23.957-1.063-35.937q-3.023,22.134-5.1,44.376c-18.672,25.48-36.2,50.958-52.63,76.814-1.863-11.407-3.613-22.739-5.171-33.919,17.112-30.914,35.859-62.02,56.583-94.269-21.256,22.969-41.181,45.825-60,68.946v0q-10.326,12.717-20.231,25.552c17.036-53.008,36.659-104.65,68.031-151.155,44.718-66.4,60.2-175.077,27.495-266.415,5.854,137.39-44.721,276.34-137.545,377.832,74-97.311,116.02-308.321,93.052-440.843,4.488,107.994-38.75,304.9-105.144,390.19,63.315-134.539,83.735-288.85,57.534-435.213,11.409,130.735-25.362,265.158-101.72,371.9,72.782-146.062,68.6-327.868-10.839-470.392,39.662,134.994,32.932,283.147-18.786,413.959,44.377-155.909,11.523-331.9-86.169-461.3,67.156,130.965,86.094,285.964,52.516,429.25,10.039-180.362-54.53-363.727-175.3-498,80.237,132.332,125.984,285.277,132.295,439.893C1103.625,644.551,989.2,463.886,811.238,370.417,957.68,471.264,1054.686,640.711,1067.578,818.1,1025.4,713.912,986.047,606.524,918.284,541.347,844.322,470.122,769.637,400.19,673.2,364.9c156.4,95.522,275.846,249.989,328.855,425.405C949.5,698.359,895.923,605.041,819.945,531.193c-75.938-73.809-178.687-126.9-284.364-119.479,169.905,49.358,321.555,184.009,389.4,342.62-107.2-157.241-295.354-270.295-478.49-270.9C527.671,510.049,609.431,536.974,684,578.687c74.534,41.755,148.951,106.44,188.46,182.189C806.067,700.755,732.1,633.295,653.009,591.161,573.912,549.067,480.52,526.9,393.7,549.1,551.857,561.5,704.231,636.87,810.1,755.019c-67.991-43.084-136.516-86.474-211.733-115.146-75.218-28.633-158.5-41.829-236.679-22.738A823.806,823.806,0,0,1,776.52,774.451C658.713,712.047,518.507,693,388.3,721.744A1216.648,1216.648,0,0,1,727.96,781.1c-133.437-26.656-280.107,32.362-357.873,144.047,87.273-77.88,167.965-116.514,284.138-130.281-88.6,30.955-139.94,68.336-209.375,131.458Q566.4,864.616,687.917,802.893a611.04,611.04,0,0,0-207.094,206.981A685.3,685.3,0,0,1,755.377,802.933a794.481,794.481,0,0,0-209.984,203.1c75.446-77.956,164.619-145.758,260.713-212.8a930.715,930.715,0,0,1-224.168,206.37c107.2-41.866,196.028-104.423,266.186-191.351-37.8,55.444-132.56,152.906-170.36,208.311,42.629-27.8,105.866-88.984,151-146.022-19.887,45.061-30.99,98.411-30.724,123.472,19.088-46.241,74.076-151.766,117.54-176.558-33.083,22.4-54.834,98.261-57.153,138.149,19.66-50.687,63.122-129.024,114.954-145.452-26.618,19.585-73.62,82.862-79.666,136.25,14.527-39.774,66.2-91.681,105.22-108.109-38.864,28.177-45.062,51.982-38.6,90.58,21.028-41.982,44.681-83.166,81.3-60.388,14.374,8.938,21.943,24.795,33.122,37.5a962.481,962.481,0,0,1,161.12,253.9c-27.913,44.49-49.589,93.051-58.714,138.531-8.747-109.479-58.332-229.719-154.541-282.691,85.75,77.8,132.409,176.824,118,291.7-5.515-148.152-116.7-264.93-259.418-304.936,113.128,78.868,179.22,195.648,221.279,326.993-58.944-164.276-199.225-287.141-373.159-301.286,149.37,50.384,263.6,160.738,335.548,300.981-89.7-141.193-243.676-228.883-410.8-221.885,138.227,24.488,265.276,106.589,344.41,222.495C880.75,1215.941,700.959,1170.614,543.3,1215.066c142.257-16.314,290.524,29.776,398.521,123.815-145.68-85.9-334.028-94.647-487.049-22.661,131.573-37.268,276.836-23.807,399.359,36.96-149.293-50.233-325.586-7.986-435.864,104.461,106.818-69.666,237.971-101.153,364.791-87.652-77.688-2.928-155.6,17.11-223.407,55.1a462.777,462.777,0,0,0-78.07,4.754c17.416,3.078,34.643,6.96,51.755,11.369-11.408,7.491-22.474,15.44-33.083,23.958a416.071,416.071,0,0,0-97.234,14.184q33.254,6.557,66.508,13.156a405.356,405.356,0,0,0-42.856,48.788,469.513,469.513,0,0,1,57.04-45.975q32.741,6.505,65.443,12.968-28,16.259-53.957,34.644c-54.075,16.617-104.463,45.1-145.378,84.191a669.834,669.834,0,0,1,82.632-32.894c-20.458,19.432-38.825,40.005-54.148,61.717,21.788-24.528,48.4-47.572,77.99-68.9a682.374,682.374,0,0,1,102.181-20.61q-20.194,17.855-39.018,37.114c-59.816,28.33-113.281,70.045-154.084,122.142a730.47,730.47,0,0,1,111.722-74.8,702.259,702.259,0,0,0-49.358,68.335,746.777,746.777,0,0,1,95.256-91.455,730.467,730.467,0,0,1,117.314-42.247c-118.8,49.778-213.785,153.361-253.146,276a619.842,619.842,0,0,1,222.952-228.579c-7.11,9.127-13.878,18.481-20.458,27.988a646,646,0,0,0-138.265,278.318,757.855,757.855,0,0,1,114.271-184.962c5.057-.724,10.114-1.331,15.171-1.788a677.53,677.53,0,0,0-91.681,197.245,811.753,811.753,0,0,1,75.1-138,518.008,518.008,0,0,0-14.677,80.616,580.417,580.417,0,0,1,36.848-111.876q11.121-14.83,22.853-29.166c2.586,0,5.172.115,7.757.19a484.746,484.746,0,0,0-64.074,176.75c-42.971,25.06-80.009,60.347-106.21,102.634,36.773-39.358,84.65-65.9,136.48-80.047q-1.6,20.707-2.246,41.449c-51.98,25.327-97.234,64.456-129.1,112.673,38.1-37.189,80.958-64.418,126.211-81.6q-6.845,27.434-13.652,54.911C490.634,2123.908,430.1,2191.9,396.136,2272.25c70.275-115.866,183.024-192.757,318.247-201.922-132.978,33.616-226.258,146.021-254.4,280.3,50.538-104.156,110.809-177.7,213.52-231.049-138.491,82.288-211.049,217.056-231.049,376.88,32.816-123.509,105.066-253.144,203.518-313.036C545.582,2265.9,479.417,2406.9,477.439,2524.367c15.021-99.25,98.527-230.633,168.078-303.037C581.9,2334,505.881,2497.635,495.274,2626.583c46.506-110.391,104.192-258.468,150.737-368.822-27,98.414-65.139,234.548-92.175,332.963,24.678-59.472,65.862-192.453,90.5-251.967-6.5,56.4-29.548,186.256-36.088,242.612,37.949-156.063,67-275.618,104.953-431.717-9.735,82.289-10.571,128.036-20.307,210.327,24.109-74.913,48.18-176.635,72.289-251.512-11.9,59.59-11.522,148.458,1.1,207.895-11.371-87.082,16.009-188.954,83.657-244.969-28.33,47.837-14.638,101.076,20.193,140.09-4.829-100.124,9.164-154.045,74.19-134.993,41.145,12.092,81.073,31.751,114.8,58.218,49.282,38.711,96.095,81.3,133.171,131.839,54.607,74.381,86.245,163.629,103.775,254.246,8.327,43.162,13.5,86.816,17.189,130.661,5.855,1.178,11.484,3.384,15.856,7.718l8.138,8.139,29.471-29.471c12.093-12.131,33.236-12.131,45.329,0l32.853,32.856,11.523-11.524c9.506-9.467,24.375-11.293,36.24-5.929-.952,5.664-1.788,11.331-2.586,17a15.81,15.81,0,0,0-10.952-4.449,15.977,15.977,0,0,0-11.372,4.714l-11.523,11.525,15.821,15.781a31.787,31.787,0,0,1,6.922,10.61,34.958,34.958,0,0,1,6.389,2.129c-.535,5.856-.8,11.749-1.181,17.644a15.968,15.968,0,0,0-22.549.115l-20.5,20.5,28.14,28.14a30.886,30.886,0,0,1,5.133,7,33.989,33.989,0,0,1,8.176-2.128c.04,5.361.152,10.762.3,16.124a15.38,15.38,0,0,0-6.808,3.726l-28.215,28.176,38.1,38.1a24.825,24.825,0,0,1,2.394,3.612c.95,7.377,2.093,14.754,3.233,22.131a15.555,15.555,0,0,0-8.252,4.07l-31.334,31.371,40.955,40.994a31.491,31.491,0,0,1,5.668,7.908,33.907,33.907,0,0,1,11.633,2.089c2.436,8.749,4.982,17.418,7.72,26.014l-7.72-7.719a16.06,16.06,0,0,0-22.74,0l-33.462,33.463,43.427,43.387a31.753,31.753,0,0,1,8.975,19.089,165.748,165.748,0,0,1-15.972,5.514,15.869,15.869,0,0,0-4.3-13.271l-88.185-88.181a16.059,16.059,0,0,0-22.739,0l-88.185,88.181a15.861,15.861,0,0,0-3.916,15.362c96.892,25.784,269.534,5.1,254.133-43.272-64.493-159.558-71.833-341.519-20.383-505.756-12.89,1.52-25.745,3-38.635,4.525q3.193-44.72,6.388-89.477c52.287-203.711,95.524-302.084,177.814-440.389-2.13,79.135,5.475,141.688,3.383,220.823,19.051-70.159,38.065-177.739,57.117-247.9,3.344,112.979,27.3,262.8,70.35,367.34-21.143-110.66-31.677-264.021-3.88-373.2,16.693,119.4,47.494,276.91,64.225,396.316,13.046-117.351,3.119-286.914-29.05-400.5,56.431,137.01,112.826,323.759,169.258,460.77-29.092-139.217-69.094-321.442-120.089-441.569,56.926,114.995,104.5,276.455,161.462,391.486-18.709-102.709-47.5-228.655-92.139-323,74.532,126.593,121.686,293,144.73,438.069a1383.008,1383.008,0,0,0-81-389.623c71.033,158.42,139.71,291.664,185.683,433.5-31.181-118.223-81.261-263.487-112.444-381.711,50.994,114.156,120.809,255.389,171.767,369.545q-52.989-153.838-106.019-307.714c-11.522-19.7-22.891-39.281-33.958-58.522,78.3,79.018,166.406,167.85,244.7,246.832-73.431-105.753-162.413-220.479-268.965-292.729,120.088,26.694,225.424,121.228,297.561,220.9-59.626-101.949-192.683-197.7-296.724-253.489,103.548,14.756,245.082,83.583,306.76,168.079-69.283-110.429-226.79-208.349-356.879-199.792,120.278-12.4,268.887,37.265,379.544,85.938-130.736-95.179-257.745-151.154-415.784-116.855,124.88-63.162,233.635-46.2,360.683,12.471-136.781-69.018-249.683-102.1-396.276-57.572,148.19-68.1,295.772-60.425,446.852-15.439-150.206-62.706-307.636-86.206-465.219-45.555,127.123-58.144,338.628-47.572,469.745-9.164-90.046-61.87-328.894-72.287-444.686-25.059,109.784-51.414,265.541-83.737,386.505-75.827-133.094-32.548-335.281-4.143-446.662,75.674,92.291-107.35,286.835-172.944,428.371-175.8-149.938-31.752-362.281,33.463-482.636,164.237,66.813-132.791,257.327-239.378,399.509-262.766-171.423,21.638-324.176,60.8-449.7,259.23,100.351-200.82,318.663-336.879,543.135-338.554-232.382-37.609-495.679,112.751-605.729,343.762,72.478-154.768,213.521-345.434,358.9-435.444-158.152,83.164-298.432,226.108-374.526,367.072l142.6-313.3c-94.383,120.242-157.85,243.029-219.339,412.364-4.793-24.795-16.351-47.915-32.475-67.271,41.943-103.547,85.711-189.981,150.737-269.877,51.869-63.808,114.573-121.38,190.779-152.3,115.983-46.965,257.481-23.31,351.826,58.9s137.161,219.11,106.511,340.417c26.278-51.906,27.115-136.327,11.105-196.752,12.74,42.894,29.129,101.457,40.65,138.95,4.944-88.184-16.542-174.694-92.063-245.348,43.731,33.806,84,80.464,123.7,129.215-11.293-56.887-89.78-128.379-155.338-173.365,47,17.682,134.69,74.153,167.355,117.467-30.725-69.934-132.1-133.742-204.962-156.748,57.343,8.479,146.213,43.349,191.426,85.41-61.414-63.544-145-105.373-232.84-115.411A490.614,490.614,0,0,1,2537.425,1471.1ZM588.211,1741.511c-1.1,1.6-2.129,3.231-3.232,4.828-5.1.912-10.153,1.939-15.21,3.121q14.374-16.943,29.737-33.009Q593.572,1728.827,588.211,1741.511ZM1793.7,1943.925c34.68,4.146,68.562,14.6,100.618,29.054,31.9,14.6,63.048,32.4,88.373,56.851,12.587,12.244,23.691,25.9,34.6,39.432a386.067,386.067,0,0,1,26.734,44.987l-2.472,2.016a439.289,439.289,0,0,1-40.422-31.676c-13.766-9.81-26.01-20.99-39.207-30.84-13.576-9.315-25.249-20.991-38.787-30.195-6.5-4.942-12.777-10.418-19.583-14.981l-20.84-13.082c-28.519-16.2-59.245-28.976-91.607-35.934-32.209-7.378-66.318-9.658-99.326-3.574l-.988-3C1723.654,1941.682,1759.017,1940.465,1793.7,1943.925Zm399.928-752.395q20.19-2.114,40.345-4.261-25.042,13.973-48.71,30.193c-5.668-.684-11.3-1.179-16.961-1.672C2176.324,1207.537,2184.842,1199.477,2193.627,1191.53Zm-29.51,28.556c4.868.571,9.7,1.178,14.564,1.787a508.447,508.447,0,0,0-49.283,39.4A405.526,405.526,0,0,1,2164.117,1220.087Zm-56.773-19.546,13.878-1.445c-5.322,4.639-10.5,9.239-15.362,13.843l-7.6-.951C2101.145,1208.222,2104.149,1204.42,2107.344,1200.541Zm-10.23,13c2.776-.076,5.59-.226,8.4-.3a366.167,366.167,0,0,0-26.238,27.151A240.866,240.866,0,0,1,2097.114,1213.545Zm-54.341-15.742c-2.737,2.51-5.475,5.057-8.213,7.606-6.883,1.9-13.8,3.764-20.61,5.893Q2028.382,1204.514,2042.773,1197.8Zm-24.717,23.2c-6.807,6.541-13.575,13.083-20.192,19.774,1.939-5.855,3.992-11.636,6.045-17.454C2008.624,1222.444,2013.34,1221.761,2018.056,1221Zm-19.889-75.978-1.1,1.979c-4.107,3.306-8.214,6.579-12.167,9.887C1989.194,1153.008,1993.644,1149.013,1998.167,1145.021Zm-59.093-148.685c-10.571,33.044-19.773,66.623-27.8,100.431-20.687,25.856-40.08,51.106-57.649,74.644l-.076-.722C1872.338,1119.011,1902.911,1055.963,1939.074,996.336Zm13.347,238.924q-14.43,30.911-28.481,63.618c3.041-19.014,6.273-38.369,9.581-57.879C1939.8,1239.025,1946.111,1237.046,1952.422,1235.26ZM1808.606,885.6a1189.513,1189.513,0,0,0-8.062,136.174q-23.672,47.172-43.579,96.512-4.108-15.285-7.8-30.612C1766.776,1017.937,1786.626,949.981,1808.606,885.6Zm-.913,285.733c-2.434,4.525-4.945,9.089-7.34,13.538,1.978-8.443,4.108-16.924,6.314-25.478C1807.044,1163.389,1807.311,1167.382,1807.692,1171.336Zm-68.334-43.579q2.339,11.636,4.866,23.2c-10.076,26.925-19.431,54.113-27.835,81.532Q1726.944,1179.78,1739.359,1127.757Zm-25.668-271.091c-2.891,54.035.8,111.531,8.554,169.789a1318.339,1318.339,0,0,0-44.263,161.042c-5.856-8.479-11.75-16.922-17.645-25.4C1665.7,1060.488,1684.713,954.127,1713.691,856.666Zm-46.432,390c-2.281,14.563-4.335,29.091-6.008,43.464-1.446-19.2-2.169-38.9-2.4-58.826C1661.631,1236.439,1664.446,1241.572,1667.259,1246.667Zm-43.389-81.873a1098.252,1098.252,0,0,0-5.437,123.51l-5.82-5.285a1444.486,1444.486,0,0,1-11.33-162.944Q1612.406,1142.493,1623.871,1164.794Zm-3.993,168.879c-2.319-14.109-4.335-28.292-6.236-42.552,1.633,4.144,3.346,8.328,5.132,12.435C1619.041,1313.593,1619.346,1323.633,1619.877,1333.673Zm-46.621-270.941a1400.533,1400.533,0,0,0,1.942,338.552c-22.323-131.61-33.464-267.822-33.464-404.453Q1557.42,1029.858,1573.256,1062.732Zm125.528,271.7c31.067-29.929,65.328-57.118,103.165-78.487l28.978-14.87c9.927-4.413,20.078-8.328,30.269-12.056,19.888-8.518,41.6-12.359,62.44-17.111l.608,2.016c-38.634,19.089-76.434,36.923-111.533,60.2-34.985,22.889-70.73,45.249-102.75,72.933a849.628,849.628,0,0,0-90.236,89.134c-28.027,31.83-54.3,65.521-77.081,101.494l-1.826-1.026C1582.08,1461.633,1635.736,1393.375,1698.784,1334.434Zm182.795-74.3c-3.157,24.411-5.932,48.749-8.063,72.858-3.041-21.446-5.97-43.275-8.784-65.291C1870.322,1265.109,1875.912,1262.523,1881.579,1260.13Zm-49.094,77.574c-6.006-14.3-11.863-29.015-17.644-43.885,2.892-1.709,5.82-3.345,8.707-5.018C1826.362,1305.265,1829.292,1321.617,1832.485,1337.7Zm-62.021-15.023c4.752-3.421,9.583-6.8,14.449-10.075,5.667,20.039,11.371,39.623,16.922,58.369C1792.1,1355.615,1781.566,1339.452,1770.464,1322.681Zm24.186,126.479q-42.155-38.5-84.345-77c6.579-6.2,13.271-12.168,20.117-18.064C1750.69,1386.262,1771.945,1417.978,1794.65,1449.16Zm-341.178-308.624a1525.378,1525.378,0,0,0,74.8,484.725,1544.879,1544.879,0,0,1-111.912-422.895C1428.794,1181.717,1441.267,1161.108,1453.472,1140.536Zm49.626,688.282a150.283,150.283,0,0,1,32.549,8.216,153.131,153.131,0,0,1,46.469,28.063c-4.3,12.928-8.479,26.2-12.625,39.661a267.939,267.939,0,0,0-75.1-28.369Q1498.725,1852.6,1503.1,1828.818Zm-52.669-272.65c-31.03-87.842-59.209-182.454-80.274-274.4,8.441-15.285,17.188-30.5,26.086-45.633A1159.96,1159.96,0,0,0,1450.43,1556.168Zm-275.124,159.98c-1.332-58.373,1.978-122.411,9.848-178.955a224.27,224.27,0,0,1,17.264,14.64c49.7,47.268,76.168,113.7,95.714,179.447,13.007,43.694,24.6,99.594,34.91,163.173a267.091,267.091,0,0,0-100.733,84.193c-17.415-47.419-34.148-94.573-43.731-135.376-7.605-32.476-11.98-76.548-13.2-124.614,4.145-2.7,8.289-5.4,12.585-7.908C1183.709,1712.42,1179.49,1714.245,1175.306,1716.148Zm139.673-16.734c-15.781-48.37-33.617-97.157-34.376-148.039-.8-51.6,16.047-101.683,33.653-150.205,2.281-6.2,4.716-12.359,7.188-18.519,24.6,134.35,62.136,249.3,110.7,434.875a149.218,149.218,0,0,0-50.537,44.111,154.816,154.816,0,0,1,54.682-28.064c1.254,4.715,2.471,9.354,3.689,14.185a201.046,201.046,0,0,1,4.334,22.739,248.426,248.426,0,0,0-59.208,5.7,251.165,251.165,0,0,0-26.2,7.646C1345.477,1811.326,1330.684,1747.671,1314.979,1699.414ZM1287.9,1347.741c6.276-11.862,13.538-25.779,21.411-40.8.3,2.282.646,4.525.951,6.807C1301.669,1326.181,1294.026,1337.7,1287.9,1347.741Zm109.821-210.781c-1.177,20.116-1.748,40.232-1.9,60.388-11.561,15.322-23.007,30.571-34.148,45.48-1.824-8.746-3.65-17.531-5.324-26.2C1370.08,1190.159,1384.149,1163.085,1397.724,1136.96Zm-44.641,176.9c12.2,102.9,32.057,208.463,56.469,309.423-26.049-88.146-53.656-177.851-78.07-264.4Q1341.522,1336.24,1353.083,1313.861Zm-7.719-76.168c.645,8.024,1.444,16.124,2.205,24.184-11.144,15.059-21.523,29.433-30.994,42.9-.721-2.587-1.405-5.173-2.09-7.759C1324.1,1278.609,1334.564,1258.531,1345.364,1237.693Zm-5.022-94.726q.458,19.453,1.483,39.282c-13.878,22.321-26.957,45.062-39.355,68.411l-.037-.076v.114a1163.855,1163.855,0,0,0-63.468,142.144C1265.05,1299.183,1297.373,1221.379,1340.341,1142.967Zm-92.631,45.481c4.6,11.6,9.05,23.234,13.157,35.024a875.492,875.492,0,0,0-58.713,115.144C1212.383,1284.2,1227.442,1235.26,1247.71,1188.448ZM959.771,1433.3c54-5.816,108.11,5.9,155.186,28.294,46.889,23.159,88.794,54.492,122.6,93.129l-3.08,2.888c-37.8-33.159-81.377-59.854-127.695-76.586-46.012-17.339-95.676-23.31-142.257-14.259-47.153,8.4-87.653,34.225-127.084,60.8-39.968,26.884-76.284,60.5-115.375,94.573l-3.422-2.474c20.42-47.987,52.324-90.919,93.128-125.637C852.27,1458.7,906.115,1438.626,959.771,1433.3Zm208.083,91.761c-8.937,42.74-14.641,92.937-15.1,136.286-.38-36.43-7.491-94.724-14.413-152.41A240.93,240.93,0,0,1,1167.854,1525.062Zm-435.065,230.1c-7.984-2.435-16.086-4.451-24.223-6.238,3.006-9.925,6.274-19.812,9.963-29.545a413.645,413.645,0,0,1,29.432-61.415,431.7,431.7,0,0,1,87.8-69.7q-37.876,63.259-75.711,126.476c32.322-38.635,76.775-67.307,125.83-79.172A528.745,528.745,0,0,0,755,1762.957c-6.465-2.548-13-4.9-19.622-7q12.319-20.592,24.68-41.222A235.591,235.591,0,0,0,732.788,1755.162ZM862.232,1534.8a314.424,314.424,0,0,1,27.8-16.5q28.235,51.333,56.545,102.6A474.578,474.578,0,0,0,862.232,1534.8Zm108.947,119.86c-63.048,31.3-116.1,82.1-150.815,143.323-7.263-4.943-14.715-9.772-22.512-14.336a297.568,297.568,0,0,0-32.019-16.313C821.733,1711.316,893.718,1671.2,971.179,1654.656ZM964.9,1491.142a290.977,290.977,0,0,1,72.822-5.932c16.464,69.587,33.538,140.736,37.416,178.649A472.332,472.332,0,0,0,986.808,1513.5,238.214,238.214,0,0,0,964.9,1491.142Zm103.851-2.967a266.641,266.641,0,0,1,52.514,13.689c.686,43.2.838,84.839-4.182,109.44C1107.619,1587.008,1088.72,1538.942,1068.755,1488.175Zm-348.4-32.551c8.556-2.967,17-5.816,25.251-8.479-7.227,3.118-14.377,6.425-21.525,9.81C722.864,1456.5,721.608,1456.08,720.354,1455.624ZM808.12,1411.4a790.933,790.933,0,0,0-121.495,33.236,508.2,508.2,0,0,0-66.738-14.452C680.653,1411.818,744.919,1404.936,808.12,1411.4ZM679.056,1890.955a148.821,148.821,0,0,0-22.664.457l24.375-130.776,2.206.57A790.97,790.97,0,0,0,679.056,1890.955Zm3.8,47.8c1.024,8.783,2.395,17.529,3.687,26.275a251.412,251.412,0,0,0-44.873,5.247q2.852-15.227,5.668-30.459C659.168,1938.907,671.032,1938.489,682.861,1938.756Zm.949-194.355.571-3.12c.38-.646.761-1.255,1.14-1.862-.227,1.711-.38,3.461-.608,5.172Zm-19.736-255.2-3.763,2.281q-8.728-3.2-17.532-6.01c2.319-.989,4.678-2.014,7-3C654.568,1484.678,659.358,1486.919,664.074,1489.2Zm-131.155-23.577c10.573-5.592,21.448-10.61,32.4-15.4q28.976,8.956,57.116,20.421c-4.145,1.9-8.291,3.841-12.435,5.779A428.538,428.538,0,0,0,532.919,1465.626Zm14.033,65.33c10.723-5.744,21.6-11.258,32.513-16.657l35.63,7.074c-2.243,1.6-4.563,3.157-6.768,4.791A377.375,377.375,0,0,0,546.952,1530.957Zm49.283,44.681c7.643-4.754,15.4-9.356,23.2-13.881q27.722-.855,55.369.647l-.725.685A417.64,417.64,0,0,0,596.235,1575.638ZM656.7,1789.575l-.3,2.928c-1.253,5.019-2.472,10-3.726,15.02.912-2.4,1.9-4.753,2.851-7.109q-5.079,46.257-10.115,92.517c-.379.078-.8.078-1.179.153-7.453,1.522-14.755,3.423-22.056,5.515Zm-40.079-47.268c4.715-5.55,9.581-10.989,14.412-16.428-.876,2.473-1.674,4.982-2.549,7.456-1.9,2.886-3.878,5.7-5.742,8.629Zm23.575,198.082q-1.71,15.573-3.385,31.108c-3.308.834-6.617,1.6-9.773,2.583a313.419,313.419,0,0,0-32.589,12.055l12.967-40.919C618.253,1943.128,629.2,1941.493,640.193,1940.389Zm-75.977-18.367q16.884-38.1,33.73-76.242-6.562,32.4-10.609,65.175C579.465,1914.3,571.784,1918.03,564.216,1922.022Zm1.293,155.606,17.759-56.2a327.474,327.474,0,0,1,49.587-13.765q-1.37,12.091-2.664,24.26l4.6-24.717a323.926,323.926,0,0,1,58.143-5.211c1.066,5.287,1.9,10.649,3.08,15.934-.875-5.285-1.635-10.609-2.395-15.934a326.462,326.462,0,0,1,97.539,14.907C711.572,2013.286,633.008,2036.141,565.509,2077.628Zm123.854-112.635q-1.2-13.005-1.864-26.048c66.51,2.319,132.029,23.042,183.175,61.6C820.213,1979.671,750.813,1963.511,689.363,1964.993Zm-2.586-73.352c.912-42.02,6.122-83.777,16.58-124.235,6.768,2.32,13.425,4.942,20,7.8-.42.989-.876,1.976-1.294,2.966l1.711-2.812c5.135,2.242,10.192,4.561,15.212,7.109.57.269,1.139.684,1.711.989a522.552,522.552,0,0,0-31.333,54.492,400.413,400.413,0,0,1,37.836-50.8c18.139,10.8,37.19,26.885,55.709,46.127-.57,1.37-1.215,2.7-1.787,4.07l2.51-3.27c45.671,47.685,87.918,113.318,104.724,159.751C851.927,1954.27,761.994,1899.167,686.777,1891.641Zm254.856,82.286c-13.8-72.743-54.342-128.338-113.93-170.927,25.1-31.41,52.326-61.072,86.094-82.481,25.515-16.161,55.747-26.81,85.75-28.559C954.561,1756.986,931.822,1893.35,941.633,1973.927Zm36.313-50.117c-4.828-46.734,4.071-177.813,25.214-232,22.816-.8,45.366,3.576,65.481,14.719,19.507,10.835,34.946,26.81,47.989,45.024-47.684,37.3-83.847,89.476-100.466,147.77l15.021-98.984Q1004.547,1862.052,977.946,1923.811Zm330.53,477.5c-32.019-91.759-87.651-163.023-163.439-235.958-25.782-24.831-61.679-38.217-84.077-66.168-27.911-34.869-35.821-82.058-33.425-126.628,4.259-79.057,39.776-155.493,95.522-211.5,9.545,14.714,17.873,30.459,25.63,46.011,23.045,46.393,46.887,113.777,70.273,192.151a247.035,247.035,0,0,0-24.831,57.265c10.381-11.368,20.953-22.624,31.754-33.652C1274.252,2190,1320,2400.781,1351.9,2568.25c.075,5.932.15,11.864.227,17.759C1342.129,2523.3,1329.354,2461.167,1308.476,2401.313Zm65.674-88.109-25.251.342q.4,32.8.761,65.636c-26.468-106.818-52.744-203.406-65.787-250.9-10.078-36.732-25.48-78.9-41.336-121.874,24.032-23.045,49.624-44.264,78.07-61.413q9.126-5.476,18.6-10.343c20.914,142.371,35.782,315.355,45.175,474.764Zm31.18-98.376c-10.685-101.682-24.071-202.418-39.472-292.045,26.163-10.115,53.732-16.122,81.34-16.389C1449.48,1998.686,1420.161,2120.561,1405.33,2214.829Zm45.861,196.181-3.612-.268q-10.1,39.758-20.193,79.554c-3.081-57.191-7.378-117.5-12.74-178.765q36.738-200.434,73.469-400.954a164.05,164.05,0,0,1,69.476,34.224C1514.811,2093.067,1479.294,2264.074,1451.191,2411.01Zm88.527-193.4c-7.074,13.576-14.221,28.367-21.334,44.034,22.854-116.208,44.415-225.423,62.022-292.77a125.417,125.417,0,0,1,21.979,46.089C1619.193,2085.424,1573.294,2153.377,1539.718,2217.606Zm95.18-260.219a247.381,247.381,0,0,0-40.081-36.353l.039-.037q5.705-15.119,11.408-29.777A156.4,156.4,0,0,1,1634.9,1957.387Zm6.313-242.155c-16.277,33.122-31.791,71.377-46.585,113.131a148.862,148.862,0,0,0-57.458-26.771,146.367,146.367,0,0,0-28.483-3.117c14.64-78.6,31.144-157.2,62.9-230.443a584.441,584.441,0,0,1,64.037-111.608c36.24,34.833,73.772,75.635,77.88,102.177C1721.828,1612.561,1677.831,1640.511,1641.212,1715.232Zm592.379-319.044c-11.56-2.015-22.776-4.716-34.034-7.035-11.254-2.28-22.053-6.273-33.5-7.225-22.741-2.053-44.8-8.175-67.459-6.882a377.684,377.684,0,0,0-133.247,14.07c-43.159,12.967-83.848,34.985-119.44,63.541-35.669,28.407-67.612,62.44-92.52,101.114l-1.863-.987a401.78,401.78,0,0,1,26.352-40.235c-28.368-12.282-82.328-45.063-129.71-72.554q13.692-17.458,28.636-33.845a527.964,527.964,0,0,0,101.568,105.716,449.159,449.159,0,0,1,60.766-67.307c35.138-30.917,76.206-55.748,120.888-71.453,44.337-15.478,92.67-25.4,140.014-19.128,11.826,1.026,23.616,2.053,35.061,5.324,11.484,2.775,23.044,5.133,34.377,8.328,22.434,6.921,43.806,17.035,64.873,26.62Z" transform="translate(-349.821 -364.902)"/></g></g></svg>