<svg xmlns="http://www.w3.org/2000/svg" xmlns:xlink="http://www.w3.org/1999/xlink" width="690" height="885" viewBox="0 0 690 885"><defs><style>.a{fill:#fff;stroke:#707070;}.b{opacity:0.405;clip-path:url(#a);}.c{fill:#e2e2e2;}</style><clipPath id="a"><rect class="a" width="690" height="885" transform="translate(590 670)"/></clipPath></defs><g class="b" transform="translate(-590 -670)"><g transform="translate(780.278 295.768)"><path class="c" d="M461.174,469.706a7,7,0,0,0-1.152-1.656l-37.182-37.182a6.975,6.975,0,0,0-9.845,0l-37.182,37.182a6.563,6.563,0,0,0-1.134,1.71,14.373,14.373,0,0,1,2.807,2.124l14.848,14.847,14.847-14.847a15.551,15.551,0,0,1,21.471,0L443.5,486.732l14.848-14.847A14.763,14.763,0,0,1,461.174,469.706Z" transform="translate(72.71 721.773)"/><path class="c" d="M414.569,433.564l-39.594,39.595a5.42,5.42,0,0,0-.414.485,14.208,14.208,0,0,1,2.988,2.2l15.818,15.837L409.2,475.84a15.555,15.555,0,0,1,21.471,0l15.82,15.837,15.837-15.837a14.054,14.054,0,0,1,2.969-2.2,3.294,3.294,0,0,0-.4-.485l-39.593-39.595A7.762,7.762,0,0,0,414.569,433.564Z" transform="translate(70.687 765.456)"/><path class="c" d="M444.261,457.557,415.88,429.175a7.583,7.583,0,0,0-10.744,0l-28.4,28.381a7.968,7.968,0,0,0-1.62,2.574l11.752,11.77,13.8-13.8a13.936,13.936,0,0,1,19.67,0l13.8,13.786,11.733-11.735A7.29,7.29,0,0,0,444.261,457.557Z" transform="translate(80.121 689.632)"/><path class="c" d="M444.044,455.89c-.109-.126-.162-.287-.288-.414L415.374,427.1a7.6,7.6,0,0,0-10.762,0L376.23,455.476a7.044,7.044,0,0,0-1.007,1.332,13.981,13.981,0,0,1,3.33,2.393l9.7,9.7,9.7-9.7a15.536,15.536,0,0,1,21.47,0l9.7,9.7,9.7-9.7A14.318,14.318,0,0,1,444.044,455.89Z" transform="translate(81.939 654.261)"/><path class="c" d="M375.344,425.269l-.216.089.684,1.567-.054-.72Z" transform="translate(80.324 661.162)"/><path class="c" d="M418.651,452.117,402.814,436.28a7.6,7.6,0,0,0-10.761,0l-16.378,16.378c-1.1,4.768-2.069,9.447-2.916,14.145,2.736,6.947,10.475,12.237,21.057,16.072a14.874,14.874,0,0,1,4.284-10.223Z" transform="translate(40.059 810.379)"/><path class="c" d="M383.787,467.027a13.606,13.606,0,0,1,3.024-4.553l18.032-18.033L391.489,431.1a7.583,7.583,0,0,0-10.744,0l-7,7a96.76,96.76,0,0,1,3.293,29.965A15.98,15.98,0,0,1,383.787,467.027Z" transform="translate(56.8 722.436)"/><path class="c" d="M383.257,427.639l-9.088,9.106a77.746,77.746,0,0,1,6.173,9.611,15.675,15.675,0,0,1,5.363-1.009,14.748,14.748,0,0,1,3.077-4.768l9.088-9.089-3.851-3.851a7.646,7.646,0,0,0-10.763,0Z" transform="translate(64.024 663.813)"/><path class="c" d="M373.305,450.844c-1.337,1.3,3.816,7.882,5.346,11.986l4.265-4.283a15.534,15.534,0,0,1,16.881-3.023,14.48,14.48,0,0,1,2.447-3.312l13.318-13.336-9.682-9.7a7.556,7.556,0,0,0-5.38-2.231,7.266,7.266,0,0,0-2.484.5,26.63,26.63,0,0,1,1.3,11.176C397.98,450.718,374.642,449.541,373.305,450.844Z" transform="translate(49.266 689.632)"/><path class="c" d="M380.537,475.908a15.1,15.1,0,0,1,10.852-4.283,15.622,15.622,0,0,1,2.682-3.762l19.383-19.383L398.6,433.633a7.58,7.58,0,0,0-10.743,0l-1.225,1.224a92.575,92.575,0,0,1-3.293,14.632c-4.031,12.453-7.415,23.486-10.222,33.852Z" transform="translate(46.229 765.388)"/><path class="c" d="M387.6,395.08l-.234.306c.431.2.954.468,1.367.63C388.342,395.709,388,395.367,387.6,395.08Z" transform="translate(288.42 148.036)"/><path class="c" d="M1385.158,888.438c-37.542-28.38-85.648-48.537-132.548-44.741,39.864-14.559,83.039-6.515,126.232-4.571-36.228-13.21-73.428-25.449-135.015-12.707,50.483-20.03,104.744-29.5,158.843-39.4a459.6,459.6,0,0,0-167.085,24.71c46.792-32.863,99.919-50.032,153.73-65.474-55.34,7.811-110.592,14.056-167.606,49.978a323.332,323.332,0,0,1,28.579-21.471c1.584.181,3.168.378,4.734.576-1.368-.36-2.754-.648-4.139-.99,44.884-30,92.991-47.081,140.017-68.407-39.035,5.651-93.351,18.754-142.087,44.273-6.588-.2-13.175-.18-19.761.017,43.931-37.505,103.34-67.849,146.406-86.547-44.957,5.345-128.265,48.2-178.927,89.032-3.131.4-6.263.773-9.394,1.259,6.587-7.307,14.164-14.794,22.478-22.334q29.263-13.688,58.509-27.392c-11.428,1.692-22.784,3.96-34,6.749,44.993-35.58,100.568-68.641,135.248-82.264a630.367,630.367,0,0,0-176.624,95.366,357.846,357.846,0,0,0-51.13,24.243l.4-.919c38.5-34.734,82.985-62.954,129.975-88.473-33.151,11.067-76.578,31.189-113.76,55.359q2.349-4.292,4.787-8.5c31.676-26.4,66.823-54.512,92.829-78.125a683.567,683.567,0,0,0-69.775,42.8,394.861,394.861,0,0,1,33.655-40.187c-24.746,15.64-45.551,36.93-64.016,62.666-15.01,11.752-29.57,24.062-43.535,37.038,40.4-44.561,82.5-85.2,125.314-124.162-43.319,26.06-85.756,61.91-124.5,101.647l.161-.792c37.4-41.933,74.8-88.689,112.195-127.958-35.275,21.758-71.881,57.375-104.545,94.43,4.985-20.373,10.636-40.583,17.025-60.344a222.413,222.413,0,0,1,23-24.026,221.347,221.347,0,0,0-20.768,17.24c10.923-32.574,24.025-63.745,40.223-91.911-29.623,35.85-52.12,77.874-68.965,122.7-19.563,23.648-37.272,50.464-52.7,76.523-.7-9.053-1.331-18.124-1.835-27.229a766.067,766.067,0,0,1,67.957-137.066c-26.258,26.959-49.438,58.131-69.433,91.983a773.911,773.911,0,0,1,2.826-77.892c2.447-6.1,4.93-12.13,7.469-18.015-2.25,3.167-4.428,6.443-6.624,9.719,1.674-16.216,3.887-32.216,6.875-47.8a380.674,380.674,0,0,0-20.031,68.767,554.318,554.318,0,0,0-42.238,90.129,421.836,421.836,0,0,1-6.191-75.3c5.056-16.288,10.69-32.017,16.845-46.829q-8.747,15.982-16.342,32.593c.161-2.807.251-5.633.485-8.4-.557,3.4-.935,6.929-1.367,10.42A527.325,527.325,0,0,0,955.5,721.209q-6.776-9.773-13.336-19.329a656.255,656.255,0,0,1,20.1-151.7,660.111,660.111,0,0,0-32.089,134.079c-5.7-8.459-11.176-16.665-16.287-24.512q.107-35.662,2.357-71.268-5.616,30.18-9.16,60.7l-.774-1.224.738,1.566a907.427,907.427,0,0,0,2.267,226.368q-12.608-82.257-25.25-164.512c4.967-8.836,9.718-17.691,14.074-26.6-3.852,6.336-8.945,13.858-14.758,22.065l-7.127-46.378c-2.231,20.5-3.509,41.1-3.959,61.73-6.065,8.243-12.508,16.88-19.131,25.663q-1.35-13.768-2.2-27.553c9.052-17.386,17.349-33.313,23.666-45.281-8.585,10.582-16.7,20.984-24.4,31.37-.234-5.669-.414-11.338-.5-17.008q-1.431,10.475-2.412,21c-8.837,12.059-17.133,24.117-24.908,36.354-.882-5.4-1.71-10.762-2.447-16.053,8.1-14.631,16.971-29.353,26.779-44.615-10.06,10.871-19.49,21.688-28.4,32.63v0q-4.887,6.019-9.575,12.093c8.062-25.087,17.35-49.528,32.2-71.538,21.164-31.424,28.49-82.859,13.012-126.087,2.77,65.023-21.165,130.785-65.1,178.818,35.023-46.055,54.909-145.92,44.039-208.64,2.124,51.111-18.339,144.3-49.762,184.667a344.727,344.727,0,0,0,27.229-205.975,265.824,265.824,0,0,1-48.142,176.011c34.446-69.127,32.467-155.171-5.13-222.624a304.254,304.254,0,0,1-8.891,195.916c21-73.787,5.453-157.078-40.781-218.323A299.716,299.716,0,0,1,732.3,616.178c4.751-85.361-25.808-172.142-82.967-235.691a437.981,437.981,0,0,1,62.612,208.19c-5.363-91.425-59.516-176.929-143.742-221.165C637.5,415.24,683.415,495.435,689.517,579.391c-19.96-49.312-38.587-100.136-70.657-130.983-35-33.709-70.351-66.806-115.992-83.507C576.89,410.11,633.419,483.215,658.507,566.235c-24.871-43.517-50.23-87.682-86.188-122.632-35.939-34.932-84.568-60.057-134.582-56.546,80.412,23.36,152.184,87.087,184.291,162.153C571.294,474.792,482.244,421.287,395.57,421c38.423,12.6,77.118,25.34,112.409,45.082,35.275,19.762,70.495,50.375,89.193,86.225-31.422-28.454-66.427-60.381-103.861-80.322-37.434-19.922-81.635-30.415-122.722-19.9,74.849,5.866,146.964,41.537,197.068,97.454-32.178-20.391-64.61-40.926-100.208-54.5-35.6-13.551-75.012-19.8-112.014-10.761a389.886,389.886,0,0,1,196.331,74.454,271.387,271.387,0,0,0-183.733-24.945A575.809,575.809,0,0,1,528.785,561.88c-63.152-12.616-132.567,15.316-169.372,68.174,41.3-36.859,79.494-55.143,134.475-61.659-41.933,14.65-66.23,32.341-99.092,62.216q57.528-29.207,115.037-58.419a289.19,289.19,0,0,0-98.012,97.959,324.334,324.334,0,0,1,129.939-97.94,376.009,376.009,0,0,0-99.38,96.122c35.707-36.894,77.91-68.983,123.389-100.712a440.481,440.481,0,0,1-106.093,97.67c50.733-19.814,92.775-49.42,125.979-90.562-17.889,26.24-62.737,72.367-80.627,98.588,20.175-13.155,50.1-42.114,71.466-69.108-9.412,21.326-14.667,46.575-14.541,58.436,9.034-21.885,35.058-71.827,55.629-83.56-15.657,10.6-25.951,46.5-27.049,65.383,9.3-23.989,29.874-61.064,54.4-68.839-12.6,9.269-34.842,39.216-37.7,64.483,6.875-18.824,31.333-43.39,49.8-51.165-18.393,13.336-21.327,24.6-18.267,42.869,9.952-19.869,21.146-39.36,38.477-28.58,6.8,4.23,10.385,11.735,15.676,17.746A455.519,455.519,0,0,1,769.172,741.15c-13.21,21.056-23.469,44.039-27.788,65.563-4.14-51.814-27.607-108.72-73.14-133.791,40.583,36.822,62.666,83.686,55.845,138.055-2.61-70.117-55.233-125.385-122.776-144.318,53.54,37.326,84.82,92.6,104.726,154.758-27.9-77.747-94.288-135.9-176.606-142.591,70.693,23.845,124.756,76.073,158.806,142.446C645.783,754.449,572.913,712.948,493.815,716.26c65.42,11.59,125.548,50.446,163,105.3-55.72-53.884-140.81-75.336-215.426-54.3,67.327-7.721,137.5,14.092,188.61,58.6-68.947-40.655-158.087-44.794-230.508-10.725A266.485,266.485,0,0,1,588.5,832.628c-70.657-23.774-154.092-3.779-206.283,49.439a267.183,267.183,0,0,1,172.646-41.483c-36.768-1.386-73.644,8.1-105.733,26.078a219.018,219.018,0,0,0-36.948,2.25c8.243,1.457,16.4,3.294,24.494,5.381-5.4,3.545-10.636,7.307-15.657,11.339A196.92,196.92,0,0,0,375,892.343q15.738,3.1,31.477,6.227a191.847,191.847,0,0,0-20.283,23.09,222.2,222.2,0,0,1,27-21.759q15.5,3.079,30.973,6.137-13.254,7.7-25.537,16.4a173.266,173.266,0,0,0-68.8,39.846,317.025,317.025,0,0,1,39.107-15.568A198.718,198.718,0,0,0,363.3,975.921c10.312-11.608,22.909-22.515,36.911-32.611a322.947,322.947,0,0,1,48.36-9.754q-9.557,8.45-18.466,17.565a203.088,203.088,0,0,0-72.924,57.807,345.7,345.7,0,0,1,52.875-35.4,332.366,332.366,0,0,0-23.36,32.341,353.422,353.422,0,0,1,45.082-43.283A345.7,345.7,0,0,1,487.3,942.591c-56.223,23.559-101.179,72.582-119.807,130.623A293.355,293.355,0,0,1,473.011,965.033c-3.365,4.32-6.568,8.747-9.682,13.246A305.737,305.737,0,0,0,397.891,1110a358.675,358.675,0,0,1,54.082-87.538c2.393-.343,4.787-.63,7.18-.846a320.66,320.66,0,0,0-43.39,93.351,384.183,384.183,0,0,1,35.544-65.311,245.165,245.165,0,0,0-6.946,38.154,274.7,274.7,0,0,1,17.439-52.948q5.263-7.018,10.816-13.8c1.224,0,2.448.054,3.671.09a229.417,229.417,0,0,0-30.325,83.651,145.276,145.276,0,0,0-50.267,48.574c17.4-18.627,40.063-31.189,64.592-37.884q-.757,9.8-1.063,19.617a154.711,154.711,0,0,0-61.1,53.325,174.059,174.059,0,0,1,59.733-38.621q-3.24,12.984-6.461,25.988c-34.933,21.6-63.584,53.775-79.656,91.8,33.259-54.836,86.621-91.227,150.618-95.564-62.935,15.91-107.082,69.108-120.4,132.657,23.918-49.294,52.443-84.1,101.054-109.349-65.544,38.945-99.884,102.727-109.35,178.368,15.531-58.454,49.725-119.806,96.32-148.152-47.512,39.036-78.827,105.77-79.763,161.362,7.109-46.973,46.63-109.153,79.547-143.42-30.11,53.325-66.086,130.768-71.106,191.8,22.01-52.245,49.312-122.326,71.34-174.554-12.777,46.577-30.828,111.006-43.624,157.583,11.68-28.147,31.171-91.083,42.833-119.249-3.077,26.691-13.984,88.15-17.079,114.822,17.96-73.86,31.711-130.443,49.672-204.321-4.607,38.945-5,60.6-9.611,99.542,11.41-35.454,22.8-83.6,34.213-119.034-5.633,28.2-5.453,70.262.522,98.391-5.382-41.214,7.577-89.427,39.593-115.938-13.408,22.64-6.928,47.837,9.557,66.3-2.285-47.386,4.337-72.906,35.112-63.889a163.049,163.049,0,0,1,54.333,27.553c23.324,18.321,45.479,38.477,63.026,62.4,25.844,35.2,40.817,77.441,49.114,120.328a584.943,584.943,0,0,1,8.135,61.838,14.383,14.383,0,0,1,7.5,3.653l3.852,3.852,13.948-13.948a15.513,15.513,0,0,1,21.453,0l15.549,15.55,5.454-5.454a15.5,15.5,0,0,1,17.151-2.806c-.45,2.681-.846,5.363-1.224,8.044a7.482,7.482,0,0,0-5.183-2.105,7.562,7.562,0,0,0-5.382,2.231l-5.453,5.454,7.488,7.469a15.043,15.043,0,0,1,3.276,5.021,16.547,16.547,0,0,1,3.024,1.008c-.253,2.772-.379,5.561-.559,8.351a7.557,7.557,0,0,0-10.672.054l-9.7,9.7,13.318,13.318a14.619,14.619,0,0,1,2.429,3.311,16.084,16.084,0,0,1,3.869-1.007c.019,2.537.072,5.094.144,7.631a7.279,7.279,0,0,0-3.222,1.764l-13.353,13.335,18.033,18.034a11.757,11.757,0,0,1,1.133,1.709c.45,3.491.99,6.983,1.53,10.474a7.362,7.362,0,0,0-3.905,1.926l-14.829,14.847,19.383,19.4a14.9,14.9,0,0,1,2.682,3.743,16.048,16.048,0,0,1,5.506.989c1.153,4.141,2.358,8.243,3.654,12.312l-3.654-3.653a7.6,7.6,0,0,0-10.762,0l-15.837,15.837,20.553,20.534a15.028,15.028,0,0,1,4.247,9.034,78.457,78.457,0,0,1-7.559,2.609,7.51,7.51,0,0,0-2.034-6.281l-41.735-41.734a7.6,7.6,0,0,0-10.762,0l-41.736,41.734a7.507,7.507,0,0,0-1.853,7.271c45.856,12.2,127.564,2.412,120.275-20.48a358.62,358.62,0,0,1-9.647-239.361c-6.1.719-12.184,1.421-18.285,2.142q1.511-21.165,3.023-42.347c24.746-96.411,45.209-142.968,84.155-208.425-1.008,37.452,2.591,67.057,1.6,104.509,9.016-33.2,18.015-84.119,27.032-117.323,1.583,53.47,12.922,124.378,33.295,173.852-10.006-52.372-14.992-124.954-1.836-176.624,7.9,56.511,22.478,131.054,30.4,187.566,6.174-55.539,1.476-135.789-13.749-189.545,26.708,64.843,53.4,153.227,80.105,218.071-13.768-65.888-32.7-152.13-56.835-208.983,26.942,54.424,49.456,130.839,76.416,185.28-8.855-48.609-22.479-108.216-43.607-152.867,35.274,59.913,57.591,138.668,68.5,207.327a654.536,654.536,0,0,0-38.333-184.4c33.618,74.976,66.121,138.037,87.879,205.166-14.757-55.952-38.459-124.7-53.217-180.654,24.134,54.027,57.176,120.869,81.293,174.9q-25.078-72.807-50.176-145.633c-5.453-9.322-10.834-18.591-16.072-27.7,37.056,37.4,78.756,79.439,115.812,116.819-34.753-50.05-76.866-104.347-127.294-138.541,56.834,12.634,106.687,57.374,140.828,104.545-28.22-48.25-91.192-93.567-140.432-119.969,49.007,6.984,115.991,39.558,145.182,79.547-32.79-52.263-107.334-98.606-168.9-94.556,56.924-5.868,127.257,17.637,179.629,40.672-61.874-45.046-121.984-71.537-196.78-55.3,59.1-29.893,110.574-21.867,170.7,5.9-64.735-32.664-118.168-48.321-187.547-27.247,70.135-32.232,139.981-28.6,211.484-7.307-71.089-29.677-145.6-40.8-220.177-21.56,60.164-27.518,160.264-22.515,222.318-4.337-42.616-29.282-155.657-34.212-210.458-11.86,51.958-24.333,125.674-39.63,182.923-35.887-62.99-15.4-158.68-1.961-211.394,35.814,43.679-50.806,135.752-81.85,202.737-83.2-70.962-15.028-171.458,15.837-228.419,77.729,31.621-62.846,121.786-113.291,189.077-124.361-81.13,10.241-153.424,28.777-212.833,122.687,47.494-95.043,150.815-159.436,257.052-160.229-109.98-17.8-234.592,53.362-286.676,162.694,34.3-73.248,101.054-163.485,169.857-206.084-74.849,39.359-141.24,107.011-177.253,173.726l67.49-148.278c-44.669,56.907-74.706,115.02-103.807,195.161a71.152,71.152,0,0,0-15.37-31.837c19.85-49.006,40.565-89.913,71.34-127.726,24.548-30.2,54.225-57.446,90.291-72.078,54.892-22.227,121.859-11.032,166.51,27.876s64.915,103.7,50.409,161.111c12.437-24.566,12.833-64.52,5.256-93.117,6.029,20.3,13.786,48.017,19.238,65.762,2.34-41.735-7.829-82.678-43.571-116.117,20.7,16,39.756,38.081,58.544,61.154-5.345-26.923-42.491-60.758-73.518-82.049,22.244,8.369,63.745,35.095,79.2,55.594-14.541-33.1-62.521-63.3-97-74.185,27.139,4.013,69.2,20.516,90.6,40.422a183.825,183.825,0,0,0-110.2-54.621A232.2,232.2,0,0,1,1385.158,888.438ZM462.645,1016.415c-.522.755-1.008,1.529-1.53,2.285-2.411.432-4.805.918-7.2,1.477q6.8-8.019,14.074-15.622Q465.182,1010.413,462.645,1016.415Zm570.526,95.8a163.775,163.775,0,0,1,47.62,13.75c15.1,6.911,29.839,15.334,41.825,26.906a205.916,205.916,0,0,1,16.377,18.662,182.732,182.732,0,0,1,12.653,21.291l-1.17.954a207.914,207.914,0,0,1-19.13-14.991c-6.515-4.643-12.31-9.934-18.556-14.6-6.425-4.409-11.95-9.934-18.357-14.29-3.078-2.339-6.047-4.931-9.268-7.09l-9.863-6.191a153.56,153.56,0,0,0-43.355-17.007c-15.244-3.492-31.387-4.571-47.008-1.692l-.468-1.422C1000.021,1111.151,1016.757,1110.575,1033.171,1112.213Zm189.276-356.089q9.555-1,19.094-2.017-11.852,6.613-23.053,14.289c-2.682-.324-5.346-.558-8.027-.791C1214.258,763.7,1218.289,759.885,1222.447,756.124Zm-13.966,13.515c2.3.27,4.59.558,6.893.846a240.637,240.637,0,0,0-23.324,18.646A191.9,191.9,0,0,1,1208.48,769.639Zm-26.869-9.25,6.568-.684c-2.519,2.2-4.967,4.373-7.271,6.551l-3.6-.45C1178.677,764.024,1180.1,762.224,1181.611,760.388Zm-4.841,6.155c1.314-.036,2.646-.107,3.977-.144a173.231,173.231,0,0,0-12.418,12.85A114.008,114.008,0,0,1,1176.77,766.543Zm-25.718-7.45c-1.3,1.188-2.591,2.393-3.887,3.6-3.258.9-6.533,1.781-9.754,2.789Q1144.24,762.268,1151.052,759.092Zm-11.7,10.978c-3.221,3.1-6.425,6.192-9.556,9.358.917-2.771,1.89-5.507,2.861-8.261C1134.89,770.755,1137.122,770.431,1139.354,770.07Zm-9.413-35.958-.522.937c-1.943,1.565-3.887,3.114-5.758,4.679C1125.694,737.892,1127.8,736,1129.941,734.112Zm-27.967-70.369c-5,15.639-9.358,31.531-13.155,47.532-9.791,12.237-18.969,24.187-27.284,35.327l-.036-.341C1070.389,721.8,1084.858,691.964,1101.974,663.743Zm6.317,113.077q-6.829,14.629-13.479,30.109c1.439-9,2.969-18.159,4.535-27.393C1102.315,778.6,1105.3,777.665,1108.29,776.82Zm-68.064-165.484a562.96,562.96,0,0,0-3.816,64.447q-11.2,22.326-20.625,45.677-1.944-7.234-3.689-14.488C1020.429,673.967,1029.823,641.8,1040.226,611.336Zm-.432,135.23c-1.152,2.142-2.34,4.3-3.474,6.407.936-4,1.944-8.01,2.988-12.058C1039.487,742.805,1039.613,744.695,1039.794,746.566Zm-32.341-20.625q1.107,5.507,2.3,10.978c-4.769,12.743-9.2,25.61-13.174,38.587Q1001.578,750.563,1007.453,725.942Zm-12.148-128.3c-1.368,25.573.378,52.785,4.049,80.357a623.946,623.946,0,0,0-20.948,76.217c-2.771-4.013-5.561-8.009-8.351-12.022A634.648,634.648,0,0,1,995.305,597.641ZM973.33,782.219c-1.08,6.893-2.052,13.768-2.843,20.571-.684-9.089-1.026-18.412-1.134-27.841C970.667,777.378,972,779.807,973.33,782.219ZM952.8,743.47a519.783,519.783,0,0,0-2.573,58.454l-2.754-2.5a683.642,683.642,0,0,1-5.362-77.117Q947.37,732.916,952.8,743.47Zm-1.89,79.926c-1.1-6.677-2.052-13.39-2.951-20.139.773,1.961,1.584,3.941,2.429,5.885C950.51,813.893,950.654,818.645,950.906,823.4ZM928.841,695.167a662.836,662.836,0,0,0,.919,160.228,1148.593,1148.593,0,0,1-15.838-191.417Q921.346,679.609,928.841,695.167Zm59.409,128.59c14.7-14.164,30.918-27.033,48.825-37.146l13.714-7.037c4.7-2.089,9.5-3.942,14.326-5.706,9.413-4.031,19.689-5.849,29.551-8.1l.288.954c-18.284,9.034-36.174,17.475-52.786,28.49-16.557,10.833-33.474,21.415-48.629,34.517a402.1,402.1,0,0,0-42.706,42.185,383.908,383.908,0,0,0-36.48,48.034l-.864-.486A386.122,386.122,0,0,1,988.25,823.757Zm86.512-35.166c-1.494,11.553-2.807,23.071-3.816,34.482-1.439-10.15-2.825-20.481-4.157-30.9C1069.435,790.947,1072.08,789.723,1074.762,788.59ZM1051.527,825.3c-2.843-6.767-5.614-13.732-8.351-20.769,1.369-.809,2.754-1.583,4.121-2.375C1048.63,809.952,1050.016,817.691,1051.527,825.3Zm-29.353-7.11c2.249-1.619,4.535-3.22,6.838-4.768,2.682,9.484,5.382,18.753,8.009,27.625C1032.415,833.781,1027.429,826.131,1022.175,818.194Zm11.447,59.859q-19.951-18.221-39.918-36.443c3.114-2.934,6.281-5.759,9.521-8.549C1012.816,848.286,1022.876,863.3,1033.621,878.053ZM872.151,731.99a721.923,721.923,0,0,0,35.4,229.408,731.151,731.151,0,0,1-52.965-200.145C860.471,751.479,866.374,741.726,872.151,731.99Zm23.487,325.746a71.128,71.128,0,0,1,15.4,3.888,72.475,72.475,0,0,1,21.992,13.282c-2.033,6.119-4.013,12.4-5.975,18.771a126.81,126.81,0,0,0-35.544-13.426Q893.568,1068.993,895.637,1057.735ZM870.711,928.7A1204.22,1204.22,0,0,1,832.719,798.83c4-7.234,8.135-14.434,12.346-21.6A548.977,548.977,0,0,0,870.711,928.7ZM740.5,1004.412a546.346,546.346,0,0,1,4.661-84.695,106.127,106.127,0,0,1,8.171,6.929c23.523,22.371,36.048,53.812,45.3,84.928,6.156,20.679,11.645,47.135,16.522,77.226a126.407,126.407,0,0,0-47.674,39.846c-8.242-22.442-16.161-44.759-20.7-64.07-3.6-15.37-5.67-36.228-6.245-58.977,1.962-1.278,3.923-2.556,5.956-3.742C744.479,1002.647,742.482,1003.511,740.5,1004.412Zm66.1-7.92c-7.469-22.892-15.91-45.982-16.269-70.063-.378-24.422,7.595-48.124,15.927-71.088,1.08-2.934,2.232-5.849,3.4-8.765,11.643,63.584,29.407,117.989,52.389,205.815a70.621,70.621,0,0,0-23.918,20.877,73.269,73.269,0,0,1,25.88-13.282c.594,2.231,1.17,4.427,1.746,6.713a95.151,95.151,0,0,1,2.051,10.762,117.571,117.571,0,0,0-28.022,2.7,118.849,118.849,0,0,0-12.4,3.618C821.039,1049.457,814.038,1019.331,806.606,996.492ZM793.791,830.054c2.97-5.614,6.407-12.2,10.133-19.31.144,1.08.306,2.141.45,3.222C800.306,819.85,796.689,825.3,793.791,830.054ZM845.766,730.3c-.557,9.521-.827,19.041-.9,28.58-5.471,7.252-10.888,14.469-16.161,21.525-.863-4.139-1.727-8.3-2.52-12.4C832.683,755.475,839.341,742.661,845.766,730.3ZM824.639,814.02a1264.078,1264.078,0,0,0,26.725,146.442c-12.328-41.717-25.394-84.172-36.949-125.134Q819.168,824.611,824.639,814.02Zm-3.653-36.048c.305,3.8.683,7.631,1.044,11.446-5.274,7.127-10.186,13.93-14.669,20.3-.341-1.225-.665-2.448-.989-3.672C810.924,797.336,815.874,787.834,820.986,777.971Zm-2.377-44.831q.217,9.207.7,18.591c-6.568,10.564-12.758,21.327-18.626,32.377l-.018-.036v.054A550.826,550.826,0,0,0,770.629,851.4,538.3,538.3,0,0,1,818.609,733.14Zm-43.84,21.525c2.177,5.489,4.283,11,6.227,16.576a414.345,414.345,0,0,0-27.787,54.495A329.709,329.709,0,0,1,774.769,754.665ZM638.495,870.548c25.556-2.753,51.166,2.792,73.445,13.391a186.557,186.557,0,0,1,58.023,44.075l-1.458,1.367c-17.889-15.693-38.513-28.327-60.435-36.246-21.776-8.206-45.281-11.032-67.327-6.748-22.316,3.977-41.484,16.2-60.146,28.777-18.916,12.724-36.1,28.633-54.6,44.759l-1.62-1.171A161.079,161.079,0,0,1,568.45,899.29C587.617,882.571,613.1,873.068,638.495,870.548Zm98.48,43.428a349.828,349.828,0,0,0-7.145,64.5c-.18-17.242-3.545-44.83-6.821-72.132A114.016,114.016,0,0,1,736.975,913.976Zm-205.905,108.9c-3.779-1.152-7.613-2.106-11.464-2.952,1.423-4.7,2.969-9.376,4.715-13.983a195.769,195.769,0,0,1,13.929-29.066,204.314,204.314,0,0,1,41.556-32.989q-17.926,29.939-35.832,59.858c15.3-18.285,36.336-31.855,59.552-37.47a250.241,250.241,0,0,0-61.946,60.29c-3.06-1.206-6.155-2.321-9.287-3.311q5.83-9.746,11.68-19.509A111.5,111.5,0,0,0,531.07,1022.876Zm61.262-104.294a148.813,148.813,0,0,1,13.156-7.81q13.363,24.294,26.761,48.556A224.607,224.607,0,0,0,592.332,918.582Zm51.562,56.727a169.376,169.376,0,0,0-71.377,67.831c-3.437-2.339-6.964-4.625-10.654-6.785a140.847,140.847,0,0,0-15.154-7.72C573.165,1002.125,607.234,983.138,643.894,975.309Zm-2.97-77.387a137.709,137.709,0,0,1,34.465-2.807c7.792,32.934,15.873,66.607,17.708,84.55A223.544,223.544,0,0,0,651.29,908.5,112.758,112.758,0,0,0,640.924,897.922Zm49.15-1.4A126.2,126.2,0,0,1,714.928,903c.325,20.445.4,40.152-1.979,51.8C708.467,943.293,699.523,920.545,690.074,896.518ZM525.185,881.113c4.049-1.4,8.044-2.753,11.951-4.013-3.42,1.476-6.8,3.041-10.187,4.643C526.373,881.527,525.778,881.329,525.185,881.113Zm41.537-20.931a374.323,374.323,0,0,0-57.5,15.73,240.525,240.525,0,0,0-31.585-6.84A228.512,228.512,0,0,1,566.722,860.182ZM505.64,1087.144a70.441,70.441,0,0,0-10.726.216l11.536-61.893,1.044.27A374.338,374.338,0,0,0,505.64,1087.144Zm1.8,22.623c.485,4.157,1.133,8.3,1.745,12.435a118.99,118.99,0,0,0-21.237,2.483q1.35-7.206,2.682-14.415C496.227,1109.838,501.842,1109.64,507.44,1109.766Zm.449-91.984.27-1.477c.18-.306.36-.594.54-.881-.107.81-.18,1.638-.288,2.448Zm-9.34-120.778-1.781,1.08q-4.131-1.513-8.3-2.844c1.1-.468,2.214-.953,3.311-1.422C494.05,894.863,496.317,895.924,498.549,897.005Zm-62.072-11.159c5-2.647,10.151-5.022,15.334-7.289q13.714,4.238,27.032,9.664c-1.961.9-3.924,1.818-5.885,2.735A202.822,202.822,0,0,0,436.477,885.846Zm6.642,30.919c5.075-2.718,10.222-5.328,15.387-7.883l16.863,3.348c-1.061.755-2.16,1.494-3.2,2.267A178.6,178.6,0,0,0,443.118,916.766Zm23.324,21.146c3.617-2.25,7.288-4.428,10.978-6.569q13.12-.4,26.2.306l-.343.324A197.662,197.662,0,0,0,466.442,937.912Zm28.615,101.251-.144,1.386c-.593,2.375-1.17,4.733-1.763,7.109.432-1.134.9-2.249,1.35-3.365q-2.4,21.892-4.787,43.786c-.179.037-.378.037-.558.072-3.527.72-6.983,1.62-10.439,2.61Zm-18.968-22.371c2.231-2.627,4.534-5.2,6.821-7.775-.415,1.17-.792,2.358-1.206,3.529-.9,1.366-1.835,2.7-2.718,4.084Zm11.158,93.747q-.809,7.37-1.6,14.723c-1.565.395-3.132.755-4.625,1.223a148.329,148.329,0,0,0-15.424,5.705l6.137-19.366C476.863,1111.836,482.046,1111.062,487.247,1110.54Zm-35.958-8.693q7.99-18.033,15.963-36.083-3.106,15.333-5.021,30.846C458.505,1098.194,454.87,1099.957,451.289,1101.847Zm.612,73.644,8.4-26.6a154.983,154.983,0,0,1,23.468-6.514q-.648,5.722-1.261,11.482l2.178-11.7a153.3,153.3,0,0,1,27.517-2.466c.5,2.5.9,5.04,1.458,7.541-.414-2.5-.774-5.021-1.133-7.541a154.505,154.505,0,0,1,46.163,7.055C521.028,1145.04,483.846,1155.856,451.9,1175.491Zm58.617-53.307q-.568-6.155-.882-12.328c31.477,1.1,62.486,10.906,86.692,29.155C572.445,1129.131,539.6,1121.483,510.517,1122.184Zm-1.224-34.716a257.18,257.18,0,0,1,7.847-58.8c3.2,1.1,6.354,2.339,9.467,3.689-.2.468-.415.935-.612,1.4l.81-1.331c2.43,1.061,4.824,2.159,7.2,3.364.27.127.539.324.81.468a247.3,247.3,0,0,0-14.829,25.79,189.5,189.5,0,0,1,17.907-24.044c8.585,5.112,17.6,12.724,26.366,21.831-.27.648-.575,1.278-.846,1.926l1.188-1.548c21.615,22.568,41.609,53.63,49.563,75.606C587.455,1117.109,544.892,1091.03,509.293,1087.468Zm120.617,38.944c-6.533-34.427-25.719-60.739-53.92-80.9,11.879-14.866,24.765-28.9,40.746-39.036,12.076-7.648,26.384-12.688,40.583-13.516C636.029,1023.739,625.267,1088.277,629.91,1126.412Zm17.186-23.719c-2.285-22.118,1.927-84.155,11.933-109.8a59.133,59.133,0,0,1,30.99,6.966c9.232,5.128,16.539,12.688,22.712,21.309-22.568,17.655-39.682,42.347-47.548,69.936l7.109-46.847Q659.686,1073.465,647.1,1102.693Zm156.431,225.99c-15.154-43.427-41.483-77.154-77.352-111.673-12.2-11.752-29.191-18.087-39.791-31.316-13.21-16.5-16.953-38.836-15.819-59.93,2.016-37.416,18.825-73.591,45.208-100.1a222.347,222.347,0,0,1,12.13,21.776c10.907,21.957,22.19,53.848,33.259,90.94a116.917,116.917,0,0,0-11.752,27.1c4.913-5.38,9.917-10.707,15.028-15.927,22.891,79.116,44.543,178.874,59.642,258.132.036,2.807.071,5.615.107,8.4C819.455,1386.417,813.408,1357.01,803.528,1328.683Zm31.082-41.7-11.951.162q.189,15.523.36,31.064c-12.526-50.554-24.962-96.267-31.135-118.745-4.77-17.384-12.059-37.343-19.563-57.68,11.374-10.906,23.486-20.949,36.949-29.065q4.319-2.592,8.8-4.9c9.9,67.38,16.935,149.249,21.38,224.693Zm14.757-46.559c-5.057-48.124-11.392-95.8-18.681-138.217a110.15,110.15,0,0,1,38.5-7.756C870.261,1138.13,856.385,1195.81,849.366,1240.424Zm21.7,92.848-1.709-.127q-4.779,18.816-9.557,37.651c-1.458-27.067-3.492-55.611-6.03-84.6q17.387-94.86,34.771-189.761a77.641,77.641,0,0,1,32.881,16.2C901.18,1182.8,884.371,1263.731,871.071,1333.272Zm41.9-91.533c-3.348,6.425-6.73,13.426-10.1,20.84,10.816-55,21.021-106.687,29.353-138.56a59.356,59.356,0,0,1,10.4,21.813C950.582,1179.181,928.859,1211.341,912.968,1241.739Zm45.046-123.155a117.074,117.074,0,0,0-18.969-17.2l.018-.017q2.7-7.155,5.4-14.093A74.022,74.022,0,0,1,958.015,1118.584ZM961,1003.978a506.341,506.341,0,0,0-22.047,53.542,70.454,70.454,0,0,0-27.193-12.67,69.275,69.275,0,0,0-13.48-1.475c6.929-37.2,14.74-74.4,29.768-109.063a276.6,276.6,0,0,1,30.307-52.821c17.152,16.486,34.914,35.8,36.859,48.358C999.156,955.387,978.334,968.615,961,1003.978Zm280.358-151c-5.471-.954-10.779-2.232-16.107-3.33-5.326-1.079-10.437-2.969-15.855-3.419-10.763-.972-21.2-3.869-31.927-3.257a178.75,178.75,0,0,0-63.063,6.659,168.288,168.288,0,0,0-56.528,30.072,200.594,200.594,0,0,0-43.787,47.855l-.882-.467a190.176,190.176,0,0,1,12.472-19.042c-13.426-5.813-38.964-21.327-61.389-34.338q6.48-8.262,13.553-16.018a249.871,249.871,0,0,0,48.069,50.033,212.568,212.568,0,0,1,28.759-31.855,174.883,174.883,0,0,1,57.213-33.817c20.984-7.325,43.858-12.022,66.265-9.053,5.6.485,11.177.972,16.594,2.52,5.435,1.313,10.906,2.429,16.27,3.941,10.618,3.276,20.732,8.062,30.7,12.6Z" transform="translate(-349.821 -364.902)"/></g></g></svg>