<svg xmlns="http://www.w3.org/2000/svg" width="480.356" height="475.848" viewBox="0 0 480.356 475.848"><defs><style>.a{fill:#e6e6e6;}.a,.b,.c,.d,.e,.f,.g{stroke:#fff;stroke-miterlimit:10;}.b{fill:#d08800;}.c{fill:#3d7145;}.d{fill:#a32222;}.e{fill:#d6ad24;}.f{fill:#d08809;}.g{fill:#3e6984;}.h,.i,.j,.k{fill:#fff;font-family:Helvetica-Bold, Helvetica;font-weight:700;}.h{font-size:12px;}.i{font-size:11px;}.j{font-size:6px;}.k{font-size:7px;}</style></defs><g transform="translate(0.552 0.5)"><g transform="translate(0 0)"><path class="a" d="M560.828,250.994l.017-13.482-2.717-9.367-3.761-6.931H541.023l-9.534-4.282-3.894-3.245-28.016-21.346-12.007,1.335h-9.338l-2.659-2.659-.009-.009h-8l-13.34-5.336h-9.339l-5.336-9.338h-4l-12.109-4.4L420.869,171l-13.34-5.336H395.522l1.334-4h-9.339l-6.67-6.67-2.668-1.334V136.312l-4,1.334v-5.336l-5.336-1.334-4-8V110.964l-6.67-6.67v5.336l-6.67,6.67-6.67,14.675-4,1.334h-20.01l-1.335-4h-4l-2.669,1.335-8-1.335v6.67H288.8l-4,2.669-4,1.334h-5.336l-1.334,4-1.335,1.334-2.856-1.143-3.814-1.525-4-4-2.669-5.336-1.334-1.334.667-6V118.3l1.334-4,1.334-4-1.334-5.336-5.336-1.334,1.335-2.668,1.334-4-2.669-1.334h-6.67l1.334,2.668-2.668,2.669-2.669,2.668-5.335,2.669-4,2.668h-4l-6.67,1.334-1.334,4h-2.669l-2.668-2.669h-9.339l-2.668-2.668H200.08l1.334,2.668,4,4v5.336l2.668,4v4l4,5.336-4,1.335v4l-4,1.335-4,2.668-5.336,1.334-4,6.67v-5.335h-5.336l-1.334,2.668h-5.336l-4-4-4-1.334L169.4,134.31l-2.669-1.334-8,1.334-1.334,2.669-20.012,1.334v6.67l8,1.335v5.335H134.711v10.673l6.67,2.669-1.334,4,4,2.669-9.338,38.688h-9.339l-1.334,2.668h-8.005l-4,2.667-10.673,2.669v6.67l-6.67,8,2.668,5.336-6.67,4-1.045,3.137-.289.866-1.334,4L98.69,266.383l-2.668,5.336,9.339,2.669,4,5.335H121.37l6.67-5.335v17.343l6,.667,2.668-2.669,12.007,1.334h6.67l4-4h6.67l2.668-4,6.226-3.113,4.446-2.224h12.007l1.335,12.007c-.511,4.784-.354,9.286,4,12.007l6.67,6.67,13.342,2.669,12.007,5.336,5.336,5.336,12.877,2.146,3.131.521v6.67l2.669,4v5.336h-2.669l2.669,6.67v8h24.013c-3.5,9.176-1.479,15.314,8,17.343l.005.027,1.33,7.979-6.67,16.009,2.667,4-4,2.669,4,9.338-1.334,12.007,4,1.335,4,1.334h9.339l1.334-2.669,1.334,2.669,8.005,1.334,4,18.677,9.339-1.334,4,4-5.336,17.343,9.338,1.334,1.335,5.336h0v12.007l-.005,0-9.334,4-14.675,10.671-21.344,22.679,9.338-1.334,8.005,8.005,1.334,4,5.336-4,4,6.67,8,2.667,5.336,5.336h4l1.334,5.336,6.67,4-5.336,5.336,1.334,5.338,12.007-8.005,1.335-5.336s2.219-5.954,4-5.336c5.009,1.735,27.882-24.784,24.013-28.016l4.619-6.464,2.053-2.873,9.338-8.005,2.669-9.338-2.669-12.007,2.2-6.613.465-1.393,4.11-5.136,6.562-8.2,12.007-9.339h5.336l1.335-2.668,6.67,1.334,1.334-4,6.67-2.669,2.669-4H472.9l1.334-6.67,2.669-2.667,9.338-4,1.334-9.339,4-6.67,4-6.67,5.336-6.67V379.112l.005-.005,6.665-6.665v-8l4-14.675-2.668-6.67,1.334-21.344,2.669-5.336a30.752,30.752,0,0,0,16.008-17.343l1.112-1.334,1.033-1.7,6.742-6.682,4.927-8.82,6.677-5.026,2.027-4.731,4.449-5.06,1.048-1.334C559.965,260.852,560.992,256.244,560.828,250.994Z" transform="translate(-81.542 -90.01)"/><path class="b" d="M339.284,162.263l-4,6.67-1.334,5.336-2.669,5.336-6.67,10.673-2.668-1.334-8.768,7.671-1.9,1.667,12.007,1.334c4.214,6.81,4.679,14.286,0,22.681l9.338,9.338,2.669-1.334,1.334,4-2.668,4-1.335,5.336,4,6.67,2.669,6.67,6.67,1.335V252.98l-1.335-8.005v-5.336l4-2.668v-5.336l2.669-5.336h2.668l2.669-2.668,6.67-2.669,6.67-5.336,2.668,1.334h8.005l1.334-6.67-2.669-4-1.334-4,2.669-1.334,2.667-4c-3.191-2.018-4.927-4.144-1.334-6.67l-1.334-5.336,4-2.668,1.335-4,6.67-2.669,1.343-7.995-.009-.009h-8l-13.342-5.336H363.3l-5.336-9.339h-4l-12.111-4.4L340.617,159.6Z" transform="translate(-6.433 -72.214)"/><path class="c" d="M261.7,131.263l4,2.668,5.336,1.335,5.336,9.338-1.335,5.336,5.336,5.336,5.336,10.673h6.67l1.335-5.336,6.67-8q7.782-2.448,6.67-6.671l8-2.936V129.929l-4,1.334v-5.336l-5.336-1.334-4-8.005V104.581l-6.67-6.67v5.336l-6.67,6.67-6.672,14.675-4,1.334h-20l-1.347,4Z" transform="translate(-24.904 -89.24)"/><path class="c" d="M218.91,143.228l1.307,8.171,6.059,8.505h4l1.334,4,8,4,6.67,4h5.336L227.61,223.939v8l.736,1.35.056-.307-.056.307,7.268,13.326-1.334,5.336,4,1.334,8,6.67,77.377,4L325,258.625l9.338-9.339V237.279l2.669-8,5.336-2.669,5.336-10.671-1.335-4-4-2.669,1.9-1.667,8.768-7.671,2.668,1.334,6.67-10.673,2.669-5.336,1.334-5.336,4-6.67,1.334-2.667,1.229-11.075-2.563-.932-13.342-5.336H345.008l1.334-4H337l-6.67-6.67-2.669-1.334v-4.271l-8,2.936q1.111,4.226-6.67,6.671l-6.67,8-1.335,5.336h-6.67l-5.336-10.673-5.336-5.336,1.335-5.336-5.336-9.338-5.336-1.335-4-2.668-5.336-1.334,1.347-4H270.3l-1.334-4h-4l-2.668,1.335-8-1.335v6.67H238.283l-4,2.669-4,1.334h-5.336l-1.335,4-1.334,1.334-2.857-1.143-.477,12.482Z" transform="translate(-37.505 -83.195)"/><path class="c" d="M102.108,238.454l8,1.335,6.67,2.668,1.334,1.334h9.339L166.144,263.8l1.363,1.363,6.641-5.366h6.67l1.334,1.334,2.669-2.668h2.668l2.669,1.334,1.334-4,9.339-1.334,2.668-5.336,5.336-6.67h9.339l8,10.673,5.336-1.334h1.628l.012-.278-.012.278H270.2l3.4-18.662-.736-1.35v-8l24.013-52.029h-5.336l-6.67-4-8-4-1.334-4h-4l-6.059-8.505-1.307-8.171H250.856l-4,8v4l-2.669,1.334-4-2.668c-3.948-1.868-6.821-1.048-8,4l1.334,6.67-4-1.335-8.005-8,2.669-5.336-2.669-6.67v-8l-1.334-4-1.334-4v-5.336l-4-1.334h-4l-1.334-2.668-6.67-1.37v.035l4,5.336-4,1.335v4l-4,1.334-4,2.669L189.49,132.4l-4,6.67V133.73h-5.336l-1.334,2.669h-5.336l-4-4-4-1.334-1.335-9.339-2.668-1.334-8,1.334-1.335,2.669-20.01,1.334v6.67l8,1.334v5.336H129.456v10.673l6.671,2.669-1.335,4,4,2.669-9.339,38.687h-9.338l-1.334,2.669h-8.005l-4,2.668L96.105,205.77v6.67l-6.671,8,2.669,5.336-6.67,4-1.046,3.137,7.05,1.533Z" transform="translate(-82.764 -83.036)"/><path class="b" d="M377.58,173.466l-1.335,4-4,2.668,1.334,5.336c-3.594,2.526-1.858,4.652,1.334,6.67l-2.668,4-2.669,1.334,1.334,4,2.669,4-1.334,6.67h-8.005l-2.667-1.334-6.67,5.336-6.67,2.669-2.669,2.668h-2.668l-2.669,5.336v5.336l-4,2.668v5.336l1.335,8.005v5.336l2.668-.89.329.6.214-.212-.214.212,2.34,4.29,2.668,4h4l4-2.668,5.336-1.335,5.336-6.67-2.667-4,1.334-2.669,4-2.667,4,2.667,2.669,1.334,5.336-1.334,2.667-2.667,4-1.335,6.67-5.336,6.67-4,1.335-5.336-1.335-5.336,4-1.334-1.334-6.672-4-4-1.334-14.675-4-4,1.334-6.67-1.334-6.671-1.334-5.336,1.336-5.336h-4.005l-2.658-2.658L384.25,170.8Z" transform="translate(1.963 -67.408)"/><path class="c" d="M183.032,128.776h4l4,1.334v5.336l1.334,4,1.334,4v8l2.669,6.67-2.669,5.336,8.005,8,4,1.335-1.334-6.67c1.183-5.05,4.056-5.871,8-4l4,2.668,2.669-1.334v-4l4-8h13.312l-.033-.208.033.208h.029l.477-12.482-3.813-1.525-4-4-2.667-5.336-1.334-1.334.667-6V114.1l1.334-4,1.334-4-1.334-5.336-5.336-1.334,1.334-2.668,1.335-4-2.669-1.334h-6.67l1.334,2.668-2.668,2.669-2.669,2.668-5.336,2.668-4,2.669h-4l-6.67,1.334-1.334,4h-2.669l-2.668-2.669h-9.339l-2.668-2.668h-5.336l1.334,2.668,4,4v5.336l2.668,4v3.967l6.67,1.37Z" transform="translate(-54.962 -91.423)"/><path class="b" d="M378.485,175.8l1.334,6.67-1.334,6.67,4,4,1.334,14.675,4,4,1.334,6.67h12.007l4,6.67,5.336-4V208.041l.179-.187-.179-.036.179.036,5.157-5.372,6.67-12.007,5.228-2.091-3.894-3.245-28.015-21.345-12.007,1.334h-5.334l-1.336,5.336Z" transform="translate(15.732 -67.075)"/><path class="c" d="M352,245.789l-6.67-1.335-2.669-6.67-4-6.67,1.335-5.336,2.668-4-1.334-4-2.669,1.334-9.338-9.338c4.679-8.394,4.214-15.87,0-22.681l-12.007-1.334,4,2.669,1.335,4L317.313,203.1l-5.336,2.669-2.669,8v12.007l-9.338,9.339-1.334,5.336-4,10.673L293.3,257.8v13.34l1.97,5.91,3.367-1.907,2.668,4,5.336,1.335,1.334,2.668,2.669-4,5.336-1.334,2.668,2.669v2.668l5.336-1.334,5.336,4,1.334-4h5.336l5.336-2.669h5.336V273.8l-2.669-2.669,1.335-6.67L348,261.8l-5.336-2.668,2.669-5.336L348,252.459l7-6.959-.329-.6Z" transform="translate(-12.478 -59.686)"/><path class="d" d="M347.91,275.614l-4-2.668,1.334,4h-4l-1.334,6.67,1.334,2.668H335.9l-2.668,8,4,2.668-1.334,4-2.668,4v4l1.334,1.334-5.336,6.67-14.675-1.334-4,2.668-12.007,1.334-8,9.338-.952,7.616,8.956-2.28,2.668,1.334,9.339,1.334,4,4,1.334-4,10.673,1.334,2.668-2.668,5.336,1.334,1.334,6.67,1.334,8,1.334,2.668,6.67-1.334-2.668,6.67L343.907,365l2.668,2.668V373l6.67-2.668,2.668-2.668h5.336l4-2.668,8-1.334,1.334-2.668,14.675-1.334,6.67-2.668,1.334-8,4-2.668v-8l4,1.334,1.334-2.668h2.668l1.334-6.67,1.334-4-4-4,4-1.334-1.334-2.668v-4h4l-1.334-2.668h8l-1.334-2.668-2.668-4v-5.336h2.668V296.96l5.336-8-5.336-4h-8l-4,1.334-1.334-4-4-4h-6.67l-9.339-5.336h-9.339V267.61h-6.67L354.58,278.283l-3.992-1.418-.01.084Z" transform="translate(-13.725 -32.147)"/><path class="e" d="M343.378,259.307h-5.336l-1.334,4-5.336-4-5.336,1.334v-2.668l-2.668-2.668-5.336,1.334-2.668,4-1.334-2.668-5.336-1.334-2.668-4-3.366,1.908.7,2.095-2.668,5.336-2.668,9.338-1.334,8-6.67,2.668-4,9.338-4,1.334L276.675,298l-2.668,4-2.668,8v12.007h4v4h5.336l6.67,2.668,9.339,5.336,8-9.338,12.007-1.334,4-2.668,14.675,1.334,5.336-6.67L339.376,314v-4l2.668-4,1.334-4-4-2.668,2.668-8h5.336l-1.334-2.668,1.334-6.67h4l-1.334-4,4,2.668,2.668,1.334.01-.084-.115-.041.115.041,1.323-10.588-5.336-1.334,1.334-5.336v-8h-5.336Z" transform="translate(-19.867 -37.185)"/><path class="c" d="M167.747,235.958l.169-.137-1.364-1.364-38.688-20.011h-9.338l-1.334-1.334-6.67-2.668-8-1.334-10.673-4-7.049-1.532-.288.865-1.334,4,10.673,16.009-2.668,5.336,9.338,2.668,4,5.336h12.007l6.67-5.336V249.8l6,.667,2.668-2.668,12.007,1.334h6.67l4-4h6.671l2.668-4,6.226-3.113-2.193-2.193Z" transform="translate(-83.172 -53.691)"/><path class="d" d="M383.56,329.174l-1.334-2.668-4,2.668-1.334,8-6.67,2.668-14.675,1.334-1.334,2.668-8,1.334,2.668,2.668h4l-1.322,5.336h28l1.334-6.67,2.668-2.668,9.339-4,1.334-9.339h-8Z" transform="translate(5.321 -12.333)"/><path class="b" d="M432.379,247.62l-1.423-5.47,4.27-1.367v-6.837l-3.6-8.9-2.669-4-6.67-1.334-5.336-4-6.67,6.67h-4l-1.334,2.669-1.334,2.668-2.669-1.334-1.334-6.67-5.336-2.669-6.67,5.336-4,1.335-2.667,2.668-5.336,1.334-2.669-1.334-4-2.668-4,2.668-1.334,2.669,2.668,4-5.336,6.67-5.336,1.335-4,2.668h-4l-2.668-4-2.34-4.29-7,6.959-2.668,1.334-2.669,5.336,5.336,2.668L332.9,254.39l-1.335,6.67,2.669,2.669v13.34l-1.334,5.336,5.335,1.334-1.323,10.589,3.992,1.418,16.009-10.673h6.67v5.336h9.338l9.339,5.336h6.67l4,4,1.334,4,4-1.334h8l5.336,4-5.336,8v2.669h-2.668v5.336l2.668,4,1.334,2.669,5.342,4,6.666-6.665v-8l4-14.675-2.667-6.67,1.334-21.346,2.668-5.335a30.754,30.754,0,0,0,16.009-17.343l1.112-1.335h-5.425Z" transform="translate(-0.052 -49.611)"/><path class="d" d="M374.4,350.873l-2.668-2.668-4,2.668h-5.336l-2.668,2.668-6.67,2.668v-5.336l-2.668-2.668-1.334-5.336,2.668-6.67-6.67,1.334-1.334-2.668-1.334-8-1.334-6.67-5.336-1.334-2.668,2.668-10.673-1.334-1.334,4-4-4-9.339-1.334-2.668-1.334-8.956,2.28-.382,3.056-4,2.668-5.336,9.339-4,8-5.336,4-6.67,4,17.343,1.334h8l4,2.668h10.672l4,4v8l4,5.336v4h9.338l-1.334,5.336,4-1.334,1.441,5.536,6.563-8.2,12.007-9.339h5.336l1.334-2.668,6.67,1.334,1.334-4,6.67-2.668,2.668-4h2.68l1.322-5.336Z" transform="translate(-20.202 -15.355)"/><path class="d" d="M385.165,300.552l1.334,2.668h-4v4l1.334,2.668-4,1.334,4,4-1.334,4-1.334,6.67h-2.668l-1.334,2.668-4-1.334v8l1.334,2.668,2.668,1.334h8l4-6.67,4-6.67,5.336-6.67V304.554l.005-.006-5.342-4Z" transform="translate(14.389 -21.065)"/><path class="c" d="M226.6,272.079l4-2.669v-5.336h2.669l-2.669-9.338v-2.669l-5.335-4v-1.335H211.922v-8l-1.334-5.336,1.334-6.67.294-6.67h-1.628l-5.336,1.334-8-10.673h-9.339l-5.336,6.67-2.668,5.336-9.339,1.334-1.334,4-2.669-1.334H163.9l-2.669,2.668-1.334-1.334h-6.67l-6.641,5.366,2.194,2.194,4.446-2.224h12.007l1.334,12.007c-.509,4.783-.353,9.286,4,12.007l6.67,6.67,13.342,2.669,12.007,5.336,5.336,5.335L220.8,279.56l5.8-3.48Z" transform="translate(-61.839 -51.29)"/><path class="f" d="M456.742,208.677l-6.553-2.621-5.336,4h-9.339l-4,4c-3.213,2.033-4.024-.806-4-5.336,1.856-4.076.416-4.325-2.669-2.668l-9.338,4-5.336-2.669-5.336,4-4-6.67H388.822l-4,1.334,1.335,5.336-1.335,5.336-6.67,4,5.336,2.669,1.334,6.67,2.669,1.334,1.334-2.668,1.334-2.669h4l6.67-6.67,5.336,4,6.67,1.334,2.669,4,4-5.336,8.005,4,9.338,1.334,4-5.336h10.959l1.048-1.334C455.877,218.534,456.905,213.926,456.742,208.677Z" transform="translate(16.068 -53.305)"/><path class="g" d="M330.737,373.161l1.334-5.336h-9.338v-4l-4-5.336v-8l-4-4H304.056l-4-2.668h-8l-17.343-1.334-8,9.339-4,9.338L257.363,378.5l9.339,1.334,1.334,5.336h0l6.67,1.333,13.341,2.668,8,2.668h2.668V386.5h6.67l1.334-1.334,8-1.334,5.336,2.668,2.668-2.668,8.874.057.464-1.392,4.11-5.137-1.441-5.536Z" transform="translate(-24.568 -6.959)"/><path class="e" d="M285.453,358.933l6.67-4,5.336-4,4-8,5.336-9.339,4-2.668.382-3.056-.215.055.215-.055.952-7.616-9.339-5.336-6.67-2.668H290.79v-4h-4v-6.67L276.115,302.9l4-2.668V294.9l-6.67,4-4-1.334-6.67,1.334-12.007-5.336L248.1,294.9h-5.336l-4,5.336-6.666.026,1.33,7.978-6.67,16.009,2.668,4-4,2.668,4,9.338-1.334,12.007,4,1.334,4,1.334h9.338l1.334-2.668,1.334,2.668,8,1.334,4,18.677,9.338-1.334,4,4,4-9.339Z" transform="translate(-35.315 -23.416)"/><path class="e" d="M253.174,325.119h5.336l2.668-1.334,12.007,5.336,6.672-1.334,4,1.334,6.67-4v5.336l-4,2.669,10.673-1.334v-5.336l2.668-8.005,2.668-4,5.336-5.335,4-1.335,4-9.338,6.67-2.669,1.334-8,2.669-9.339,2.668-5.336-.7-2.094-.386.219.386-.219-1.97-5.91v-13.34l1.334-6.67,4-10.673-77.377-4-8-6.67-4-1.334,1.334-5.336-7.268-13.326-3.4,18.662H196.1l-.294,6.67-1.334,6.67,1.334,5.336v8H209.15v1.335l5.335,4v2.669l2.669,9.338h-2.669v5.336l-4,2.669v4l-5.8,3.48,3.131.523v6.67l2.669,4v5.336h-2.669l2.669,6.67v8H234.5c-3.5,9.176-1.481,15.314,8,17.343l0,.027,6.666-.027Z" transform="translate(-45.726 -53.637)"/><path class="g" d="M326.129,399.414H316.79l-2.667-2.669-8.005-8-5.336-1.335-2.667-1.334-21.351-2.666-9.332,4-14.675,10.673-21.346,22.679,9.339-1.334,8,8,1.335,4,5.336-4,4,6.67,8.005,2.669,5.335,5.336h4l1.334,5.336,6.672,4-5.336,5.335,1.334,5.336,12.007-8,1.334-5.336s2.22-5.954,4-5.336c5.009,1.735,27.882-24.784,24.013-28.016l4.617-6.464-4.617-1.54Z" transform="translate(-33.3 6.81)"/><path class="g" d="M317.379,376.091l-5.336-2.668-8,1.334-1.334,1.334h-6.67v5.336h-2.668l-8-2.668-13.341-2.668-6.67-1.333v12.005l-.005,0,21.35,2.666,2.668,1.334L294.7,392.1l8,8,2.668,2.668h9.339l-4,8,4.618,1.539,2.052-2.873,9.339-8,2.668-9.338-2.668-12.007,2.2-6.613-8.874-.057Z" transform="translate(-21.883 3.452)"/></g><text class="h" transform="translate(48.299 183.806)"><tspan x="0" y="0">AC</tspan></text><text class="i" transform="translate(102.187 124.711)"><tspan x="0" y="0">AM</tspan></text><text class="h" transform="translate(245.776 125.711)"><tspan x="0" y="0">PA</tspan></text><text class="i" transform="translate(338.186 123.378)"><tspan x="0" y="0">MA</tspan></text><text class="i" transform="translate(367.2 159.125)"><tspan x="0" y="0">PI</tspan></text><text class="i" transform="translate(406.689 125.859)"><tspan x="0" y="0">CE</tspan></text><text class="h" transform="translate(376.088 216.897)"><tspan x="0" y="0">BA</tspan></text><text class="i" transform="translate(346.139 285.106)"><tspan x="0" y="0">MG</tspan></text><text class="i" transform="translate(294.975 329.537)"><tspan x="0" y="0">SP</tspan></text><text class="i" transform="translate(259.672 360.32)"><tspan x="0" y="0">PR</tspan></text><text class="i" transform="translate(280.822 393.629)"><tspan x="0" y="0">SC</tspan></text><text class="j" transform="translate(370.202 334.684)"><tspan x="0" y="0">RJ</tspan></text><text class="k" transform="translate(399.761 290.664)"><tspan x="0" y="0">ES</tspan></text><text class="i" transform="translate(240.218 421.533)"><tspan x="0" y="0">RS</tspan></text><text class="h" transform="translate(144.32 46.902)"><tspan x="0" y="0">RR</tspan></text><text class="h" transform="translate(123.129 200.615)"><tspan x="0" y="0">RO</tspan></text><text class="h" transform="translate(209.974 229.429)"><tspan x="0" y="0">MT</tspan></text><text class="h" transform="translate(222.954 312.481)"><tspan x="0" y="0">MS</tspan></text><text class="i" transform="translate(282.142 263.176)"><tspan x="0" y="0">GO</tspan></text><text class="h" transform="translate(299.433 192.154)"><tspan x="0" y="0">TO</tspan></text><text class="i" transform="translate(258.41 50.725)"><tspan x="0" y="0">AP</tspan></text><text class="i" transform="translate(305.66 244.712)"><tspan x="0" y="0">DF</tspan></text><path class="b" d="M421.275,184.566l13.428,7.527h8.553l4.792,6.663v6.883L432.031,202.5l-3.742,3.141-9.6-2.606,2.379-6.148a5.283,5.283,0,0,1-3.608,1.871c-2.308.155-13.43.208-13.43.208l3.424-3.862,3.19-8.144,4.009-4.774,2.587.593Z" transform="translate(24.777 -60.888)"/><path class="b" d="M416.718,249.371l7.9-6.576,3.608-5.012L406.267,222.69l3.6,8.905v5.587l-2.65,2.1-1.619.518,1.423,5.47,4.269,4.1Z" transform="translate(25.304 -47.26)"/><path class="b" d="M428.062,239.126l14.343-20.43H431.447l-4,5.336-9.338-1.334-8-4-4,5.336Z" transform="translate(25.472 -48.604)"/><path class="b" d="M404.682,195.263l-2.575,2.889v13.118l5.336,2.669,12.726-4.56-.719,3.225s-.7,4.589.9,5.283a3.8,3.8,0,0,0,2.4.438l2.729-2.41,1.977-1.977h9.339l5.336-4,6.553,2.621.016-10.621-15.568-3.052-4.192,3.052-9.6-2.606,2.379-6.148S405.86,195.54,404.682,195.263Z" transform="translate(24.128 -57.187)"/><text class="k" transform="translate(436.715 195.523)"><tspan x="0" y="0">SE</tspan></text><text class="k" transform="translate(447.624 182.247)"><tspan x="0" y="0">AL</tspan></text><text class="k" transform="translate(449.482 138.128)"><tspan x="0" y="0">RN</tspan></text><text class="j" transform="translate(449.724 151.848)"><tspan x="0" y="0">PB</tspan></text><text class="k" transform="translate(431.571 165.302)"><tspan x="0" y="0">PE</tspan></text></g></svg>