<svg xmlns="http://www.w3.org/2000/svg" width="90" height="52" viewBox="0 0 90 52"><defs><style>.a{fill:#fff;fill-rule:evenodd;}</style></defs><g transform="translate(287 -39)"><g transform="translate(-292 15)"><path class="a" d="M94.193,24.122a.845.845,0,0,1,.323,1.607c-4.363,2.047-8.01,7.926-10.462,19.812C81.039,60.154,68.716,65.95,59.206,64.107a52.091,52.091,0,0,0-.818,8A3.982,3.982,0,0,1,54.4,76h-.061a4.019,4.019,0,0,1-3.978-4.424A39.4,39.4,0,0,1,68.2,41.872,38.222,38.222,0,0,0,52.223,53.3a2.6,2.6,0,0,1-4.591-1.4l-.007-.064C45.468,31.269,70.168,22.864,94.193,24.122ZM5.412,43.009a.719.719,0,0,1,.278-1.368C26.158,40.568,47.2,47.729,45.365,65.256a1.742,1.742,0,0,1-3.216.7,32.151,32.151,0,0,0-14.312-10.63A34.364,34.364,0,0,1,39.631,68.533a4.918,4.918,0,0,1-2.952,6.905c-8.225,2.32-19.656-2.487-22.352-15.549C12.238,49.764,9.13,44.754,5.412,43.009Z"/></g></g></svg>