<svg xmlns="http://www.w3.org/2000/svg" width="66.385" height="51.867" viewBox="0 0 66.385 51.867"><defs><style>.a{fill:#3d7145;}.b{fill:#ed3237;}</style></defs><g transform="translate(-125.1 -108.516)"><g transform="translate(146.907 118.843)"><path class="a" d="M250.133,250.521a.169.169,0,0,0-.027-.038l-.855-.855a.161.161,0,0,0-.227,0l-.855.855a.163.163,0,0,0-.026.039.326.326,0,0,1,.065.049l.342.342.342-.342a.358.358,0,0,1,.494,0l.342.342.342-.342A.353.353,0,0,1,250.133,250.521Z" transform="translate(-237.848 -223.105)"/><path class="a" d="M248.875,253.71l-.911.911-.009.011a.32.32,0,0,1,.068.051l.364.364.364-.364a.358.358,0,0,1,.494,0l.364.364.364-.364a.319.319,0,0,1,.068-.051l-.009-.011-.911-.911A.179.179,0,0,0,248.875,253.71Z" transform="translate(-237.71 -226.121)"/><path class="a" d="M250.426,247.284l-.653-.653a.175.175,0,0,0-.248,0l-.653.653a.174.174,0,0,0-.037.059l.271.271.317-.318a.321.321,0,0,1,.453,0l.317.318.27-.27A.174.174,0,0,0,250.426,247.284Z" transform="translate(-238.36 -220.888)"/><path class="a" d="M250.588,243.991a.1.1,0,0,0-.007-.009l-.653-.653a.175.175,0,0,0-.248,0l-.653.653a.167.167,0,0,0-.023.03.34.34,0,0,1,.077.055l.223.223.223-.223a.358.358,0,0,1,.494,0l.223.223.223-.223A.332.332,0,0,1,250.588,243.991Z" transform="translate(-238.486 -218.446)"/><path class="a" d="M248.859,243.921l0,0,.016.036v-.017Z" transform="translate(-238.374 -218.922)"/><path class="a" d="M246.15,258.271l-.364-.364a.175.175,0,0,0-.248,0l-.377.377c-.025.11-.048.218-.067.325a.763.763,0,0,0,.484.37.344.344,0,0,1,.1-.235Z" transform="translate(-235.595 -229.222)"/><path class="a" d="M246.888,250.521a.324.324,0,0,1,.07-.1l.415-.415-.307-.307a.175.175,0,0,0-.248,0l-.161.161a2.23,2.23,0,0,1,.076.69A.367.367,0,0,1,246.888,250.521Z" transform="translate(-236.75 -223.151)"/><path class="a" d="M247.54,244.219l-.21.209a1.78,1.78,0,0,1,.142.221.361.361,0,0,1,.123-.023.341.341,0,0,1,.071-.11l.209-.209-.088-.089a.175.175,0,0,0-.247,0Z" transform="translate(-237.248 -219.105)"/><path class="a" d="M245.954,247.13a2.119,2.119,0,0,1,.123.276l.1-.1a.358.358,0,0,1,.388-.07.341.341,0,0,1,.056-.076l.307-.307-.223-.223a.167.167,0,0,0-.181-.04.617.617,0,0,1,.03.257C246.522,247.127,246.135,247.343,245.954,247.13Z" transform="translate(-236.231 -220.888)"/><path class="a" d="M245.84,254.678a.333.333,0,0,0,.312-.185l.446-.446-.342-.342a.174.174,0,0,0-.247,0l-.028.028a2.1,2.1,0,0,1-.076.337c-.093.287-.171.541-.235.779Z" transform="translate(-236.02 -226.116)"/><path class="a" d="M268.292,196l-.006.007.032.014Z" transform="translate(-252.736 -183.505)"/><path class="a" d="M232.508,160.147a4.629,4.629,0,0,0-3.05-1.029,7.435,7.435,0,0,1,2.9-.105,5.044,5.044,0,0,0-3.107-.292,19.233,19.233,0,0,1,3.655-.906,10.57,10.57,0,0,0-3.845.568,11.487,11.487,0,0,1,3.537-1.507,8.966,8.966,0,0,0-3.856,1.15,7.466,7.466,0,0,1,.658-.494l.109.013-.1-.023a21.325,21.325,0,0,1,3.222-1.574,10.578,10.578,0,0,0-3.269,1.019c-.152,0-.3,0-.455,0a14.124,14.124,0,0,1,3.369-1.991,10.539,10.539,0,0,0-4.117,2.049c-.072.009-.144.017-.216.029a7.135,7.135,0,0,1,.517-.514l1.346-.63q-.395.058-.782.155a14.269,14.269,0,0,1,3.112-1.893,14.5,14.5,0,0,0-4.064,2.195,8.221,8.221,0,0,0-1.177.558l.009-.021a15.339,15.339,0,0,1,2.99-2.036,12.273,12.273,0,0,0-2.617,1.274q.054-.1.11-.2c.729-.608,1.537-1.254,2.136-1.8a15.691,15.691,0,0,0-1.605.985,9.11,9.11,0,0,1,.774-.925,5.351,5.351,0,0,0-1.473,1.442c-.345.271-.68.554-1,.852.93-1.025,1.9-1.961,2.883-2.857a14.753,14.753,0,0,0-2.865,2.339l0-.018c.86-.965,1.721-2.041,2.581-2.944a11.671,11.671,0,0,0-2.405,2.173c.115-.469.244-.934.392-1.388a5.022,5.022,0,0,1,.529-.553,5,5,0,0,0-.478.4,11.742,11.742,0,0,1,.925-2.115,9.859,9.859,0,0,0-1.587,2.824,13.9,13.9,0,0,0-1.213,1.761c-.016-.208-.031-.417-.042-.626a17.618,17.618,0,0,1,1.563-3.154,11.179,11.179,0,0,0-1.6,2.116c-.006-.6.012-1.205.065-1.792.056-.14.113-.279.172-.414-.052.073-.1.148-.153.224.039-.373.089-.741.158-1.1a8.763,8.763,0,0,0-.461,1.582,12.771,12.771,0,0,0-.972,2.074,9.771,9.771,0,0,1-.142-1.733c.117-.375.246-.737.388-1.078q-.2.368-.376.75c0-.064.006-.129.011-.193-.013.079-.022.159-.032.24a12.143,12.143,0,0,0-.955,3.285l-.307-.445a15.118,15.118,0,0,1,.462-3.49,15.228,15.228,0,0,0-.738,3.085c-.131-.194-.257-.383-.375-.564q0-.82.054-1.64-.129.694-.211,1.4l-.018-.028.017.036a20.863,20.863,0,0,0,.052,5.208l-.581-3.786c.114-.2.224-.407.324-.612-.089.146-.206.319-.34.508L220.8,154.9q-.077.708-.091,1.42c-.139.19-.288.388-.44.591q-.031-.317-.051-.634c.208-.4.4-.766.545-1.042-.2.243-.384.483-.561.722q-.008-.2-.012-.391c-.022.161-.04.322-.056.483-.2.278-.394.555-.573.837-.021-.124-.039-.248-.057-.369.187-.337.391-.675.617-1.027-.231.25-.449.5-.654.751h0q-.113.138-.22.278a6.367,6.367,0,0,1,.741-1.646,3.428,3.428,0,0,0,.3-2.9,5.8,5.8,0,0,1-1.5,4.115,7.418,7.418,0,0,0,1.013-4.8,8.127,8.127,0,0,1-1.145,4.249,7.933,7.933,0,0,0,.627-4.739,6.116,6.116,0,0,1-1.108,4.05,5.588,5.588,0,0,0-.118-5.122,7,7,0,0,1-.2,4.508,5.828,5.828,0,0,0-.938-5.024,6.9,6.9,0,0,1,.572,4.674,7.579,7.579,0,0,0-1.909-5.423,10.079,10.079,0,0,1,1.441,4.79,6.206,6.206,0,0,0-3.308-5.089,6.59,6.59,0,0,1,2.792,4.875,8.813,8.813,0,0,0-1.625-3.014,7.93,7.93,0,0,0-2.669-1.921,8.3,8.3,0,0,1,3.581,4.633,12.37,12.37,0,0,0-1.983-2.822,4.172,4.172,0,0,0-3.1-1.3,6.839,6.839,0,0,1,4.24,3.731,6.671,6.671,0,0,0-5.211-2.95,14.458,14.458,0,0,1,2.587,1.038,5.21,5.21,0,0,1,2.053,1.984,12.739,12.739,0,0,0-2.39-1.848,4,4,0,0,0-2.824-.458,6.882,6.882,0,0,1,4.535,2.242,13.108,13.108,0,0,0-2.306-1.254,4.392,4.392,0,0,0-2.577-.248,8.974,8.974,0,0,1,4.518,1.713,6.243,6.243,0,0,0-4.228-.574,13.259,13.259,0,0,1,3.7.646,3.927,3.927,0,0,0-3.9,1.568A5.19,5.19,0,0,1,212,152.783a6.007,6.007,0,0,0-2.28,1.432l2.647-1.344a6.651,6.651,0,0,0-2.255,2.254,7.462,7.462,0,0,1,2.99-2.253,8.649,8.649,0,0,0-2.287,2.212,19.157,19.157,0,0,1,2.839-2.318,10.138,10.138,0,0,1-2.441,2.247,6.816,6.816,0,0,0,2.9-2.084c-.412.6-1.444,1.665-1.855,2.269a8.306,8.306,0,0,0,1.645-1.59,3.944,3.944,0,0,0-.335,1.345,5.139,5.139,0,0,1,1.28-1.923,2.379,2.379,0,0,0-.623,1.5c.214-.552.687-1.405,1.252-1.584a2.648,2.648,0,0,0-.868,1.484,2.511,2.511,0,0,1,1.146-1.178.86.86,0,0,0-.42.987c.229-.457.487-.906.886-.658a1.885,1.885,0,0,1,.361.408,10.491,10.491,0,0,1,1.754,2.765,4.687,4.687,0,0,0-.639,1.509,3.841,3.841,0,0,0-1.683-3.079,3.584,3.584,0,0,1,1.285,3.177,3.688,3.688,0,0,0-2.825-3.321,6.588,6.588,0,0,1,2.41,3.561,4.8,4.8,0,0,0-4.063-3.281,6.462,6.462,0,0,1,3.654,3.277A5.075,5.075,0,0,0,212,156.186a5.829,5.829,0,0,1,3.751,2.423,5.232,5.232,0,0,0-4.957-1.25,5.707,5.707,0,0,1,4.34,1.348,5.783,5.783,0,0,0-5.3-.247,6.131,6.131,0,0,1,4.349.4A4.7,4.7,0,0,0,209.43,160a6.148,6.148,0,0,1,3.973-.954,4.65,4.65,0,0,0-2.433.6,5.069,5.069,0,0,0-.85.052c.189.033.377.076.564.124-.124.081-.244.168-.36.261a4.524,4.524,0,0,0-1.059.154l.724.143a4.424,4.424,0,0,0-.466.531,5.107,5.107,0,0,1,.621-.5l.712.141c-.2.118-.4.244-.588.377a3.98,3.98,0,0,0-1.583.917,7.238,7.238,0,0,1,.9-.358,4.561,4.561,0,0,0-.589.672,5.2,5.2,0,0,1,.849-.751,7.38,7.38,0,0,1,1.113-.224q-.22.194-.425.4a4.673,4.673,0,0,0-1.678,1.33,7.96,7.96,0,0,1,1.217-.815,7.644,7.644,0,0,0-.537.744,8.114,8.114,0,0,1,1.037-1,7.941,7.941,0,0,1,1.278-.46,4.941,4.941,0,0,0-2.757,3.006,6.745,6.745,0,0,1,2.428-2.489c-.077.1-.151.2-.223.3a7.034,7.034,0,0,0-1.505,3.031,8.242,8.242,0,0,1,1.244-2.014c.055-.008.11-.015.165-.02a7.376,7.376,0,0,0-1,2.148,8.862,8.862,0,0,1,.818-1.5,5.646,5.646,0,0,0-.16.878,6.326,6.326,0,0,1,.4-1.218q.121-.162.249-.318l.085,0a5.276,5.276,0,0,0-.7,1.925,3.344,3.344,0,0,0-1.157,1.118,3.155,3.155,0,0,1,1.487-.872q-.018.225-.025.451a3.562,3.562,0,0,0-1.406,1.227,4.016,4.016,0,0,1,1.375-.889l-.149.6a4.638,4.638,0,0,0-1.833,2.112,4.383,4.383,0,0,1,3.466-2.2,3.877,3.877,0,0,0-2.77,3.052,5.086,5.086,0,0,1,2.325-2.516,5.3,5.3,0,0,0-2.516,4.1,5.819,5.819,0,0,1,2.216-3.409,5.271,5.271,0,0,0-1.835,3.713,7.3,7.3,0,0,1,1.83-3.3,12.373,12.373,0,0,0-1.636,4.413c.507-1.2,1.135-2.814,1.642-4.016-.294,1.072-.709,2.554-1,3.626.268-.648.717-2.1.985-2.744-.071.614-.322,2.028-.393,2.642l1.142-4.7c-.106.9-.115,1.394-.221,2.29.262-.816.525-1.924.787-2.739a6.454,6.454,0,0,0,.012,2.264,3.041,3.041,0,0,1,.911-2.668,1.27,1.27,0,0,0,.22,1.525c-.052-1.09.1-1.677.808-1.47a3.742,3.742,0,0,1,1.25.634,7.537,7.537,0,0,1,1.45,1.436,6.846,6.846,0,0,1,1.13,2.769,13.366,13.366,0,0,1,.187,1.423.328.328,0,0,1,.172.084l.089.089.321-.321a.358.358,0,0,1,.494,0l.358.358.126-.125a.357.357,0,0,1,.394-.065c-.01.062-.019.123-.028.185a.174.174,0,0,0-.243,0l-.125.126.172.172a.161.161,0,0,0,.145.139c-.005.064-.009.128-.013.192a.174.174,0,0,0-.246,0l-.223.223.307.307a.34.34,0,0,1,.056.076.376.376,0,0,1,.089-.023c0,.059,0,.117,0,.176a.169.169,0,0,0-.074.04l-.307.307.415.415a.3.3,0,0,1,.026.039c.01.08.023.161.035.241a.171.171,0,0,0-.09.045l-.342.342.446.446a.346.346,0,0,1,.061.087.363.363,0,0,1,.127.023c.027.095.054.189.084.283l-.084-.084a.175.175,0,0,0-.248,0l-.364.364.473.473a.344.344,0,0,1,.1.208,1.8,1.8,0,0,1-.174.06.173.173,0,0,0-.047-.145l-.96-.96a.175.175,0,0,0-.248,0l-.961.96a.173.173,0,0,0-.042.167c1.055.281,2.935.055,2.768-.471a8.248,8.248,0,0,1-.222-5.507l-.421.049q.034-.487.069-.974a15.681,15.681,0,0,1,1.936-4.8c-.023.862.06,1.543.037,2.4.207-.764.415-1.936.622-2.7a12.6,12.6,0,0,0,.766,4,10.433,10.433,0,0,1-.042-4.064c.182,1.3.517,3.015.7,4.316a13,13,0,0,0-.316-4.361c.614,1.492,1.229,3.526,1.843,5.018a29.081,29.081,0,0,0-1.308-4.809c.62,1.252,1.138,3.01,1.758,4.263a15.07,15.07,0,0,0-1-3.517,14.231,14.231,0,0,1,1.576,4.77,15.062,15.062,0,0,0-.882-4.243,48.892,48.892,0,0,1,2.022,4.721c-.34-1.287-.885-2.87-1.225-4.157.555,1.243,1.316,2.781,1.871,4.024l-1.155-3.351c-.125-.214-.249-.428-.37-.637l2.665,2.688a12.279,12.279,0,0,0-2.929-3.188,5.9,5.9,0,0,1,3.24,2.405,8.772,8.772,0,0,0-3.231-2.76,5.63,5.63,0,0,1,3.341,1.83,4.819,4.819,0,0,0-3.887-2.176,9.039,9.039,0,0,1,4.133.936,5.4,5.4,0,0,0-4.528-1.273,4.134,4.134,0,0,1,3.928.136,5.347,5.347,0,0,0-4.315-.627,6.647,6.647,0,0,1,4.866-.168,7.869,7.869,0,0,0-5.066-.5,8.49,8.49,0,0,1,5.116-.1,6.744,6.744,0,0,0-4.843-.273,9.445,9.445,0,0,1,4.209-.826,6.743,6.743,0,0,0-4.864.824,6.98,6.98,0,0,1,4.665-1.915,6.1,6.1,0,0,0-5.256,1.789,6.522,6.522,0,0,1,4.351-2.862,5.891,5.891,0,0,0-4.9,2.823,6.815,6.815,0,0,1,5.914-3.687,6.584,6.584,0,0,0-6.6,3.744,12.058,12.058,0,0,1,3.908-4.742,10.31,10.31,0,0,0-4.079,4l1.553-3.412a15.282,15.282,0,0,0-2.388,4.491,1.638,1.638,0,0,0-.354-.733,11.021,11.021,0,0,1,1.641-2.939,5.376,5.376,0,0,1,2.078-1.658,3.71,3.71,0,0,1,4.991,4.349,3.385,3.385,0,0,0,.121-2.142c.139.467.317,1.1.443,1.513a3.222,3.222,0,0,0-1-2.672,8.774,8.774,0,0,1,1.347,1.407,4.137,4.137,0,0,0-1.692-1.888,5.253,5.253,0,0,1,1.823,1.28,3.971,3.971,0,0,0-2.232-1.707,4.55,4.55,0,0,1,2.085.93,4.23,4.23,0,0,0-2.535-1.257A5.344,5.344,0,0,1,232.508,160.147Zm-21.227,2.945c-.012.017-.023.035-.035.052q-.083.015-.166.034.157-.184.324-.359Q211.339,162.954,211.281,163.092Zm13.127,2.2a3.755,3.755,0,0,1,1.1.316,3.4,3.4,0,0,1,.963.619,4.681,4.681,0,0,1,.376.429,4.116,4.116,0,0,1,.291.49l-.027.022a4.732,4.732,0,0,1-.44-.345c-.15-.107-.283-.229-.427-.336s-.275-.229-.422-.329c-.071-.054-.139-.113-.213-.163l-.227-.143a3.529,3.529,0,0,0-1-.391,2.685,2.685,0,0,0-1.081-.039l-.011-.033A2.637,2.637,0,0,1,224.408,165.3Zm4.355-8.194.439-.046q-.273.152-.531.328c-.061-.007-.123-.013-.184-.018C228.575,157.277,228.668,157.19,228.764,157.1Zm-.321.311.159.02a5.518,5.518,0,0,0-.537.429A4.506,4.506,0,0,1,228.442,157.414Zm-.618-.212.151-.016c-.058.051-.114.1-.167.151l-.083-.01C227.757,157.285,227.79,157.243,227.824,157.2Zm-.111.141.092,0a3.909,3.909,0,0,0-.286.3A2.614,2.614,0,0,1,227.713,157.343Zm-.591-.172-.09.083c-.075.021-.15.041-.224.064Zm-.27.253c-.074.071-.148.142-.22.215.021-.064.044-.127.066-.19C226.749,157.44,226.8,157.432,226.852,157.424Zm-.217-.827-.012.022c-.045.036-.089.071-.132.108Zm-.643-1.619c-.115.36-.216.726-.3,1.094-.226.282-.437.556-.628.813v-.008A11.269,11.269,0,0,1,225.992,154.977Zm.146,2.6q-.157.337-.31.692c.033-.207.068-.418.1-.63C226,157.62,226.068,157.6,226.137,157.58Zm-1.566-3.808a12.961,12.961,0,0,0-.088,1.483q-.258.513-.475,1.051-.044-.166-.085-.333C224.115,155.213,224.332,154.473,224.571,153.771Zm-.01,3.112-.08.148c.021-.092.044-.185.069-.278C224.554,156.8,224.557,156.84,224.561,156.883Zm-.744-.475c.017.085.035.169.053.253-.11.293-.212.589-.3.888Q223.682,156.975,223.817,156.409Zm-.28-2.952a10.073,10.073,0,0,0,.093,1.849,14.373,14.373,0,0,0-.482,1.753l-.192-.277A14.593,14.593,0,0,1,223.537,153.457Zm-.505,4.247c-.025.159-.047.316-.066.473-.016-.209-.023-.423-.026-.641Zm-.473-.891a11.992,11.992,0,0,0-.059,1.345l-.063-.058a15.669,15.669,0,0,1-.124-1.774Q222.435,156.569,222.559,156.812Zm-.043,1.839c-.025-.153-.047-.308-.068-.464.018.046.037.091.056.136C222.507,158.433,222.51,158.542,222.516,158.651Zm-.508-2.95a15.264,15.264,0,0,0,.021,3.687,26.48,26.48,0,0,1-.364-4.4Q221.835,155.342,222.008,155.7Zm1.367,2.959a5.6,5.6,0,0,1,1.124-.854l.315-.162c.108-.048.219-.091.329-.131a3.973,3.973,0,0,1,.68-.186l.007.022a10.927,10.927,0,0,0-1.214.656,10.22,10.22,0,0,0-1.119.794,9.2,9.2,0,0,0-.983.971,8.879,8.879,0,0,0-.839,1.105l-.02-.011A8.9,8.9,0,0,1,223.375,158.659Zm1.991-.809c-.034.266-.064.531-.088.793-.033-.234-.065-.471-.1-.711C225.243,157.9,225.3,157.876,225.366,157.85Zm-.535.844c-.065-.155-.129-.316-.192-.478l.1-.055C224.764,158.342,224.8,158.52,224.831,158.695Zm-.675-.163c.052-.037.1-.074.158-.11.062.218.124.432.184.636C224.392,158.89,224.277,158.714,224.155,158.531Zm.263,1.377-.919-.839q.108-.1.219-.2C223.94,159.224,224.172,159.569,224.419,159.908Zm-3.715-3.361a16.615,16.615,0,0,0,.814,5.279,16.829,16.829,0,0,1-1.219-4.606C220.435,157,220.57,156.772,220.7,156.548Zm.541,7.5a1.636,1.636,0,0,1,.355.089,1.67,1.67,0,0,1,.506.306q-.07.211-.137.432a2.919,2.919,0,0,0-.818-.309Q221.2,164.3,221.244,164.043Zm-.574-2.969a27.678,27.678,0,0,1-.874-2.988q.138-.25.284-.5A12.642,12.642,0,0,0,220.67,161.074Zm-3,1.742a12.508,12.508,0,0,1,.107-1.949,2.41,2.41,0,0,1,.188.16,4.325,4.325,0,0,1,1.042,1.954,14.753,14.753,0,0,1,.38,1.777,2.913,2.913,0,0,0-1.1.917,13.523,13.523,0,0,1-.476-1.474,7.084,7.084,0,0,1-.144-1.357c.045-.029.091-.059.138-.086C217.766,162.776,217.72,162.8,217.674,162.816Zm1.521-.182a5.564,5.564,0,0,1-.374-1.612,4.651,4.651,0,0,1,.367-1.636c.025-.068.051-.135.078-.2.268,1.463.677,2.715,1.206,4.736a1.622,1.622,0,0,0-.55.48,1.688,1.688,0,0,1,.6-.306l.04.154a2.306,2.306,0,0,1,.047.248,2.694,2.694,0,0,0-.645.062,2.653,2.653,0,0,0-.285.083A16.535,16.535,0,0,0,219.2,162.634ZM218.9,158.8l.233-.444c0,.025.007.049.011.074C219.051,158.57,218.967,158.695,218.9,158.8Zm1.2-2.3c-.013.219-.019.438-.021.658l-.372.5c-.02-.1-.04-.191-.058-.286Zm-.487,1.926a29.233,29.233,0,0,0,.615,3.37c-.283-.96-.584-1.937-.85-2.879C219.448,158.761,219.527,158.6,219.61,158.435Zm-.084-.829c.007.087.016.175.024.263-.121.164-.234.321-.337.467l-.023-.085Zm-.055-1.032q.005.212.016.428c-.151.243-.294.491-.428.745h0a12.7,12.7,0,0,0-.691,1.548A12.4,12.4,0,0,1,219.471,156.574Zm-1.008.5c.05.126.1.253.143.381a9.452,9.452,0,0,0-.639,1.254A7.585,7.585,0,0,1,218.463,157.069Zm-3.136,2.667a3.173,3.173,0,0,1,1.69.308,4.3,4.3,0,0,1,1.335,1.014l-.034.031a4.4,4.4,0,0,0-1.391-.834,2.871,2.871,0,0,0-1.549-.155,3.7,3.7,0,0,0-1.384.662,13.245,13.245,0,0,0-1.256,1.03l-.037-.027a3.7,3.7,0,0,1,1.014-1.368A2.9,2.9,0,0,1,215.327,159.736Zm2.266,1a8.086,8.086,0,0,0-.164,1.484c0-.4-.081-1.031-.157-1.66A2.676,2.676,0,0,1,217.593,160.735Zm-4.738,2.506c-.087-.026-.175-.049-.264-.068.033-.108.068-.215.109-.322a4.509,4.509,0,0,1,.321-.669,4.691,4.691,0,0,1,.956-.759l-.825,1.378a2.6,2.6,0,0,1,1.37-.862,5.755,5.755,0,0,0-1.425,1.387c-.07-.028-.142-.053-.214-.076l.269-.449A2.549,2.549,0,0,0,212.855,163.241Zm1.41-2.4a3.49,3.49,0,0,1,.3-.18l.616,1.117A5.155,5.155,0,0,0,214.265,160.841Zm1.186,1.3a3.9,3.9,0,0,0-1.642,1.561c-.079-.054-.16-.106-.245-.156a3.2,3.2,0,0,0-.349-.177A4.518,4.518,0,0,1,215.452,162.146Zm-.068-1.781a3.165,3.165,0,0,1,.793-.064c.179.758.365,1.533.407,1.945a5.142,5.142,0,0,0-.962-1.637A2.631,2.631,0,0,0,215.383,160.366Zm1.131-.032a2.96,2.96,0,0,1,.572.149,6.7,6.7,0,0,1-.046,1.192C216.937,161.41,216.731,160.887,216.514,160.334Zm-3.794-.354c.093-.032.185-.063.275-.093-.079.034-.157.07-.234.107Zm.956-.482a8.6,8.6,0,0,0-1.323.362,5.53,5.53,0,0,0-.727-.158A5.251,5.251,0,0,1,213.676,159.5Zm-1.406,5.222a1.619,1.619,0,0,0-.247,0l.266-1.424.024.006A8.61,8.61,0,0,0,212.27,164.72Zm.041.52c.011.1.026.191.04.286a2.745,2.745,0,0,0-.488.057l.062-.332A3.826,3.826,0,0,1,212.312,165.24Zm.01-2.116.006-.034.012-.02c0,.019,0,.038-.007.056Zm-.215-2.779-.041.025c-.063-.023-.127-.045-.191-.066l.076-.032C212,160.3,212.056,160.32,212.107,160.345Zm-1.428-.257c.115-.061.233-.115.353-.167q.316.1.622.223l-.135.063A4.694,4.694,0,0,0,210.679,160.088Zm.153.712c.117-.063.235-.123.354-.181l.388.077-.074.052A4.072,4.072,0,0,0,210.832,160.8Zm.537.487c.083-.052.168-.1.253-.151q.3-.009.6.007l-.008.008A4.546,4.546,0,0,0,211.368,161.286Zm.659,2.329,0,.032-.04.163c.01-.026.021-.052.031-.077l-.11,1.008-.013,0c-.081.016-.161.037-.24.06Zm-.437-.514c.051-.061.1-.12.157-.179-.01.027-.018.054-.028.081s-.042.062-.063.094Zm.257,2.157q-.018.169-.037.339c-.036.009-.072.017-.106.028a3.417,3.417,0,0,0-.355.132l.141-.446C211.608,165.288,211.727,165.27,211.847,165.258Zm-.827-.2.367-.83q-.071.352-.116.71C211.186,164.974,211.1,165.015,211.02,165.058Zm.014,1.694.194-.612a3.544,3.544,0,0,1,.54-.15l-.029.264.05-.269a3.5,3.5,0,0,1,.633-.057c.011.058.021.116.033.173q-.014-.086-.026-.173a3.551,3.551,0,0,1,1.062.163A4.342,4.342,0,0,0,211.034,166.752Zm1.349-1.226q-.013-.142-.02-.284a3.532,3.532,0,0,1,1.995.671A5.2,5.2,0,0,0,212.382,165.526Zm-.028-.8a5.9,5.9,0,0,1,.181-1.353c.074.026.146.054.218.085l-.014.032.018-.031c.056.024.111.05.166.077l.019.011a5.659,5.659,0,0,0-.341.594,4.346,4.346,0,0,1,.412-.553,3.023,3.023,0,0,1,.607.5l-.02.044.027-.036a5.665,5.665,0,0,1,1.141,1.74A5.922,5.922,0,0,0,212.354,164.727Zm2.775.9a2.907,2.907,0,0,0-1.241-1.861,3.937,3.937,0,0,1,.938-.9,2,2,0,0,1,.934-.311A5.409,5.409,0,0,0,215.13,165.623Zm.4-.546a7.947,7.947,0,0,1,.275-2.526,1.361,1.361,0,0,1,.713.16,1.617,1.617,0,0,1,.523.49,3.166,3.166,0,0,0-1.094,1.609l.163-1.078Zm3.6,5.2a6.5,6.5,0,0,0-1.78-2.57c-.281-.27-.672-.416-.915-.72a2.024,2.024,0,0,1-.364-1.379,3.58,3.58,0,0,1,1.04-2.3,5.078,5.078,0,0,1,.279.5,14.071,14.071,0,0,1,.765,2.092,2.706,2.706,0,0,0-.271.624c.113-.124.228-.247.346-.367.526,1.821,1.025,4.116,1.372,5.939l0,.194A11.608,11.608,0,0,0,219.124,170.277Zm.716-.96-.275,0q0,.357.008.715c-.288-1.163-.575-2.215-.716-2.732-.11-.4-.278-.859-.45-1.327a4.876,4.876,0,0,1,.851-.669q.1-.06.2-.112c.228,1.55.389,3.434.492,5.17Q219.9,169.842,219.84,169.318Zm.339-1.071c-.116-1.107-.262-2.2-.429-3.18a2.524,2.524,0,0,1,.886-.178A21.05,21.05,0,0,1,220.179,168.247Zm.5,2.136-.04,0-.22.866c-.033-.622-.08-1.279-.139-1.947q.4-2.183.8-4.366a1.782,1.782,0,0,1,.756.373C221.371,166.921,220.985,168.783,220.679,170.383Zm.964-2.106c-.077.148-.155.309-.233.48.249-1.266.484-2.455.675-3.188a1.361,1.361,0,0,1,.24.5A3.366,3.366,0,0,1,221.643,168.277Zm1.036-2.834a2.679,2.679,0,0,0-.436-.4h0c.042-.11.083-.218.124-.324A1.7,1.7,0,0,1,222.679,165.443Zm.069-2.637a11.716,11.716,0,0,0-.507,1.232,1.617,1.617,0,0,0-.626-.292,1.55,1.55,0,0,0-.31-.034,11.593,11.593,0,0,1,.685-2.51,6.341,6.341,0,0,1,.7-1.216,2.9,2.9,0,0,1,.848,1.113C223.626,161.688,223.147,161.993,222.748,162.806Zm6.451-3.474c-.126-.022-.248-.051-.371-.077a3.1,3.1,0,0,0-.365-.079,5.053,5.053,0,0,0-.735-.075,4.119,4.119,0,0,0-1.451.153,3.875,3.875,0,0,0-1.3.692,4.62,4.62,0,0,0-1.007,1.1l-.02-.011a4.283,4.283,0,0,1,.287-.438c-.309-.134-.9-.491-1.412-.79q.149-.19.312-.368a5.741,5.741,0,0,0,1.106,1.151,4.862,4.862,0,0,1,.661-.733,4.021,4.021,0,0,1,1.316-.778,3.349,3.349,0,0,1,1.525-.208,2,2,0,0,1,.382.058c.125.03.251.056.374.091a6.083,6.083,0,0,1,.706.29Z" transform="translate(-208.685 -148.101)"/></g><path class="b" d="M187.015,136.967l.192,1.511,2.628-1.072Zm4.471,1.59-5.94,2.5-.228-1.794,1.292-.535-.235-1.853-1.389-.222-.089-.7,6.39,1.039Zm-.817-5.069-5.88,1.99-.558-1.648,4.087-1.383-4.475.238-.322-.951,3.621-2.535-4.019,1.36-.194-.573,5.88-1.99.585,1.731-3.212,2.208,3.892-.2Zm-4.1-9.315-4.7,3.014,1.376,2.147-.525.336-2.346-3.659,5.226-3.35Zm-7.5-2.795,1,1.151,1.594-2.349Zm4.6-1.155-3.562,5.369-1.184-1.367.779-1.161-1.223-1.412-1.279.585-.461-.532,5.895-2.676Zm-7.71-2.917.33.235q.8.569,1.554-.492.708-1-.093-1.564l-.33-.235Zm-3.265,1.492,3.6-5.059,2.178,1.549q1.857,1.32.8,2.811t-3.135.038l-.507-.36-1.467,2.063Zm-1.289-7.708-.2.591-2.107-.713-.6,1.781,1.772.6-.2.591-1.772-.6-.787,2.327,2.468.835-.2.591-4.17-1.411,1.99-5.88Zm-9.964,3.3.469.059a.9.9,0,0,0,.96-.444,8.44,8.44,0,0,0,.515-4.03.9.9,0,0,0-.822-.669l-.469-.059Zm-1.846.281.782-6.158,2.548.324q2.714.345,2.322,3.43t-3.2,2.715Zm-7.46-1.277,1.5-.268-1.2-2.571Zm1.363-4.545,2.791,5.807-1.78.318-.6-1.264-1.838.328-.152,1.4-.693.124.717-6.434Zm-6.826,4.678.338-.133a1.071,1.071,0,0,0-.785-1.991l-.338.133Zm-.391,3.906L144,111.661l2.479-.977a2.826,2.826,0,0,1,1.708-.2,1.373,1.373,0,0,1,1.013.868,1.483,1.483,0,0,1-.7,1.858,1.831,1.831,0,0,1,1.032.194,2.771,2.771,0,0,1,.688,1,2.835,2.835,0,0,0,.831,1.156l-1.817.716a2.717,2.717,0,0,1-.568-.933l-.144-.338-.178-.427q-.393-1-1.2-.68l-.287.113,1.092,2.771Zm-4.22-4.757,2.249,3.509q1.156,1.8-.838,3.081t-3.142-.53l-2.249-3.509,1.512-.969,2.279,3.554a1.907,1.907,0,0,0,.8.815,1.049,1.049,0,0,0,.891-.216q1.032-.662.237-1.9L141.548,113Zm-4.04,10.413.326-.343a.9.9,0,0,0,.212-1.036,8.433,8.433,0,0,0-2.938-2.805.9.9,0,0,0-1.026.265l-.326.342Zm-.869,1.653-4.493-4.284,1.773-1.859q1.888-1.98,4.139.166t.285,4.19Zm-5.21,1.52.2-.306a1.071,1.071,0,0,0-1.8-1.155l-.2.305Zm1.968,3.4-5.226-3.35,1.438-2.243a2.825,2.825,0,0,1,1.267-1.163,1.371,1.371,0,0,1,1.329.111,1.482,1.482,0,0,1,.516,1.919,1.836,1.836,0,0,1,.95-.447,2.773,2.773,0,0,1,1.142.406,2.83,2.83,0,0,0,1.35.451l-1.054,1.644a2.726,2.726,0,0,1-1.007-.424l-.315-.19-.394-.242q-.9-.579-1.369.149l-.167.26,2.507,1.607Zm-6.755,1.492a.694.694,0,0,0,.311.834,12.957,12.957,0,0,0,4.076,1.379.705.705,0,0,0,.442-1.308,12.944,12.944,0,0,0-4.074-1.379A.694.694,0,0,0,127.152,131.153Zm-.451-.205q.869-2.568,3.906-1.539t2.153,3.642q-.885,2.614-3.991,1.563Q125.8,133.608,126.7,130.948Zm1.336,7.416.323-2.539,3.324.422-.072.568-.448.14a2.71,2.71,0,0,1,.325,1.641,2.771,2.771,0,0,1-1.089,2.021,3.3,3.3,0,0,1-2.4.463,3.406,3.406,0,0,1-2.24-1.1,2.7,2.7,0,0,1-.629-2.21,1.964,1.964,0,0,1,2.009-1.854l.275.885-.149-.019-.334-.028c-.735-.036-1.141.255-1.219.869a.926.926,0,0,0,.459,1,6.254,6.254,0,0,0,2.119.523,6.575,6.575,0,0,0,2.023.052.761.761,0,0,0,.625-.7q.085-.665-.654-.759l-1.514-.193-.114.9Z" transform="translate(0 0)"/><path class="b" d="M207.747,266.857h-.536l.885-1.659h1.789Zm-1.93,6.484h2.089l-1-3.761Zm2.936-5.808,2.368,8.514H208.64l-.5-1.851h-2.561l-.543,1.851h-.966l2.519-8.514Zm-9.46,3.727h.5q1.4,0,1.4-1.468t-1.4-1.468h-.5Zm-2.464,4.786v-8.514h3.655a3.877,3.877,0,0,1,2.28.6,1.882,1.882,0,0,1,.855,1.617c0,1.032-.61,1.706-1.834,2.017a2.513,2.513,0,0,1,1.219.766,3.793,3.793,0,0,1,.377,1.619,3.885,3.885,0,0,0,.479,1.893h-2.678a3.737,3.737,0,0,1-.255-1.476l-.013-.5-.013-.634q0-1.471-1.185-1.47h-.423v4.085Zm-5.975-2.706h2.089l-1-3.761Zm2.936-5.808,2.368,8.514h-2.481l-.5-1.851h-2.561l-.542,1.851H189.1l2.519-8.514Zm-9.018,4.25h.555q1.346,0,1.346-1.785,0-1.675-1.346-1.674h-.555Zm-2.463,4.263v-8.514h3.665q3.124,0,3.125,2.508,0,2.534-3.474,2.534h-.853v3.472Zm-5.167-8.514v5.716q0,2.939-3.248,2.938t-3.236-2.938v-5.716h2.464v5.791a2.616,2.616,0,0,0,.321,1.534,1.438,1.438,0,0,0,1.189.411q1.682,0,1.681-2.019v-5.716Zm-12.309,7.812h.649a1.235,1.235,0,0,0,1.23-.77,11.566,11.566,0,0,0,0-5.571,1.234,1.234,0,0,0-1.234-.768h-.649Zm-2.463.7v-8.514h3.523q3.753,0,3.752,4.265,0,4.247-3.889,4.248Z" transform="translate(-27.545 -115.805)"/></g></svg>