<svg xmlns="http://www.w3.org/2000/svg" width="183.229" height="143.158" viewBox="0 0 183.229 143.158"><defs><style>.a{fill:#2f7143;}.b{fill:#ed3237;}</style></defs><g transform="translate(-125.1 -108.516)"><g transform="translate(185.289 137.021)"><path class="a" d="M253.636,252.177a.465.465,0,0,0-.073-.106L251.2,249.71a.443.443,0,0,0-.626,0l-2.361,2.361a.445.445,0,0,0-.072.109.905.905,0,0,1,.179.135l.943.943.943-.943a.988.988,0,0,1,1.364,0l.943.943.943-.943A.971.971,0,0,1,253.636,252.177Z" transform="translate(-219.729 -176.506)"/><path class="a" d="M250.495,253.8l-2.515,2.514c-.009.01-.017.021-.025.031a.887.887,0,0,1,.189.14l1.005,1.005,1.005-1.005a.988.988,0,0,1,1.364,0l1.005,1.005,1.005-1.005a.886.886,0,0,1,.189-.14c-.009-.01-.016-.021-.025-.031l-2.514-2.514A.494.494,0,0,0,250.495,253.8Z" transform="translate(-219.677 -177.648)"/><path class="a" d="M253.227,248.524l-1.8-1.8a.482.482,0,0,0-.683,0l-1.8,1.8a.479.479,0,0,0-.1.163l.747.747.876-.876a.886.886,0,0,1,1.25,0l.876.876.746-.746A.48.48,0,0,0,253.227,248.524Z" transform="translate(-219.923 -175.666)"/><path class="a" d="M253.375,245.247a.3.3,0,0,0-.019-.026l-1.8-1.8a.482.482,0,0,0-.683,0l-1.8,1.8a.463.463,0,0,0-.063.084.942.942,0,0,1,.212.152l.616.616.616-.616a.988.988,0,0,1,1.364,0l.616.616.616-.616A.915.915,0,0,1,253.375,245.247Z" transform="translate(-219.971 -174.742)"/><path class="a" d="M248.868,243.921l-.014.006.043.1,0-.046Z" transform="translate(-219.929 -174.922)"/><path class="a" d="M248.008,259,247,258a.484.484,0,0,0-.683,0l-1.041,1.041c-.069.3-.131.6-.184.9a2.1,2.1,0,0,0,1.337,1.02.949.949,0,0,1,.271-.649Z" transform="translate(-218.876 -178.822)"/><path class="a" d="M247.294,252.066a.892.892,0,0,1,.192-.289l1.145-1.145-.847-.848a.484.484,0,0,0-.683,0l-.444.445a6.146,6.146,0,0,1,.209,1.9A1.014,1.014,0,0,1,247.294,252.066Z" transform="translate(-219.314 -176.523)"/><path class="a" d="M247.909,244.309l-.578.577a4.917,4.917,0,0,1,.393.611,1,1,0,0,1,.339-.064.941.941,0,0,1,.2-.3l.576-.576-.244-.245a.483.483,0,0,0-.683,0Z" transform="translate(-219.502 -174.991)"/><path class="a" d="M245.954,248.1a5.842,5.842,0,0,1,.339.76l.271-.271a.988.988,0,0,1,1.072-.192.942.942,0,0,1,.155-.21l.846-.847-.616-.616a.461.461,0,0,0-.5-.111,1.706,1.706,0,0,1,.083.711C247.521,248.089,246.453,248.687,245.954,248.1Z" transform="translate(-219.117 -175.666)"/><path class="a" d="M246.14,256.481a.92.92,0,0,0,.861-.511l1.231-1.231-.943-.943a.482.482,0,0,0-.683,0l-.078.077a5.782,5.782,0,0,1-.21.93c-.256.791-.471,1.492-.65,2.149Z" transform="translate(-219.037 -177.646)"/><path class="a" d="M268.3,196l-.016.02c.027.012.061.029.087.04C268.349,196.042,268.326,196.021,268.3,196Z" transform="translate(-225.368 -161.509)"/><path class="a" d="M274.439,181.35a12.777,12.777,0,0,0-8.419-2.841c2.531-.925,5.274-.414,8.018-.29a13.922,13.922,0,0,0-8.576-.807,53.091,53.091,0,0,1,10.089-2.5,29.172,29.172,0,0,0-10.612,1.569,31.7,31.7,0,0,1,9.763-4.159c-3.514.5-7.023.893-10.644,3.174a20.626,20.626,0,0,1,1.815-1.364l.3.037c-.087-.023-.176-.041-.263-.063,2.851-1.905,5.9-2.991,8.892-4.344a29.2,29.2,0,0,0-9.023,2.811c-.418-.013-.837-.011-1.255,0a38.984,38.984,0,0,1,9.3-5.5c-2.855.339-8.146,3.061-11.363,5.655-.2.024-.4.048-.6.079a19.714,19.714,0,0,1,1.428-1.418l3.715-1.74q-1.089.161-2.158.428a39.384,39.384,0,0,1,8.589-5.225,40.018,40.018,0,0,0-11.216,6.057,22.7,22.7,0,0,0-3.248,1.539L259,172.4a42.334,42.334,0,0,1,8.254-5.619,33.878,33.878,0,0,0-7.224,3.515q.148-.271.3-.539c2.011-1.677,4.244-3.462,5.895-4.962a43.323,43.323,0,0,0-4.431,2.718,25.128,25.128,0,0,1,2.137-2.552,14.771,14.771,0,0,0-4.066,3.98c-.953.747-1.878,1.529-2.764,2.353,2.566-2.83,5.239-5.411,7.958-7.886a40.725,40.725,0,0,0-7.907,6.456l.012-.05c2.375-2.663,4.75-5.633,7.125-8.127a32.212,32.212,0,0,0-6.639,6c.317-1.294.675-2.577,1.082-3.832a13.866,13.866,0,0,1,1.461-1.525,13.782,13.782,0,0,0-1.319,1.094,32.407,32.407,0,0,1,2.553-5.837,27.211,27.211,0,0,0-4.38,7.794,38.373,38.373,0,0,0-3.347,4.859c-.044-.575-.084-1.151-.115-1.728A48.632,48.632,0,0,1,257.9,159.8a30.857,30.857,0,0,0-4.409,5.841,49.483,49.483,0,0,1,.179-4.946c.156-.387.313-.77.475-1.144-.143.2-.282.409-.421.617.107-1.03.247-2.046.437-3.036a24.188,24.188,0,0,0-1.272,4.367,35.245,35.245,0,0,0-2.683,5.724,26.964,26.964,0,0,1-.393-4.782c.322-1.035.679-2.034,1.071-2.975q-.556,1.016-1.038,2.07c.01-.178.017-.357.032-.534-.036.217-.06.439-.088.661a33.519,33.519,0,0,0-2.637,9.067q-.43-.62-.846-1.227a41.732,41.732,0,0,1,1.276-9.634,42.04,42.04,0,0,0-2.038,8.514c-.362-.536-.709-1.057-1.034-1.556q.008-2.264.15-4.526-.356,1.916-.581,3.855l-.05-.077.047.1a57.584,57.584,0,0,0,.145,14.376q-.8-5.224-1.6-10.449c.315-.561.617-1.123.894-1.688-.246.4-.569.879-.938,1.4q-.226-1.473-.452-2.946-.212,1.953-.251,3.919c-.385.524-.8,1.072-1.215,1.631q-.086-.874-.14-1.751c.575-1.1,1.1-2.115,1.5-2.875-.544.672-1.061,1.333-1.55,1.992q-.023-.54-.032-1.08c-.061.444-.11.889-.153,1.334-.561.766-1.087,1.531-1.581,2.309-.057-.343-.109-.684-.156-1.02.515-.93,1.078-1.864,1.7-2.834-.639.69-1.239,1.377-1.8,2.072v0q-.311.381-.608.768a17.577,17.577,0,0,1,2.044-4.543,9.462,9.462,0,0,0,.826-8.008,16.013,16.013,0,0,1-4.133,11.357c2.224-2.925,3.487-9.267,2.8-13.251.135,3.247-1.165,9.165-3.16,11.729a21.9,21.9,0,0,0,1.73-13.081,16.881,16.881,0,0,1-3.058,11.177,15.423,15.423,0,0,0-.326-14.138,19.325,19.325,0,0,1-.564,12.442,16.086,16.086,0,0,0-2.59-13.866,19.042,19.042,0,0,1,1.578,12.9,20.917,20.917,0,0,0-5.27-14.968,27.82,27.82,0,0,1,3.976,13.221,17.13,17.13,0,0,0-9.129-14.046,18.189,18.189,0,0,1,7.7,13.456c-1.267-3.131-2.45-6.359-4.486-8.318-2.224-2.14-4.469-4.241-7.367-5.3a22.909,22.909,0,0,1,9.885,12.787,34.138,34.138,0,0,0-5.473-7.788,11.516,11.516,0,0,0-8.547-3.592,18.876,18.876,0,0,1,11.7,10.3c-3.222-4.725-8.877-8.124-14.382-8.142a39.913,39.913,0,0,1,7.139,2.864A14.379,14.379,0,0,1,224.395,160a35.164,35.164,0,0,0-6.6-5.1A11.047,11.047,0,0,0,210,153.638a19,19,0,0,1,12.516,6.189,36.177,36.177,0,0,0-6.364-3.46,12.122,12.122,0,0,0-7.114-.684,24.769,24.769,0,0,1,12.469,4.729,17.232,17.232,0,0,0-11.669-1.584,36.6,36.6,0,0,1,10.209,1.784,10.838,10.838,0,0,0-10.757,4.329,14.324,14.324,0,0,1,8.54-3.917,16.581,16.581,0,0,0-6.292,3.952l7.305-3.71a18.359,18.359,0,0,0-6.224,6.221,20.593,20.593,0,0,1,8.252-6.219,23.873,23.873,0,0,0-6.312,6.1,52.883,52.883,0,0,1,7.837-6.4,27.98,27.98,0,0,1-6.738,6.2,18.811,18.811,0,0,0,8-5.751c-1.136,1.666-3.985,4.6-5.121,6.263a22.924,22.924,0,0,0,4.539-4.39,10.881,10.881,0,0,0-.925,3.711c.575-1.39,2.227-4.562,3.534-5.307-1,.673-1.649,2.953-1.718,4.153.59-1.524,1.9-3.878,3.455-4.372a7.31,7.31,0,0,0-2.4,4.1,6.932,6.932,0,0,1,3.163-3.25,2.374,2.374,0,0,0-1.16,2.723c.632-1.262,1.344-2.5,2.445-1.815a5.2,5.2,0,0,1,1,1.126A28.954,28.954,0,0,1,235.317,172a12.932,12.932,0,0,0-1.764,4.164c-.264-3.29-1.754-6.9-4.645-8.5a9.892,9.892,0,0,1,3.546,8.768c-.166-4.452-3.507-7.964-7.8-9.165,3.4,2.371,5.387,5.88,6.651,9.829a13.253,13.253,0,0,0-11.215-9.056,17.836,17.836,0,0,1,10.086,9.046,14.009,14.009,0,0,0-12.347-6.669,16.089,16.089,0,0,1,10.352,6.688,14.44,14.44,0,0,0-13.682-3.449,15.753,15.753,0,0,1,11.978,3.721,15.961,15.961,0,0,0-14.639-.681,16.921,16.921,0,0,1,12,1.112,12.976,12.976,0,0,0-13.1,3.139,16.967,16.967,0,0,1,10.965-2.633,12.834,12.834,0,0,0-6.714,1.656,14,14,0,0,0-2.347.143c.523.092,1.041.21,1.555.342-.342.225-.675.464-.994.72a12.487,12.487,0,0,0-2.922.426l2,.4A12.217,12.217,0,0,0,211,183.46a14.107,14.107,0,0,1,1.715-1.381l1.967.39c-.561.326-1.1.673-1.622,1.041a10.984,10.984,0,0,0-4.37,2.53,19.984,19.984,0,0,1,2.483-.989,12.6,12.6,0,0,0-1.627,1.855,14.359,14.359,0,0,1,2.345-2.072,20.35,20.35,0,0,1,3.071-.619q-.608.535-1.174,1.115A12.9,12.9,0,0,0,209.152,189a21.965,21.965,0,0,1,3.359-2.249,21.086,21.086,0,0,0-1.483,2.054,22.4,22.4,0,0,1,2.863-2.748,21.914,21.914,0,0,1,3.526-1.27,13.639,13.639,0,0,0-7.608,8.3,18.619,18.619,0,0,1,6.7-6.87c-.214.274-.418.556-.616.842a19.413,19.413,0,0,0-4.155,8.365,22.745,22.745,0,0,1,3.434-5.56c.152-.022.3-.04.457-.054a20.358,20.358,0,0,0-2.757,5.929,24.45,24.45,0,0,1,2.257-4.148,15.562,15.562,0,0,0-.441,2.424,17.456,17.456,0,0,1,1.108-3.363q.334-.446.686-.877c.078,0,.156,0,.234.006a14.563,14.563,0,0,0-1.926,5.313,9.229,9.229,0,0,0-3.193,3.085,8.707,8.707,0,0,1,4.1-2.406q-.05.622-.068,1.246a9.832,9.832,0,0,0-3.881,3.387,11.085,11.085,0,0,1,3.794-2.453l-.41,1.651a12.8,12.8,0,0,0-5.059,5.83,12.1,12.1,0,0,1,9.566-6.069A10.7,10.7,0,0,0,212,207.786a14.036,14.036,0,0,1,6.418-6.945c-4.163,2.474-6.344,6.525-6.945,11.328.987-3.713,3.158-7.609,6.117-9.409a14.548,14.548,0,0,0-5.065,10.248c.451-2.983,2.962-6.932,5.051-9.108-1.912,3.386-4.2,8.3-4.516,12.18,1.4-3.317,3.132-7.768,4.532-11.086-.812,2.959-1.958,7.05-2.77,10.009.741-1.788,1.979-5.785,2.72-7.573-.2,1.694-.888,5.6-1.084,7.292,1.14-4.692,2.013-8.285,3.153-12.977-.292,2.473-.318,3.848-.61,6.322.724-2.251,1.449-5.309,2.173-7.56a17.812,17.812,0,0,0,.034,6.25,8.392,8.392,0,0,1,2.515-7.364,3.505,3.505,0,0,0,.606,4.21c-.145-3.009.276-4.629,2.23-4.056A10.329,10.329,0,0,1,230,201.3a20.8,20.8,0,0,1,4,3.963,18.9,18.9,0,0,1,3.119,7.642,36.886,36.886,0,0,1,.517,3.927.905.905,0,0,1,.476.233l.245.245.886-.886a.987.987,0,0,1,1.363,0l.988.988.346-.346a.984.984,0,0,1,1.089-.179c-.028.17-.053.341-.078.511a.479.479,0,0,0-.671.008l-.346.346.475.475a.443.443,0,0,0,.4.383c-.015.176-.024.354-.035.53a.481.481,0,0,0-.678,0l-.616.616.847.847a.938.938,0,0,1,.154.21,1.04,1.04,0,0,1,.246-.065c0,.162.005.324.009.485a.467.467,0,0,0-.205.112l-.848.848,1.146,1.145a.808.808,0,0,1,.071.109c.028.222.063.444.1.665a.473.473,0,0,0-.248.123l-.943.943,1.232,1.231a.952.952,0,0,1,.169.239,1,1,0,0,1,.35.063c.073.262.15.523.233.782l-.233-.233a.484.484,0,0,0-.683,0l-1.005,1.005,1.3,1.3a.95.95,0,0,1,.27.573,4.947,4.947,0,0,1-.48.166.477.477,0,0,0-.13-.4l-2.65-2.651a.484.484,0,0,0-.683,0l-2.651,2.651a.477.477,0,0,0-.117.462c2.912.775,8.1.153,7.639-1.3a22.766,22.766,0,0,1-.613-15.2L242.6,214q.1-1.345.192-2.69a43.275,43.275,0,0,1,5.345-13.237c-.063,2.378.165,4.259.1,6.638.572-2.108,1.145-5.342,1.717-7.451a34.782,34.782,0,0,0,2.114,11.041c-.635-3.326-.953-7.935-.117-11.217.5,3.59,1.428,8.323,1.931,11.912a35.887,35.887,0,0,0-.873-12.038c1.7,4.118,3.391,9.731,5.087,13.85-.873-4.184-2.077-9.662-3.609-13.272,1.712,3.456,3.141,8.309,4.853,11.766a41.6,41.6,0,0,0-2.769-9.708,39.28,39.28,0,0,1,4.35,13.167,41.572,41.572,0,0,0-2.434-11.712c2.135,4.762,4.2,8.767,5.581,13.03-.938-3.554-2.443-7.92-3.38-11.473,1.532,3.431,3.631,7.676,5.163,11.107l-3.187-9.249c-.346-.592-.688-1.18-1.021-1.759,2.353,2.375,5,5.045,7.356,7.42-2.207-3.18-4.882-6.628-8.084-8.8,3.609.8,6.775,3.644,8.943,6.639-1.792-3.064-5.79-5.941-8.918-7.619,3.113.444,7.367,2.512,9.221,5.051-2.082-3.32-6.817-6.263-10.727-6,3.615-.373,8.082,1.12,11.408,2.583-3.93-2.86-7.747-4.543-12.5-3.513,3.753-1.9,7.022-1.388,10.841.376-4.111-2.075-7.506-3.07-11.911-1.731,4.454-2.047,8.89-1.816,13.431-.464a21.719,21.719,0,0,0-13.983-1.368c3.821-1.748,10.179-1.431,14.12-.277-2.707-1.859-9.886-2.173-13.366-.752a26.07,26.07,0,0,1,11.617-2.279c-4-.979-10.078-.125-13.425,2.275,2.774-3.227,8.622-5.2,12.876-5.285-4.507-.955-10.889,1.006-14.508,4.937,2.009-3.991,7.734-7.2,12.009-7.9-5.152.651-9.744,1.828-13.517,7.793a18.81,18.81,0,0,1,16.324-10.176c-6.985-1.131-14.9,3.388-18.205,10.333,2.178-4.652,6.417-10.383,10.787-13.089a28.457,28.457,0,0,0-11.258,11.034l4.287-9.418a42.181,42.181,0,0,0-6.592,12.395,4.52,4.52,0,0,0-.976-2.022,30.419,30.419,0,0,1,4.53-8.112,14.838,14.838,0,0,1,5.736-4.577,10.241,10.241,0,0,1,13.775,12,9.343,9.343,0,0,0,.334-5.913c.384,1.289.876,3.049,1.222,4.176a8.894,8.894,0,0,0-2.767-7.374,24.22,24.22,0,0,1,3.718,3.883c-.339-1.71-2.7-3.86-4.67-5.212a14.5,14.5,0,0,1,5.031,3.532c-.924-2.1-3.971-4.021-6.16-4.712a12.559,12.559,0,0,1,5.754,2.566,11.674,11.674,0,0,0-7-3.469A14.75,14.75,0,0,1,274.439,181.35Zm-58.588,8.128c-.034.048-.064.1-.1.145q-.23.041-.457.094.432-.509.894-.992Q216.01,189.1,215.851,189.479Zm36.233,6.084a10.363,10.363,0,0,1,3.024.873,9.4,9.4,0,0,1,2.657,1.71,12.942,12.942,0,0,1,1.039,1.185,11.347,11.347,0,0,1,.8,1.353l-.074.06a13.052,13.052,0,0,1-1.214-.952c-.414-.295-.782-.631-1.179-.927-.408-.28-.76-.631-1.166-.907-.2-.148-.385-.313-.588-.449l-.626-.394a9.739,9.739,0,0,0-2.754-1.08,7.412,7.412,0,0,0-2.985-.107l-.03-.09A7.278,7.278,0,0,1,252.083,195.563ZM264.1,172.947l1.213-.127q-.753.419-1.465.907c-.169-.02-.339-.035-.509-.05C263.585,173.429,263.84,173.187,264.1,172.947Zm-.887.858.438.054a15.217,15.217,0,0,0-1.481,1.185A12.432,12.432,0,0,1,263.218,173.805Zm-1.707-.586.418-.044c-.161.14-.315.278-.462.415l-.228-.028C261.324,173.449,261.416,173.334,261.511,173.219Zm-.307.39c.084,0,.168-.007.253-.009a10.827,10.827,0,0,0-.788.816A7.234,7.234,0,0,1,261.2,173.61Zm-1.632-.474c-.084.076-.166.152-.248.229-.207.058-.414.113-.619.177Zm-.744.7c-.2.2-.408.393-.607.594.058-.176.12-.35.182-.524C258.543,173.877,258.685,173.857,258.827,173.833Zm-.6-2.283-.033.06c-.123.1-.247.2-.365.3C257.96,171.79,258.094,171.67,258.229,171.55Zm-1.776-4.47c-.318.994-.595,2-.835,3.019-.623.777-1.205,1.535-1.733,2.243l0-.022A31.1,31.1,0,0,1,256.454,167.08Zm.4,7.182q-.434.929-.857,1.911c.092-.571.189-1.153.288-1.738C256.476,174.376,256.665,174.316,256.856,174.263Zm-4.323-10.51a35.771,35.771,0,0,0-.243,4.094q-.711,1.417-1.31,2.9-.122-.458-.234-.92C251.274,167.73,251.871,165.687,252.532,163.752Zm-.027,8.589c-.073.137-.149.274-.22.408.058-.253.122-.51.189-.766C252.485,172.1,252.493,172.222,252.5,172.341Zm-2.054-1.31c.047.233.1.466.146.7-.3.809-.584,1.625-.837,2.45Q250.078,172.595,250.45,171.031Zm-.772-8.148a27.8,27.8,0,0,0,.258,5.1,39.667,39.667,0,0,0-1.33,4.84l-.531-.763A40.279,40.279,0,0,1,249.678,162.883Zm-1.395,11.722c-.068.438-.13.873-.181,1.306-.043-.577-.065-1.169-.072-1.769C248.115,174.3,248.2,174.451,248.284,174.605Zm-1.3-2.461a33.1,33.1,0,0,0-.163,3.712l-.174-.16a43.217,43.217,0,0,1-.341-4.9Q246.635,171.474,246.979,172.145Zm-.119,5.075c-.07-.423-.131-.85-.188-1.28.05.126.1.251.154.375C246.834,176.617,246.843,176.919,246.86,177.22Zm-1.4-8.144a42.126,42.126,0,0,0,.058,10.176A73.082,73.082,0,0,1,244.51,167.1Q244.981,168.087,245.458,169.077Zm3.773,8.167a15.468,15.468,0,0,1,3.1-2.358l.87-.448c.3-.133.6-.25.909-.362a10.966,10.966,0,0,1,1.877-.514l.018.061a30.17,30.17,0,0,0-3.352,1.81,28.222,28.222,0,0,0-3.088,2.192,25.417,25.417,0,0,0-2.713,2.679,24.5,24.5,0,0,0-2.317,3.05l-.055-.031A24.57,24.57,0,0,1,249.23,177.243Zm5.495-2.233c-.1.734-.178,1.465-.243,2.19-.091-.644-.179-1.3-.264-1.963C254.387,175.159,254.556,175.082,254.725,175.01Zm-1.476,2.331c-.18-.429-.356-.871-.531-1.318.087-.051.175-.1.263-.151C253.066,176.366,253.154,176.858,253.249,177.341Zm-1.864-.451c.144-.1.288-.205.435-.3.17.6.341,1.192.508,1.756C252.037,177.88,251.72,177.394,251.385,176.89Zm.727,3.8-2.535-2.314q.3-.278.606-.542C250.791,178.8,251.43,179.754,252.112,180.691Zm-10.255-9.275a45.859,45.859,0,0,0,2.248,14.57,46.447,46.447,0,0,1-3.364-12.712C241.116,172.653,241.49,172.034,241.857,171.415ZM243.35,192.1a4.513,4.513,0,0,1,.979.246,4.61,4.61,0,0,1,1.4.843q-.192.583-.379,1.192a8.058,8.058,0,0,0-2.258-.853Q243.218,192.818,243.35,192.1Zm-1.583-8.2a76.4,76.4,0,0,1-2.412-8.248q.38-.689.784-1.372A34.894,34.894,0,0,0,241.766,183.908Zm-8.27,4.809a34.528,34.528,0,0,1,.3-5.379,6.663,6.663,0,0,1,.518.441,11.938,11.938,0,0,1,2.877,5.393,40.745,40.745,0,0,1,1.049,4.9,8.042,8.042,0,0,0-3.028,2.531,37.335,37.335,0,0,1-1.313-4.069,19.547,19.547,0,0,1-.4-3.746c.125-.081.25-.162.38-.237C233.749,188.6,233.622,188.659,233.5,188.716Zm4.2-.5a15.356,15.356,0,0,1-1.033-4.449,12.834,12.834,0,0,1,1.012-4.515c.068-.186.141-.372.215-.557.74,4.038,1.868,7.493,3.328,13.071a4.477,4.477,0,0,0-1.519,1.326,4.658,4.658,0,0,1,1.645-.844c.036.142.073.282.11.426a6.367,6.367,0,0,1,.13.684,7.43,7.43,0,0,0-1.779.171,7.3,7.3,0,0,0-.788.23A45.648,45.648,0,0,0,237.695,188.213Zm-.814-10.57c.189-.357.407-.775.643-1.226.009.068.019.136.03.2C237.295,177,237.065,177.341,236.881,177.643Zm3.3-6.336c-.036.6-.053,1.21-.058,1.815-.347.461-.692.92-1.026,1.367-.055-.264-.11-.527-.161-.789C239.351,172.907,239.774,172.092,240.183,171.307Zm-1.343,5.317a80.674,80.674,0,0,0,1.7,9.3c-.782-2.649-1.612-5.346-2.347-7.947C238.392,177.524,238.61,177.073,238.84,176.625Zm-.231-2.288c.019.241.043.483.066.726-.334.453-.647.885-.931,1.29l-.063-.233Zm-.152-2.848q.015.584.045,1.18c-.416.672-.81,1.354-1.182,2.057v0A35.054,35.054,0,0,0,235.41,179,34.236,34.236,0,0,1,238.456,171.488Zm-2.783,1.367c.138.349.271.7.4,1.053a26.071,26.071,0,0,0-1.764,3.461A20.924,20.924,0,0,1,235.673,172.855Zm-8.655,7.36a8.756,8.756,0,0,1,4.664.85,11.875,11.875,0,0,1,3.685,2.8l-.093.086a12.144,12.144,0,0,0-3.839-2.3,7.924,7.924,0,0,0-4.275-.429,10.211,10.211,0,0,0-3.82,1.828,36.553,36.553,0,0,0-3.467,2.843l-.1-.074a10.2,10.2,0,0,1,2.8-3.776A8.011,8.011,0,0,1,227.019,180.215Zm6.254,2.757a22.307,22.307,0,0,0-.454,4.1c-.012-1.1-.225-2.846-.433-4.581A7.389,7.389,0,0,1,233.273,182.972ZM220.2,189.889c-.24-.073-.483-.134-.728-.187.091-.3.189-.595.3-.888a12.446,12.446,0,0,1,.885-1.846,12.943,12.943,0,0,1,2.639-2.095l-2.276,3.8a7.186,7.186,0,0,1,3.782-2.38,15.887,15.887,0,0,0-3.934,3.829c-.194-.076-.391-.148-.59-.21l.742-1.239A7.041,7.041,0,0,0,220.2,189.889Zm3.891-6.623a9.648,9.648,0,0,1,.835-.5l1.7,3.083A14.227,14.227,0,0,0,224.087,183.266Zm3.274,3.6a10.759,10.759,0,0,0-4.533,4.308c-.219-.148-.442-.293-.676-.431a8.83,8.83,0,0,0-.963-.49A12.469,12.469,0,0,1,227.361,186.868Zm-.189-4.915a8.734,8.734,0,0,1,2.189-.178c.495,2.092,1.008,4.23,1.124,5.369a14.192,14.192,0,0,0-2.655-4.519A7.251,7.251,0,0,0,227.173,181.953Zm3.122-.089a8.168,8.168,0,0,1,1.578.411,18.5,18.5,0,0,1-.126,3.29C231.462,184.835,230.894,183.391,230.294,181.864Zm-10.472-.978c.257-.089.511-.175.758-.256-.217.094-.433.194-.647.3C219.9,180.912,219.86,180.9,219.823,180.886Zm2.638-1.329a23.738,23.738,0,0,0-3.652,1,15.273,15.273,0,0,0-2.006-.435A14.5,14.5,0,0,1,222.46,179.557Zm-3.88,14.414a4.452,4.452,0,0,0-.681.014l.733-3.931.066.017A23.761,23.761,0,0,0,218.581,193.971Zm.114,1.437c.03.264.071.526.11.789a7.575,7.575,0,0,0-1.348.158l.171-.915A10.557,10.557,0,0,1,218.7,195.407Zm.029-5.841.017-.094c.011-.019.023-.037.034-.056-.007.052-.011.1-.018.156Zm-.593-7.67-.114.068c-.174-.065-.35-.125-.526-.181.07-.03.14-.06.211-.089C217.845,181.759,217.989,181.826,218.13,181.9Zm-3.942-.71c.318-.167.644-.318.974-.462q.872.27,1.717.614c-.125.056-.249.115-.374.174A12.956,12.956,0,0,0,214.188,181.186Zm.422,1.964c.323-.173.649-.338.977-.5l1.071.212c-.068.048-.137.1-.2.144A11.238,11.238,0,0,0,214.61,183.15Zm1.481,1.344c.23-.144.463-.282.7-.418q.833-.026,1.664.019l-.022.021A12.549,12.549,0,0,0,216.091,184.494Zm1.818,6.43-.01.089q-.055.225-.112.451c.027-.072.058-.143.086-.214l-.3,2.781c-.012,0-.024,0-.035.005-.223.045-.444.1-.662.166ZM216.7,189.5c.141-.168.287-.331.434-.495-.027.074-.05.15-.076.225-.058.086-.117.171-.173.258Zm.709,5.954q-.051.468-.1.935c-.1.024-.2.048-.293.077a9.445,9.445,0,0,0-.979.363l.39-1.23C216.753,195.538,217.082,195.49,217.413,195.457Zm-2.283-.552q.507-1.146,1.014-2.291-.2.972-.32,1.959C215.587,194.673,215.356,194.785,215.129,194.9Zm.038,4.676.535-1.689a9.778,9.778,0,0,1,1.489-.414l-.08.729.139-.742a9.668,9.668,0,0,1,1.748-.157c.032.16.057.32.092.479q-.039-.239-.072-.479a9.8,9.8,0,0,1,2.932.449A11.984,11.984,0,0,0,215.167,199.581Zm3.723-3.385q-.035-.391-.055-.783a9.748,9.748,0,0,1,5.506,1.851A14.347,14.347,0,0,0,218.89,196.2Zm-.077-2.2a16.274,16.274,0,0,1,.5-3.734c.2.071.4.149.6.235-.013.03-.027.059-.039.089l.05-.084c.155.067.307.137.457.213.017.009.035.021.053.03a15.582,15.582,0,0,0-.942,1.638,11.993,11.993,0,0,1,1.136-1.527,8.345,8.345,0,0,1,1.675,1.386c-.017.041-.037.081-.054.122l.076-.1a15.636,15.636,0,0,1,3.148,4.8C223.777,195.873,221.074,194.217,218.813,193.991Zm7.66,2.474a8.024,8.024,0,0,0-3.425-5.138,10.864,10.864,0,0,1,2.588-2.479,5.516,5.516,0,0,1,2.578-.859C226.862,189.943,226.178,194.043,226.473,196.465Zm1.091-1.506a21.934,21.934,0,0,1,.758-6.973,3.755,3.755,0,0,1,1.967.443,4.463,4.463,0,0,1,1.443,1.352,8.74,8.74,0,0,0-3.019,4.442l.451-2.975ZM237.5,209.31a17.93,17.93,0,0,0-4.912-7.092c-.776-.746-1.855-1.149-2.527-1.988a5.586,5.586,0,0,1-1-3.806,9.883,9.883,0,0,1,2.871-6.358,13.989,13.989,0,0,1,.77,1.384,38.857,38.857,0,0,1,2.113,5.774,7.463,7.463,0,0,0-.747,1.722c.313-.341.63-.68.956-1.012,1.453,5.026,2.828,11.36,3.788,16.394l.006.535A32.048,32.048,0,0,0,237.5,209.31Zm1.975-2.648-.76.011q.012.986.023,1.972c-.795-3.211-1.586-6.113-1.977-7.541-.3-1.1-.766-2.372-1.243-3.663a13.459,13.459,0,0,1,2.347-1.846q.273-.164.559-.31c.628,4.279,1.075,9.479,1.358,14.27Q239.627,208.108,239.474,206.662Zm.936-2.957c-.321-3.056-.723-6.084-1.185-8.778a6.966,6.966,0,0,1,2.444-.492C241.738,197.209,240.857,200.871,240.41,203.705Zm1.379,5.9-.109-.008q-.3,1.195-.606,2.391c-.092-1.718-.221-3.531-.382-5.373q1.1-6.025,2.209-12.051a4.92,4.92,0,0,1,2.088,1.029C243.7,200.045,242.634,205.186,241.789,209.6Zm2.661-5.813c-.214.408-.428.853-.642,1.324.687-3.493,1.336-6.776,1.864-8.8a3.755,3.755,0,0,1,.661,1.385C246.839,199.816,245.459,201.859,244.451,203.789Zm2.86-7.821a7.405,7.405,0,0,0-1.2-1.092h0c.115-.3.229-.6.343-.9A4.7,4.7,0,0,1,247.311,195.968Zm.189-7.279a32.341,32.341,0,0,0-1.4,3.4,4.463,4.463,0,0,0-1.728-.805,4.273,4.273,0,0,0-.855-.094,32,32,0,0,1,1.89-6.927,17.5,17.5,0,0,1,1.926-3.355c1.088,1.046,2.217,2.273,2.34,3.071C249.924,185.6,248.6,186.443,247.5,188.689Zm17.806-9.589c-.347-.06-.684-.142-1.023-.212a8.556,8.556,0,0,0-1.007-.217,13.949,13.949,0,0,0-2.028-.207,11.372,11.372,0,0,0-4,.423,10.7,10.7,0,0,0-3.591,1.91,12.751,12.751,0,0,0-2.78,3.04l-.055-.03a11.831,11.831,0,0,1,.791-1.21c-.852-.369-2.475-1.355-3.9-2.18q.412-.525.861-1.017a15.848,15.848,0,0,0,3.054,3.177,13.422,13.422,0,0,1,1.825-2.023,11.1,11.1,0,0,1,3.634-2.148,9.244,9.244,0,0,1,4.208-.575,5.517,5.517,0,0,1,1.054.16c.346.083.693.154,1.033.25a16.806,16.806,0,0,1,1.95.8Z" transform="translate(-208.685 -148.101)"/></g><path class="b" d="M295.99,187.045l.53,4.171,7.254-2.96Zm12.339,4.388-16.4,6.887-.629-4.952,3.567-1.476-.65-5.113-3.833-.614-.245-1.928,17.636,2.869Zm-2.256-13.991-16.229,5.491-1.54-4.55,11.282-3.818-12.351.658-.888-2.624,9.994-7-11.092,3.753-.535-1.581,16.229-5.492,1.616,4.778-8.865,6.1,10.742-.548Zm-11.321-25.709-12.975,8.318,3.8,5.926-1.449.928-6.474-10.1,14.424-9.247Zm-20.707-7.714L276.8,147.2l4.4-6.484Zm12.7-3.187-9.831,14.819-3.268-3.773,2.151-3.205-3.375-3.9-3.53,1.614-1.273-1.469,16.27-7.387Zm-21.279-8.051.91.647q2.209,1.572,4.29-1.357,1.954-2.747-.256-4.316l-.911-.647Zm-9.013,4.119,9.929-13.963,6.011,4.274q5.124,3.643,2.2,7.758-2.955,4.155-8.653.1l-1.4-.994-4.049,5.694ZM252.9,115.623l-.552,1.63-5.815-1.968-1.663,4.915,4.89,1.655-.552,1.63-4.891-1.655-2.173,6.424,6.813,2.305-.552,1.63L236.9,128.3l5.491-16.229Zm-27.5,9.114,1.3.164a2.485,2.485,0,0,0,2.65-1.225,15.621,15.621,0,0,0,1.391-5.481,15.656,15.656,0,0,0,.031-5.641,2.484,2.484,0,0,0-2.268-1.846l-1.3-.164Zm-5.1.776,2.16-17,7.033.894q7.492.952,6.41,9.467-1.077,8.479-8.841,7.495Zm-20.59-3.525,4.138-.739-3.32-7.1Zm3.761-12.544,7.7,16.029-4.914.877-1.654-3.488-5.074.907-.421,3.858-1.913.341,1.979-17.757Zm-18.84,12.911.932-.367q2.629-1.037,1.545-3.785t-3.712-1.712l-.933.367Zm-1.079,10.78L177.268,117.2l6.843-2.7a7.8,7.8,0,0,1,4.714-.557,3.789,3.789,0,0,1,2.795,2.4q1.142,2.9-1.944,5.129a5.054,5.054,0,0,1,2.847.534,7.646,7.646,0,0,1,1.9,2.753,7.826,7.826,0,0,0,2.293,3.191l-5.014,1.977a7.5,7.5,0,0,1-1.568-2.576l-.4-.934-.492-1.177q-1.086-2.754-3.3-1.878l-.792.313,3.014,7.647ZM171.9,120l6.209,9.685q3.192,4.978-2.313,8.5-5.482,3.515-8.673-1.463l-6.209-9.685,4.174-2.676,6.289,9.811a5.265,5.265,0,0,0,2.211,2.25,2.894,2.894,0,0,0,2.46-.6q2.849-1.827.655-5.246l-6.209-9.685Zm-11.15,28.741.9-.945a2.486,2.486,0,0,0,.585-2.86,23.276,23.276,0,0,0-8.109-7.743,2.484,2.484,0,0,0-2.833.731l-.9.945Zm-2.4,4.563-12.4-11.823,4.892-5.131q5.211-5.466,11.424.457,6.187,5.9.788,11.564Zm-14.381,4.2.541-.844q1.524-2.378-.962-3.973t-4.012.784l-.541.843Zm5.433,9.372-14.423-9.247,3.97-6.192a7.8,7.8,0,0,1,3.5-3.21,3.785,3.785,0,0,1,3.667.307q2.623,1.681,1.425,5.3a5.07,5.07,0,0,1,2.622-1.234,7.655,7.655,0,0,1,3.152,1.12,7.812,7.812,0,0,0,3.727,1.246l-2.908,4.538a7.524,7.524,0,0,1-2.779-1.172l-.868-.526-1.087-.667q-2.493-1.6-3.778.41l-.46.717,6.92,4.436ZM130.764,171a1.916,1.916,0,0,0,.858,2.3,23.067,23.067,0,0,0,5.465,2.373,23.085,23.085,0,0,0,5.784,1.433,1.946,1.946,0,0,0,1.221-3.61,23.129,23.129,0,0,0-5.465-2.373,23.156,23.156,0,0,0-5.78-1.432A1.916,1.916,0,0,0,130.764,171Zm-1.246-.566q2.4-7.088,10.78-4.249t5.941,10.051q-2.442,7.214-11.015,4.313Q127.031,177.773,129.518,170.429ZM133.2,190.9l.891-7.008,9.173,1.166-.2,1.568-1.236.386a7.481,7.481,0,0,1,.9,4.529,7.649,7.649,0,0,1-3,5.578,9.108,9.108,0,0,1-6.627,1.277,9.4,9.4,0,0,1-6.183-3.034,7.452,7.452,0,0,1-1.736-6.1q.6-4.708,5.544-5.117l.76,2.444-.412-.053-.922-.078c-2.028-.1-3.149.7-3.364,2.4a2.556,2.556,0,0,0,1.267,2.759,17.263,17.263,0,0,0,5.85,1.442,18.145,18.145,0,0,0,5.584.145,2.1,2.1,0,0,0,1.726-1.934q.233-1.835-1.805-2.094l-4.179-.531-.314,2.472Z" transform="translate(0 0)"/><path class="b" d="M287.617,269.778h-1.48l2.443-4.58h4.938Zm-5.326,17.9h5.766l-2.771-10.381Zm8.1-16.03,6.535,23.5h-6.847l-1.391-5.108h-7.069l-1.5,5.108h-2.666l6.952-23.5Zm-26.111,10.288h1.374q3.874,0,3.876-4.052t-3.876-4.051h-1.374Zm-6.8,13.211v-23.5h10.088a10.7,10.7,0,0,1,6.294,1.662,5.2,5.2,0,0,1,2.36,4.462c0,2.848-1.685,4.709-5.061,5.566a6.935,6.935,0,0,1,3.364,2.114,10.472,10.472,0,0,1,1.04,4.468q.325,3.954,1.321,5.226H269.5a10.314,10.314,0,0,1-.7-4.075l-.035-1.392-.035-1.749q0-4.06-3.271-4.058h-1.168v11.274Zm-16.493-7.469h5.766l-2.772-10.381Zm8.1-16.03,6.536,23.5h-6.847l-1.392-5.108H240.32l-1.5,5.108h-2.666l6.952-23.5ZM224.2,283.376h1.533q3.716,0,3.716-4.926,0-4.624-3.716-4.621H224.2Zm-6.8,11.767v-23.5H227.52q8.623,0,8.626,6.923,0,6.994-9.589,6.993H224.2v9.583Zm-14.262-23.5v15.777q0,8.112-8.966,8.109-8.931,0-8.931-8.109V271.644h6.8v15.983q0,3.1.886,4.233t3.282,1.133q4.641,0,4.639-5.573V271.644Zm-33.973,21.561h1.791a3.41,3.41,0,0,0,3.394-2.126q.942-2.131.945-7.7c0-3.7-.311-6.271-.934-7.68a3.405,3.405,0,0,0-3.405-2.12h-1.791Zm-6.8,1.938v-23.5h9.723q10.357,0,10.357,11.773,0,11.723-10.733,11.726Z" transform="translate(-10.432 -43.857)"/></g></svg>