<svg xmlns="http://www.w3.org/2000/svg" xmlns:xlink="http://www.w3.org/1999/xlink" width="483.026" height="384.796" viewBox="0 0 483.026 384.796"><defs><style>.a{fill:#fff;}.b{filter:url(#e);}.c{filter:url(#c);}.d{filter:url(#a);}</style><filter id="a" x="148.299" y="69.444" width="196.417" height="235.589" filterUnits="userSpaceOnUse"><feOffset dy="3" input="SourceAlpha"/><feGaussianBlur stdDeviation="5" result="b"/><feFlood flood-opacity="0.447"/><feComposite operator="in" in2="b"/><feComposite in="SourceGraphic"/></filter><filter id="c" x="0" y="0" width="483.026" height="250.983" filterUnits="userSpaceOnUse"><feOffset dy="3" input="SourceAlpha"/><feGaussianBlur stdDeviation="4.5" result="d"/><feFlood flood-opacity="0.294"/><feComposite operator="in" in2="d"/><feComposite in="SourceGraphic"/></filter><filter id="e" x="65.292" y="279.303" width="364.897" height="105.493" filterUnits="userSpaceOnUse"><feOffset dy="3" input="SourceAlpha"/><feGaussianBlur stdDeviation="5" result="f"/><feFlood flood-opacity="0.424"/><feComposite operator="in" in2="f"/><feComposite in="SourceGraphic"/></filter></defs><g transform="translate(-111.6 -98.016)"><g transform="translate(274.9 179.46)"><path class="a" d="M261.816,256.043a1.161,1.161,0,0,0-.183-.263l-5.877-5.876a1.1,1.1,0,0,0-1.559,0l-5.877,5.876a1.121,1.121,0,0,0-.179.271,2.242,2.242,0,0,1,.444.337l2.348,2.348,2.346-2.348a2.459,2.459,0,0,1,3.395,0l2.346,2.348,2.346-2.348A2.423,2.423,0,0,1,261.816,256.043Z" transform="translate(-177.428 -67.711)"/><path class="a" d="M254.276,254l-6.258,6.257c-.023.025-.041.052-.063.077a2.193,2.193,0,0,1,.47.349l2.5,2.5,2.5-2.5a2.458,2.458,0,0,1,3.395,0l2.5,2.5,2.5-2.5a2.2,2.2,0,0,1,.469-.349c-.021-.025-.039-.052-.062-.077L255.977,254A1.23,1.23,0,0,0,254.276,254Z" transform="translate(-177.576 -64.478)"/><path class="a" d="M259.766,251.419l-4.486-4.486a1.2,1.2,0,0,0-1.7,0l-4.488,4.486a1.194,1.194,0,0,0-.256.407l1.858,1.858,2.18-2.181a2.2,2.2,0,0,1,3.111,0l2.179,2.181,1.857-1.857A1.194,1.194,0,0,0,259.766,251.419Z" transform="translate(-176.879 -70.087)"/><path class="a" d="M259.882,248.18a.747.747,0,0,0-.047-.065l-4.486-4.486a1.2,1.2,0,0,0-1.7,0l-4.486,4.486a1.152,1.152,0,0,0-.158.208,2.336,2.336,0,0,1,.527.378l1.532,1.534L252.6,248.7a2.459,2.459,0,0,1,3.394,0l1.533,1.534,1.534-1.534A2.278,2.278,0,0,1,259.882,248.18Z" transform="translate(-176.744 -72.704)"/><path class="a" d="M248.888,243.921l-.034.014.107.247-.009-.115Z" transform="translate(-176.863 -72.194)"/><path class="a" d="M252.347,260.709l-2.5-2.5a1.205,1.205,0,0,0-1.7,0l-2.591,2.59c-.172.753-.326,1.495-.459,2.235.43,1.1,1.656,1.936,3.328,2.539a2.36,2.36,0,0,1,.676-1.614Z" transform="translate(-179.842 -61.155)"/><path class="a" d="M248.243,255.674a2.224,2.224,0,0,1,.478-.72l2.85-2.85-2.107-2.109a1.205,1.205,0,0,0-1.7,0l-1.105,1.108a15.319,15.319,0,0,1,.52,4.737A2.518,2.518,0,0,1,248.243,255.674Z" transform="translate(-178.604 -67.661)"/><path class="a" d="M248.77,244.519l-1.439,1.437a12.223,12.223,0,0,1,.979,1.52,2.478,2.478,0,0,1,.844-.159,2.34,2.34,0,0,1,.489-.755l1.434-1.434-.608-.609a1.2,1.2,0,0,0-1.7,0Z" transform="translate(-178.07 -71.998)"/><path class="a" d="M245.954,250.358a14.554,14.554,0,0,1,.844,1.893l.676-.676a2.46,2.46,0,0,1,2.669-.478,2.349,2.349,0,0,1,.385-.523l2.106-2.108-1.532-1.532a1.193,1.193,0,0,0-.849-.353,1.207,1.207,0,0,0-.393.077,4.243,4.243,0,0,1,.206,1.769C249.854,250.336,247.2,251.824,245.954,250.358Z" transform="translate(-179.161 -70.087)"/><path class="a" d="M246.841,260.69a2.29,2.29,0,0,0,2.142-1.272l3.065-3.065-2.348-2.346a1.2,1.2,0,0,0-1.7,0l-.193.192a14.4,14.4,0,0,1-.522,2.314c-.638,1.97-1.172,3.714-1.617,5.35Z" transform="translate(-179.387 -64.483)"/><path class="a" d="M268.325,196l-.039.05c.068.03.152.072.217.1C268.442,196.1,268.387,196.049,268.325,196Z" transform="translate(-161.47 -110.155)"/><g class="d" transform="matrix(1, 0, 0, 1, -163.3, -81.44)"><path class="a" d="M372.335,230.853c-5.934-4.484-13.54-7.671-20.952-7.07,6.3-2.3,13.126-1.031,19.954-.722-5.728-2.09-11.606-4.023-21.343-2.009,7.982-3.165,16.556-4.663,25.109-6.226a72.61,72.61,0,0,0-26.412,3.905c7.4-5.2,15.794-7.909,24.3-10.35-8.746,1.235-17.479,2.222-26.49,7.9a51.256,51.256,0,0,1,4.518-3.394l.747.091c-.217-.057-.437-.1-.654-.156,7.1-4.742,14.7-7.443,22.132-10.812a72.667,72.667,0,0,0-22.458,7c-1.041-.032-2.082-.027-3.124,0,6.941-5.927,16.334-10.724,23.141-13.68-7.106.844-20.273,7.619-28.281,14.074-.5.061-.991.12-1.486.2a48.993,48.993,0,0,1,3.554-3.529q4.621-2.164,9.246-4.33-2.71.4-5.371,1.066c7.111-5.626,15.895-10.85,21.375-13a99.6,99.6,0,0,0-27.915,15.076,56.5,56.5,0,0,0-8.085,3.83l.065-.145a105.363,105.363,0,0,1,20.542-13.984,84.312,84.312,0,0,0-17.979,8.75q.368-.675.756-1.341c5.006-4.174,10.562-8.617,14.671-12.35a107.8,107.8,0,0,0-11.027,6.764,62.576,62.576,0,0,1,5.319-6.352,36.762,36.762,0,0,0-10.119,9.906c-2.371,1.858-4.674,3.8-6.88,5.855,6.385-7.043,13.038-13.468,19.805-19.626a101.352,101.352,0,0,0-19.68,16.067l.029-.125c5.911-6.628,11.821-14.019,17.732-20.227-5.575,3.441-11.361,9.072-16.524,14.927.789-3.22,1.679-6.414,2.692-9.538a34.52,34.52,0,0,1,3.636-3.8,34.376,34.376,0,0,0-3.283,2.722,80.67,80.67,0,0,1,6.355-14.527,67.73,67.73,0,0,0-10.9,19.4,95.507,95.507,0,0,0-8.33,12.094c-.109-1.43-.21-2.864-.287-4.3a121.026,121.026,0,0,1,10.739-21.668A76.794,76.794,0,0,0,320.2,191.75c-.045-4.152.084-8.278.446-12.31.387-.962.78-1.916,1.181-2.846-.355.5-.7,1.018-1.048,1.536.265-2.565.615-5.093,1.088-7.556a60.2,60.2,0,0,0-3.167,10.869,87.725,87.725,0,0,0-6.678,14.246,67.112,67.112,0,0,1-.978-11.9c.8-2.575,1.69-5.061,2.665-7.4q-1.385,2.53-2.584,5.153c.025-.443.041-.889.079-1.328-.09.54-.15,1.093-.219,1.645a83.427,83.427,0,0,0-6.563,22.567q-1.07-1.543-2.106-3.054a103.85,103.85,0,0,1,3.176-23.978,104.619,104.619,0,0,0-5.072,21.191c-.9-1.333-1.765-2.631-2.574-3.873q.019-5.635.373-11.264-.887,4.769-1.446,9.594c-.041-.063-.084-.129-.124-.192.039.083.077.165.116.247a143.316,143.316,0,0,0,.36,35.779q-2-13-3.993-26c.785-1.4,1.536-2.8,2.226-4.2-.611,1-1.416,2.188-2.335,3.488q-.562-3.667-1.126-7.332-.527,4.861-.625,9.755c-.957,1.3-1.978,2.669-3.023,4.059q-.215-2.175-.348-4.357c1.43-2.749,2.742-5.264,3.741-7.156-1.355,1.672-2.64,3.317-3.857,4.957q-.057-1.345-.081-2.688c-.151,1.1-.274,2.212-.382,3.321-1.4,1.907-2.706,3.81-3.936,5.748-.142-.855-.271-1.7-.389-2.538,1.282-2.315,2.683-4.64,4.235-7.052-1.59,1.717-3.082,3.427-4.489,5.156v0q-.774.949-1.512,1.91a43.74,43.74,0,0,1,5.088-11.307c3.346-4.968,4.5-13.1,2.056-19.931a39.854,39.854,0,0,1-10.287,28.265c5.536-7.28,8.679-23.064,6.961-32.98.335,8.081-2.9,22.809-7.866,29.191a54.493,54.493,0,0,0,4.3-32.557,42.014,42.014,0,0,1-7.609,27.818,38.386,38.386,0,0,0-.812-35.186,48.1,48.1,0,0,1-1.4,30.967,40.034,40.034,0,0,0-6.447-34.51,47.391,47.391,0,0,1,3.929,32.111,52.061,52.061,0,0,0-13.115-37.252,69.239,69.239,0,0,1,9.9,32.9A42.634,42.634,0,0,0,243.2,148.513,45.27,45.27,0,0,1,262.377,182c-3.154-7.792-6.1-15.827-11.165-20.7-5.536-5.326-11.122-10.556-18.336-13.2a57.019,57.019,0,0,1,24.6,31.826c-3.932-6.88-7.94-13.859-13.622-19.383s-13.368-9.495-21.273-8.939a46.978,46.978,0,0,1,29.128,25.628c-8.018-11.76-22.092-20.219-35.8-20.264,6.074,1.993,12.19,4.006,17.768,7.128s11.144,7.961,14.1,13.629c-4.97-4.5-10.5-9.545-16.418-12.7s-12.9-4.81-19.4-3.149a47.275,47.275,0,0,1,31.15,15.4c-5.084-3.222-10.214-6.468-15.839-8.612s-11.857-3.131-17.705-1.7a61.647,61.647,0,0,1,31.034,11.77,42.887,42.887,0,0,0-29.042-3.943,91.086,91.086,0,0,1,25.41,4.441A26.973,26.973,0,0,0,210.2,190.013c6.529-5.826,12.567-8.715,21.256-9.748-6.626,2.319-10.468,5.113-15.66,9.835l18.182-9.233a45.693,45.693,0,0,0-15.49,15.482,51.259,51.259,0,0,1,20.537-15.479,59.416,59.416,0,0,0-15.708,15.193c5.643-5.832,12.314-10.9,19.5-15.92a69.642,69.642,0,0,1-16.769,15.438,46.819,46.819,0,0,0,19.913-14.314c-2.828,4.147-9.918,11.439-12.746,15.586a57.054,57.054,0,0,0,11.3-10.925,27.092,27.092,0,0,0-2.3,9.237c1.43-3.459,5.541-11.355,8.8-13.208-2.477,1.676-4.1,7.35-4.276,10.336,1.47-3.792,4.723-9.653,8.6-10.882-1.991,1.464-5.508,6.2-5.961,10.194,1.086-2.977,4.952-6.859,7.871-8.09-2.907,2.107-3.371,3.889-2.887,6.778,1.574-3.142,3.344-6.223,6.084-4.518,1.073.669,1.64,1.855,2.477,2.8a72.067,72.067,0,0,1,12.051,19,32.191,32.191,0,0,0-4.389,10.364c-.656-8.188-4.366-17.185-11.561-21.148,6.412,5.819,9.905,13.228,8.824,21.822-.412-11.081-8.728-19.82-19.406-22.811,8.465,5.9,13.407,14.635,16.553,24.461-4.409-12.289-14.9-21.481-27.913-22.538,11.172,3.767,19.717,12.024,25.1,22.513-6.71-10.56-18.23-17.121-30.731-16.6a40.044,40.044,0,0,1,25.765,16.646,35.939,35.939,0,0,0-34.052-8.584,39.207,39.207,0,0,1,29.811,9.262,39.724,39.724,0,0,0-36.435-1.7,42.113,42.113,0,0,1,29.876,2.767,32.294,32.294,0,0,0-32.607,7.812,42.231,42.231,0,0,1,27.29-6.554,31.943,31.943,0,0,0-16.71,4.12,34.838,34.838,0,0,0-5.841.355c1.3.229,2.592.521,3.871.851-.851.559-1.679,1.154-2.475,1.792a31.076,31.076,0,0,0-7.273,1.061q2.486.492,4.973.986a30.383,30.383,0,0,0-3.2,3.647,35.093,35.093,0,0,1,4.267-3.437l4.894.971c-1.4.81-2.746,1.674-4.036,2.592a27.338,27.338,0,0,0-10.875,6.3,49.746,49.746,0,0,1,6.18-2.461,31.334,31.334,0,0,0-4.049,4.617,35.727,35.727,0,0,1,5.835-5.156,50.673,50.673,0,0,1,7.644-1.539q-1.514,1.331-2.921,2.774a32.1,32.1,0,0,0-11.527,9.138,54.682,54.682,0,0,1,8.359-5.6,52.525,52.525,0,0,0-3.692,5.111,55.757,55.757,0,0,1,7.126-6.839,54.556,54.556,0,0,1,8.776-3.161,33.946,33.946,0,0,0-18.936,20.646,46.338,46.338,0,0,1,16.678-17.1c-.532.683-1.04,1.384-1.532,2.1a48.318,48.318,0,0,0-10.341,20.82,56.616,56.616,0,0,1,8.547-13.838c.378-.054.756-.1,1.136-.134a50.667,50.667,0,0,0-6.86,14.757,60.878,60.878,0,0,1,5.618-10.325,38.786,38.786,0,0,0-1.1,6.033,43.47,43.47,0,0,1,2.758-8.37q.831-1.11,1.708-2.183c.194,0,.389.009.583.014a36.241,36.241,0,0,0-4.794,13.223,22.97,22.97,0,0,0-7.947,7.678,21.672,21.672,0,0,1,10.212-5.988q-.124,1.549-.168,3.1a24.471,24.471,0,0,0-9.66,8.429,27.59,27.59,0,0,1,9.443-6.106q-.511,2.054-1.021,4.109a31.862,31.862,0,0,0-12.59,14.51c5.258-8.669,13.69-14.42,23.807-15.1-9.949,2.515-16.925,10.923-19.031,20.967,3.782-7.791,8.289-13.291,15.974-17.284-10.361,6.156-15.789,16.239-17.286,28.195,2.455-9.24,7.861-18.938,15.225-23.418-7.509,6.17-12.459,16.717-12.607,25.5,1.122-7.423,7.372-17.252,12.572-22.668-4.758,8.427-10.443,20.669-11.24,30.315,3.482-8.257,7.8-19.334,11.278-27.591-2.02,7.364-4.873,17.547-6.895,24.909,1.844-4.45,4.925-14.4,6.769-18.848-.488,4.217-2.21,13.932-2.7,18.149,2.837-11.678,5.011-20.621,7.848-32.3-.728,6.154-.79,9.577-1.518,15.734,1.8-5.6,3.606-13.214,5.407-18.816a44.335,44.335,0,0,0,.084,15.554c-.851-6.515,1.2-14.137,6.258-18.327-2.12,3.579-1.1,7.561,1.509,10.479-.36-7.489.687-11.522,5.551-10.1a25.707,25.707,0,0,1,8.588,4.353,51.77,51.77,0,0,1,9.963,9.862c4.086,5.565,6.45,12.241,7.762,19.02a91.806,91.806,0,0,1,1.287,9.773,2.254,2.254,0,0,1,1.185.579l.609.61,2.2-2.206a2.457,2.457,0,0,1,3.392,0l2.459,2.459.862-.862a2.45,2.45,0,0,1,2.71-.445c-.07.423-.133.848-.194,1.271a1.192,1.192,0,0,0-1.67.02l-.862.862,1.183,1.181a1.1,1.1,0,0,0,.995.954c-.038.439-.059.88-.086,1.319a1.2,1.2,0,0,0-1.688.009l-1.534,1.532,2.108,2.108a2.337,2.337,0,0,1,.383.523,2.585,2.585,0,0,1,.611-.161c0,.4.013.806.023,1.208a1.161,1.161,0,0,0-.511.278l-2.109,2.109,2.851,2.849a2.027,2.027,0,0,1,.178.271c.07.552.157,1.1.243,1.654a1.177,1.177,0,0,0-.618.306l-2.346,2.346,3.067,3.065a2.38,2.38,0,0,1,.421.6,2.489,2.489,0,0,1,.871.156c.183.652.373,1.3.579,1.946l-.579-.579a1.2,1.2,0,0,0-1.7,0l-2.5,2.5,3.248,3.248a2.364,2.364,0,0,1,.672,1.426,12.248,12.248,0,0,1-1.193.414,1.188,1.188,0,0,0-.325-.993l-6.595-6.6a1.2,1.2,0,0,0-1.7,0l-6.6,6.6a1.187,1.187,0,0,0-.29,1.149c7.247,1.928,20.16.38,19.011-3.239a56.659,56.659,0,0,1-1.525-37.831l-2.891.337q.237-3.347.477-6.694c3.913-15.239,7.147-22.6,13.3-32.946-.158,5.92.411,10.6.253,16.521,1.425-5.248,2.849-13.3,4.274-18.546.251,8.454,2.043,19.66,5.262,27.48-1.581-8.278-2.371-19.75-.29-27.917,1.251,8.934,3.554,20.714,4.805,29.648.975-8.778.233-21.463-2.172-29.96,4.22,10.25,8.439,24.22,12.66,34.469-2.174-10.414-5.168-24.048-8.982-33.032,4.26,8.6,7.817,20.68,12.077,29.284-1.4-7.683-3.552-17.1-6.893-24.16,5.577,9.468,9.1,21.917,10.827,32.77a103.466,103.466,0,0,0-6.058-29.148c5.314,11.852,10.452,21.82,13.892,32.43-2.334-8.844-6.079-19.712-8.413-28.555,3.814,8.54,9.038,19.1,12.85,27.645q-3.965-11.509-7.932-23.019c-.86-1.473-1.713-2.937-2.541-4.378,5.857,5.911,12.451,12.556,18.307,18.467-5.493-7.914-12.149-16.5-20.121-21.9,8.982,2,16.863,9.07,22.259,16.524-4.459-7.626-14.411-14.787-22.2-18.961,7.748,1.1,18.334,6.251,22.949,12.572-5.183-8.262-16.967-15.587-26.7-14.945,9-.928,20.114,2.789,28.394,6.429-9.78-7.119-19.28-11.307-31.1-8.742,9.341-4.724,17.477-3.453,26.982.935-10.232-5.163-18.68-7.64-29.645-4.308,11.085-5.1,22.126-4.52,33.428-1.156-11.237-4.69-23.013-6.446-34.8-3.4,9.509-4.352,25.333-3.561,35.141-.688-6.737-4.626-24.605-5.407-33.267-1.873,8.212-3.848,19.865-6.265,28.913-5.672-9.957-2.435-25.082-.312-33.414,5.662,6.9-8.033,21.458-12.94,32.046-13.153-11.217-2.376-27.1,2.5-36.107,12.287,5-9.932,19.25-17.907,29.888-19.658-12.823,1.62-24.25,4.55-33.641,19.4a46.815,46.815,0,0,1,40.629-25.327c-17.384-2.814-37.08,8.432-45.31,25.716,5.42-11.577,15.97-25.841,26.847-32.577a70.827,70.827,0,0,0-28.019,27.462l10.669-23.44c-7.061,9-11.809,18.184-16.408,30.849a11.25,11.25,0,0,0-2.43-5.033c3.138-7.746,6.412-14.21,11.275-20.189,3.884-4.773,8.572-9.079,14.275-11.391a25.489,25.489,0,0,1,34.285,29.872c1.968-3.884,2.029-10.2.832-14.717.955,3.208,2.179,7.588,3.041,10.393.369-6.6-1.239-13.069-6.886-18.352a60.274,60.274,0,0,1,9.253,9.665c-.844-4.255-6.717-9.606-11.622-12.972,3.516,1.324,10.077,5.548,12.52,8.791-2.3-5.231-9.882-10.008-15.332-11.726,4.289.633,10.938,3.242,14.32,6.387a29.056,29.056,0,0,0-17.417-8.633A36.711,36.711,0,0,1,372.335,230.853Zm-145.816,20.23c-.084.118-.159.242-.242.36q-.572.1-1.138.233,1.075-1.266,2.226-2.47Q226.916,250.135,226.519,251.084ZM316.7,266.226a25.8,25.8,0,0,1,7.527,2.172,23.387,23.387,0,0,1,6.613,4.255,32.16,32.16,0,0,1,2.586,2.948,28.246,28.246,0,0,1,2,3.368l-.184.149a32.53,32.53,0,0,1-3.022-2.369c-1.031-.733-1.946-1.57-2.934-2.308-1.017-.7-1.891-1.57-2.9-2.258-.488-.369-.957-.778-1.464-1.118l-1.559-.98a24.245,24.245,0,0,0-6.855-2.688,18.448,18.448,0,0,0-7.429-.267L309,266.9A18.117,18.117,0,0,1,316.7,266.226Zm29.919-56.287q1.508-.156,3.018-.315-1.874,1.043-3.645,2.256c-.421-.05-.844-.086-1.267-.126C345.321,211.138,345.957,210.535,346.615,209.939Zm-2.208,2.136,1.09.134a37.879,37.879,0,0,0-3.686,2.948A30.942,30.942,0,0,1,344.407,212.075Zm-4.248-1.459,1.04-.109c-.4.348-.785.692-1.151,1.034l-.568-.07C339.7,211.188,339.923,210.9,340.16,210.616Zm-.765.971c.209-.007.419-.018.629-.022a26.858,26.858,0,0,0-1.962,2.031A17.986,17.986,0,0,1,339.395,211.587Zm-4.063-1.179c-.208.19-.412.378-.617.57-.514.143-1.03.281-1.541.441Zm-1.852,1.737c-.507.489-1.014.978-1.511,1.479.145-.437.3-.871.453-1.3C332.774,212.254,333.127,212.2,333.48,212.145Zm-1.488-5.683-.082.149c-.306.246-.615.491-.909.74C331.323,207.058,331.656,206.761,331.993,206.462Zm-4.419-11.124c-.792,2.473-1.48,4.984-2.079,7.515-1.55,1.934-3,3.821-4.312,5.583l-.005-.054A77.408,77.408,0,0,1,327.573,195.338Zm1,17.875q-1.08,2.312-2.133,4.756c.23-1.421.47-2.869.717-4.326C327.629,213.494,328.1,213.346,328.573,213.213Zm-10.76-26.159a89.052,89.052,0,0,0-.6,10.189q-1.769,3.527-3.26,7.217-.3-1.14-.583-2.289C314.682,196.954,316.168,191.87,317.813,187.054Zm-.068,21.376c-.183.34-.371.681-.548,1.014.145-.631.3-1.269.471-1.907C317.695,207.834,317.716,208.134,317.745,208.43Zm-5.113-3.26c.116.581.24,1.16.364,1.737-.755,2.013-1.454,4.045-2.082,6.1Q311.706,209.061,312.632,205.169Zm-1.921-20.278a69.2,69.2,0,0,0,.642,12.7,98.724,98.724,0,0,0-3.31,12.045q-.661-.949-1.321-1.9A100.258,100.258,0,0,1,310.711,184.891Zm-3.471,29.175c-.17,1.09-.324,2.174-.45,3.251-.108-1.436-.161-2.909-.179-4.4C306.82,213.3,307.028,213.682,307.239,214.066Zm-3.247-6.124a82.356,82.356,0,0,0-.405,9.239l-.434-.4a107.637,107.637,0,0,1-.85-12.189Q303.137,206.272,303.992,207.942Zm-.3,12.631c-.174-1.054-.326-2.116-.468-3.185.124.314.251.624.384.934C303.631,219.073,303.653,219.824,303.7,220.573Zm-3.489-20.268a104.848,104.848,0,0,0,.143,25.325,181.9,181.9,0,0,1-2.5-30.254Q299.02,197.842,300.207,200.306Zm9.389,20.325a38.5,38.5,0,0,1,7.721-5.869l2.165-1.115c.742-.33,1.5-.622,2.264-.9a27.289,27.289,0,0,1,4.672-1.28l.045.151a75.042,75.042,0,0,0-8.343,4.5,70.23,70.23,0,0,0-7.685,5.455,63.239,63.239,0,0,0-6.753,6.669,60.984,60.984,0,0,0-5.766,7.592l-.138-.077A61.157,61.157,0,0,1,309.6,220.631Zm13.676-5.557c-.237,1.826-.443,3.647-.6,5.45-.228-1.6-.446-3.238-.658-4.885C322.43,215.444,322.849,215.252,323.272,215.073Zm-3.674,5.8c-.448-1.068-.887-2.168-1.321-3.282q.325-.191.654-.376C319.141,218.448,319.36,219.672,319.6,220.874Zm-4.64-1.122c.358-.256.717-.511,1.082-.756.423,1.5.85,2.966,1.265,4.37C316.58,222.217,315.792,221.007,314.958,219.752Zm1.81,9.459q-3.154-2.879-6.31-5.76.74-.691,1.507-1.35C313.479,224.507,315.071,226.88,316.768,229.212Zm-25.522-23.085a114.135,114.135,0,0,0,5.595,36.261,115.607,115.607,0,0,1-8.371-31.637C289.4,209.205,290.331,207.666,291.246,206.127Zm3.713,51.49a11.232,11.232,0,0,1,2.436.613,11.471,11.471,0,0,1,3.473,2.1q-.479,1.452-.943,2.968a20.054,20.054,0,0,0-5.618-2.124Q294.632,259.395,294.959,257.616Zm-3.941-20.4a190.147,190.147,0,0,1-6-20.528q.946-1.715,1.952-3.414A86.847,86.847,0,0,0,291.018,237.217Zm-20.581,11.968a85.933,85.933,0,0,1,.738-13.388,16.563,16.563,0,0,1,1.29,1.1c3.717,3.536,5.7,8.5,7.16,13.423a101.353,101.353,0,0,1,2.611,12.2,20.012,20.012,0,0,0-7.536,6.3,92.871,92.871,0,0,1-3.269-10.127,48.663,48.663,0,0,1-.989-9.323c.312-.2.622-.4.945-.59C271.066,248.908,270.75,249.044,270.437,249.186Zm10.448-1.253c-1.179-3.617-2.513-7.269-2.572-11.072-.059-3.86,1.2-7.608,2.52-11.237.168-.464.351-.924.536-1.385,1.842,10.051,4.649,18.65,8.282,32.532a11.142,11.142,0,0,0-3.782,3.3,11.6,11.6,0,0,1,4.093-2.1c.09.353.181.7.275,1.061a15.843,15.843,0,0,1,.324,1.7,18.508,18.508,0,0,0-4.429.427,18.231,18.231,0,0,0-1.961.572A113.565,113.565,0,0,0,280.885,247.933Zm-2.025-26.306c.469-.889,1.013-1.928,1.6-3.052.023.17.048.339.073.509C279.89,220.014,279.319,220.874,278.86,221.627Zm8.217-15.769c-.09,1.5-.133,3.011-.143,4.518-.864,1.147-1.722,2.289-2.554,3.4-.138-.656-.274-1.312-.4-1.962C285.007,209.838,286.061,207.811,287.077,205.858Zm-3.343,13.234a200.8,200.8,0,0,0,4.224,23.148c-1.946-6.593-4.013-13.305-5.841-19.779C282.62,221.33,283.163,220.208,283.734,219.091Zm-.575-5.7c.048.6.108,1.2.163,1.806-.831,1.127-1.609,2.2-2.317,3.21l-.156-.581C281.568,216.453,282.349,214.953,283.159,213.4Zm-.378-7.088q.037,1.454.111,2.937c-1.036,1.672-2.017,3.371-2.943,5.12l0-.007v.009A87.232,87.232,0,0,0,275.2,225,85.2,85.2,0,0,1,282.781,206.308Zm-6.927,3.4c.344.868.676,1.74.984,2.62a64.924,64.924,0,0,0-4.391,8.615A52.106,52.106,0,0,1,275.854,209.709Zm-21.54,18.318a21.793,21.793,0,0,1,11.608,2.115,29.553,29.553,0,0,1,9.172,6.968l-.231.215a30.219,30.219,0,0,0-9.554-5.728,19.722,19.722,0,0,0-10.64-1.068c-3.527.631-6.558,2.561-9.508,4.549a91,91,0,0,0-8.629,7.075l-.254-.185a25.387,25.387,0,0,1,6.964-9.4A19.937,19.937,0,0,1,254.314,228.027Zm15.565,6.862a55.549,55.549,0,0,0-1.129,10.2c-.029-2.726-.559-7.085-1.077-11.4A18.378,18.378,0,0,1,269.879,234.889ZM237.333,252.1c-.6-.181-1.2-.333-1.812-.466.226-.744.47-1.48.746-2.21a30.971,30.971,0,0,1,2.2-4.6,32.222,32.222,0,0,1,6.568-5.214q-2.833,4.731-5.665,9.463a17.884,17.884,0,0,1,9.412-5.923,39.537,39.537,0,0,0-9.791,9.529c-.484-.19-.973-.367-1.468-.522q.922-1.543,1.846-3.084A17.508,17.508,0,0,0,237.333,252.1Zm9.685-16.483a23.952,23.952,0,0,1,2.077-1.235q2.116,3.836,4.23,7.674A35.407,35.407,0,0,0,247.018,235.621Zm8.149,8.964a26.775,26.775,0,0,0-11.282,10.721c-.545-.369-1.1-.73-1.683-1.072a21.957,21.957,0,0,0-2.4-1.219A31.035,31.035,0,0,1,255.167,244.585Zm-.47-12.232a21.745,21.745,0,0,1,5.448-.443c1.231,5.206,2.509,10.527,2.8,13.362a35.319,35.319,0,0,0-6.608-11.246A18.08,18.08,0,0,0,254.7,232.353Zm7.769-.222a20.337,20.337,0,0,1,3.928,1.023,46.047,46.047,0,0,1-.314,8.189C265.374,239.526,263.959,235.931,262.467,232.131ZM236.4,229.7c.64-.222,1.271-.435,1.887-.636-.541.235-1.077.482-1.609.737C236.591,229.762,236.5,229.731,236.4,229.7Zm6.565-3.308a59.08,59.08,0,0,0-9.09,2.486,37.993,37.993,0,0,0-4.993-1.082A36.072,36.072,0,0,1,242.969,226.389Zm-9.656,35.874a11.092,11.092,0,0,0-1.7.034l1.824-9.783.165.043A59.148,59.148,0,0,0,233.313,262.263Zm.285,3.575c.075.658.177,1.31.274,1.964a18.862,18.862,0,0,0-3.355.394q.213-1.137.425-2.278A26.342,26.342,0,0,1,233.6,265.839Zm.071-14.538.043-.235c.027-.047.057-.091.084-.14-.018.129-.027.258-.045.387Zm-1.477-19.09-.283.17c-.434-.161-.871-.31-1.31-.452.174-.074.349-.15.525-.222C231.483,231.869,231.84,232.036,232.193,232.21Zm-9.812-1.767c.792-.416,1.6-.792,2.425-1.151q2.169.672,4.272,1.529c-.312.14-.62.287-.93.432A32.238,32.238,0,0,0,222.381,230.443Zm1.05,4.889c.8-.43,1.615-.842,2.432-1.246q1.333.266,2.667.529c-.169.12-.341.237-.507.358A27.969,27.969,0,0,0,223.431,235.332Zm3.686,3.344c.574-.359,1.153-.7,1.737-1.04q2.073-.064,4.142.047l-.054.052A31.237,31.237,0,0,0,227.117,238.676Zm4.526,16-.025.221q-.137.559-.278,1.122c.068-.179.143-.355.213-.532l-.758,6.921c-.029.005-.059.005-.088.013-.556.113-1.1.256-1.649.412Zm-3-3.534c.351-.418.715-.824,1.079-1.231-.066.185-.125.373-.19.559-.143.215-.292.427-.43.643C228.948,251.125,228.795,251.134,228.643,251.145Zm1.763,14.818q-.126,1.164-.254,2.326c-.246.061-.493.12-.729.192a23.442,23.442,0,0,0-2.437.9l.97-3.061C228.765,266.165,229.584,266.043,230.406,265.962Zm-5.683-1.375q1.261-2.852,2.523-5.7-.489,2.42-.8,4.875C225.863,264.011,225.288,264.288,224.723,264.588Zm.095,11.638,1.332-4.2a24.357,24.357,0,0,1,3.706-1.031l-.2,1.814.346-1.848a24.069,24.069,0,0,1,4.35-.391c.079.4.142.8.229,1.192q-.1-.594-.179-1.192a24.387,24.387,0,0,1,7.3,1.116A29.828,29.828,0,0,0,224.818,276.226Zm9.266-8.425q-.086-.973-.138-1.948a24.26,24.26,0,0,1,13.7,4.608A35.707,35.707,0,0,0,234.084,267.8Zm-.192-5.488a40.5,40.5,0,0,1,1.24-9.294c.505.176,1.005.371,1.5.584-.032.074-.066.147-.1.222.043-.07.084-.14.125-.21.385.167.765.341,1.138.53.043.022.088.052.131.073a38.875,38.875,0,0,0-2.344,4.077,29.839,29.839,0,0,1,2.828-3.8,20.764,20.764,0,0,1,4.168,3.45c-.043.1-.091.2-.134.3l.188-.246a38.919,38.919,0,0,1,7.835,11.95C246.247,267,239.52,262.876,233.892,262.313Zm19.065,6.156a19.971,19.971,0,0,0-8.526-12.787,27.042,27.042,0,0,1,6.441-6.169,13.728,13.728,0,0,1,6.416-2.138C253.923,252.24,252.223,262.442,252.957,268.47Zm2.715-3.749c-.362-3.5.307-13.3,1.887-17.356a9.346,9.346,0,0,1,4.9,1.1,11.109,11.109,0,0,1,3.592,3.366,21.749,21.749,0,0,0-7.515,11.056l1.122-7.4Q257.663,260.1,255.672,264.72ZM280.4,300.44c-2.394-6.864-6.556-12.194-12.225-17.651-1.93-1.857-4.617-2.858-6.289-4.948-2.088-2.607-2.679-6.138-2.5-9.473a24.6,24.6,0,0,1,7.145-15.823,34.872,34.872,0,0,1,1.916,3.445A96.658,96.658,0,0,1,273.7,270.36a18.582,18.582,0,0,0-1.86,4.285c.778-.85,1.568-1.694,2.378-2.518,3.617,12.508,7.038,28.273,9.427,40.8q.008.664.016,1.331A79.746,79.746,0,0,0,280.4,300.44Zm4.916-6.592-1.89.027q.03,2.455.057,4.909c-1.978-7.991-3.947-15.214-4.921-18.768-.755-2.749-1.907-5.9-3.093-9.117a33.49,33.49,0,0,1,5.843-4.6q.68-.409,1.391-.773c1.563,10.649,2.676,23.591,3.38,35.516Q285.694,297.448,285.313,293.849Zm2.33-7.359c-.8-7.606-1.8-15.142-2.95-21.847a17.34,17.34,0,0,1,6.083-1.224C290.948,270.323,288.755,279.438,287.643,286.49Zm3.432,14.676-.272-.02q-.753,2.973-1.509,5.95c-.229-4.276-.55-8.789-.952-13.371q2.748-15,5.5-29.994a12.243,12.243,0,0,1,5.2,2.561C295.834,277.38,293.179,290.175,291.075,301.166ZM297.7,286.7c-.532,1.016-1.066,2.122-1.6,3.3,1.71-8.694,3.324-16.865,4.64-21.9a9.343,9.343,0,0,1,1.645,3.446C303.644,276.81,300.21,281.895,297.7,286.7Zm7.119-19.465a18.4,18.4,0,0,0-3-2.719v0c.287-.756.57-1.5.855-2.228A11.7,11.7,0,0,1,304.818,267.233Zm.471-18.115a80.442,80.442,0,0,0-3.484,8.465,11.107,11.107,0,0,0-4.3-2,10.644,10.644,0,0,0-2.127-.233c1.095-5.88,2.328-11.762,4.7-17.239a43.556,43.556,0,0,1,4.792-8.35c2.708,2.6,5.518,5.658,5.825,7.644C311.321,241.438,308.031,243.528,305.289,249.118ZM349.6,225.251c-.864-.151-1.7-.353-2.547-.527a21.316,21.316,0,0,0-2.505-.539,34.722,34.722,0,0,0-5.047-.516,28.294,28.294,0,0,0-9.966,1.052,26.617,26.617,0,0,0-8.938,4.755,31.738,31.738,0,0,0-6.92,7.565l-.138-.075a29.45,29.45,0,0,1,1.969-3.011c-2.12-.919-6.16-3.371-9.7-5.427q1.024-1.307,2.142-2.531a39.439,39.439,0,0,0,7.6,7.907,33.408,33.408,0,0,1,4.543-5.034,27.623,27.623,0,0,1,9.044-5.346,23.007,23.007,0,0,1,10.473-1.43,13.712,13.712,0,0,1,2.624.4c.86.206,1.724.384,2.572.622a41.8,41.8,0,0,1,4.853,1.991Z" transform="translate(-45.39 -66.66)"/></g></g><g class="c" transform="matrix(1, 0, 0, 1, 111.6, 98.02)"><path class="a" d="M550.416,303.961l1.319,10.38,18.055-7.366Zm30.711,10.92L540.32,332.021,538.754,319.7l8.877-3.674L546.014,303.3l-9.54-1.527-.609-4.8,43.893,7.14Zm-5.615-34.822-40.392,13.667L531.288,282.4l28.078-9.5-30.739,1.638-2.21-6.531,24.874-17.415-27.6,9.341L522.354,256l40.392-13.669,4.021,11.891L544.7,269.392l26.736-1.364Zm-28.177-63.987-32.292,20.7,9.454,14.748-3.606,2.31L504.778,228.7l35.9-23.015Zm-51.536-19.2,6.852,7.909L513.6,188.645Zm31.614-7.932-24.467,36.883-8.133-9.391,5.353-7.977-8.4-9.7-8.785,4.016-3.169-3.656,40.493-18.384ZM474.452,168.9l2.265,1.611q5.5,3.911,10.678-3.376,4.863-6.836-.636-10.742l-2.267-1.611Zm-22.431,10.251,24.712-34.75,14.961,10.638q12.753,9.067,5.477,19.309-7.355,10.342-21.535.258l-3.482-2.475L462.077,186.3Zm-8.853-52.95-1.373,4.057-14.474-4.9L423.183,137.6l12.171,4.119-1.373,4.057-12.172-4.118L416.4,157.642l16.956,5.737-1.373,4.058-28.644-9.692,13.667-40.392Zm-68.447,22.684,3.224.409a6.186,6.186,0,0,0,6.6-3.048q2.183-3.624,3.462-13.642c.848-6.671.875-11.361.077-14.04a6.181,6.181,0,0,0-5.645-4.6l-3.224-.409Zm-12.683,1.932,5.375-42.3,17.5,2.226q18.646,2.368,15.953,23.562-2.68,21.1-22,18.653Zm-51.244-8.773,10.3-1.839-8.262-17.66Zm9.361-31.22,19.171,39.894L327.1,152.9l-4.116-8.681-12.628,2.256-1.046,9.6-4.762.85,4.925-44.2ZM273.263,142.96l2.319-.914q6.543-2.581,3.846-9.42t-9.238-4.26l-2.321.914Zm-2.685,26.829-15.642-39.67,17.031-6.713q6.646-2.621,11.732-1.385a9.431,9.431,0,0,1,6.956,5.963q2.841,7.21-4.839,12.766,5.029-.094,7.086,1.33t4.728,6.852q3.183,6.46,5.708,7.943l-12.479,4.92a18.668,18.668,0,0,1-3.9-6.411l-.986-2.324-1.224-2.93q-2.7-6.855-8.223-4.674l-1.971.778,7.5,19.033Zm-28.992-32.68,15.452,24.1q7.944,12.39-5.756,21.167-13.643,8.748-21.585-3.64l-15.452-24.1,10.387-6.66,15.653,24.417q3.035,4.737,5.5,5.6t6.122-1.484q7.092-4.546,1.629-13.056l-15.452-24.1Zm-27.75,71.531,2.242-2.353a6.188,6.188,0,0,0,1.457-7.119q-1.618-3.906-8.925-10.88T197.353,179.9a6.181,6.181,0,0,0-7.05,1.819l-2.242,2.351ZM207.866,220,177,190.571,189.179,177.8q12.968-13.6,28.431,1.138,15.4,14.681,1.961,28.781ZM172.075,230.44l1.346-2.1q3.793-5.919-2.395-9.888T161.04,220.4l-1.346,2.1ZM185.6,253.766l-35.9-23.013,9.88-15.411q3.855-6.016,8.7-7.99a9.421,9.421,0,0,1,9.127.765q6.527,4.183,3.547,13.183,4.027-3.019,6.525-3.07,2.514-.038,7.845,2.789,6.36,3.376,9.276,3.1l-7.239,11.295a18.727,18.727,0,0,1-6.916-2.916l-2.161-1.308-2.706-1.66q-6.2-3.978-9.4,1.021l-1.145,1.785,17.223,11.042Zm-46.4,10.251c-.747,2.21-.036,4.127,2.135,5.728s6.7,3.572,13.6,5.907,11.7,3.52,14.395,3.566,4.425-1.045,5.174-3.255.036-4.129-2.134-5.73-6.7-3.57-13.6-5.907q-10.325-3.492-14.386-3.563C141.674,260.716,139.943,261.805,139.2,264.017Zm-3.1-1.409q5.968-17.64,26.829-10.574t14.787,25.015Q171.633,295,150.3,287.785,129.9,280.884,136.095,262.608Zm9.176,50.945,2.217-17.442,22.831,2.9-.495,3.9-3.075.961a18.616,18.616,0,0,1,2.229,11.273q-1.2,9.4-7.479,13.882t-16.493,3.178q-9.941-1.264-15.39-7.551a18.547,18.547,0,0,1-4.321-15.18q1.489-11.718,13.8-12.735l1.891,6.083-1.025-.131-2.3-.194c-5.049-.246-7.837,1.753-8.373,5.97q-.594,4.661,3.154,6.868t14.56,3.59q10.1,1.285,13.9.36a5.228,5.228,0,0,0,4.3-4.814q.581-4.567-4.493-5.212l-10.4-1.323-.782,6.153Z" transform="translate(-111.6 -98.02)"/></g><g class="b" transform="matrix(1, 0, 0, 1, 111.6, 98.02)"><path class="a" d="M474.089,276.6h-3.683l6.079-11.4h12.29Zm-13.255,44.541h14.35l-6.9-25.836ZM481,281.242l16.264,58.484h-17.04l-3.463-12.714H459.169l-3.728,12.714h-6.635l17.3-58.484Zm-64.986,25.6h3.42q9.643,0,9.645-10.084t-9.645-10.083h-3.42Zm-16.924,32.88V281.242H424.2q9.8,0,15.665,4.136a12.93,12.93,0,0,1,5.875,11.106c0,7.088-4.194,11.721-12.6,13.854q6.468,2.411,8.373,5.262,1.909,2.872,2.588,11.121.809,9.842,3.287,13.006h-18.4a25.671,25.671,0,0,1-1.753-10.142l-.088-3.464-.088-4.353q0-10.105-8.14-10.1h-2.907v28.059Zm-41.048-18.589h14.35L365.5,295.3Zm20.166-39.9,16.266,58.484h-17.04l-3.464-12.714H356.377l-3.726,12.714h-6.635l17.3-58.484Zm-61.947,29.2h3.815q9.248,0,9.25-12.261,0-11.508-9.25-11.5h-3.815ZM299.34,339.726V281.242h25.178q21.461,0,21.469,17.23,0,17.406-23.865,17.4h-5.86v23.851Zm-35.5-58.484v39.266q0,20.189-22.315,20.182-22.227,0-22.229-20.182V281.242h16.924v39.779q0,7.715,2.206,10.536c1.477,1.884,4.194,2.821,8.169,2.821q11.551,0,11.545-13.87V281.242ZM179.291,334.9h4.457q6.094,0,8.447-5.29t2.353-19.159c0-9.221-.774-15.606-2.324-19.113s-4.384-5.276-8.475-5.276h-4.457Zm-16.922,4.823V281.242h24.2q25.778,0,25.777,29.3,0,29.176-26.712,29.184Z" transform="translate(-82.08 26.11)"/></g></g></svg>