<svg xmlns="http://www.w3.org/2000/svg" width="175.062" height="163.263" viewBox="0 0 175.062 163.263"><defs><style>.a{fill:#8B8B8B;}</style></defs><g transform="translate(-299.65 -338.966)"><g transform="translate(299.65 338.966)"><path class="a" d="M314.448,391.52a30.047,30.047,0,0,1-.536,4.066c-.276,1.377-.616,2.765-1.02,4.175a25.86,25.86,0,0,1-1.542,4.127,15.325,15.325,0,0,1-2.012,3.224,7.881,7.881,0,0,1-2.443,2.035,4.449,4.449,0,0,1-2.788.464,4.125,4.125,0,0,1-2.491-1.359,7.245,7.245,0,0,1-1.536-3,14.27,14.27,0,0,1-.414-4.258,21.465,21.465,0,0,1,.842-5.036,24.968,24.968,0,0,1,1.864-4.73,11.161,11.161,0,0,1,2.51-3.267q.342,2,.763,3.964a7.323,7.323,0,0,0-1.534,1.828,12.192,12.192,0,0,0-1.206,2.94,11.747,11.747,0,0,0-.478,2.893,7.766,7.766,0,0,0,.269,2.391,4.1,4.1,0,0,0,.913,1.69,2.745,2.745,0,0,0,1.441.83,2.8,2.8,0,0,0,1.655-.127,4.288,4.288,0,0,0,1.517-1.042,8.027,8.027,0,0,0,1.292-1.819,12.649,12.649,0,0,0,.982-2.488,16.771,16.771,0,0,0,.549-2.505,16.047,16.047,0,0,0,.145-1.751l-1.883-.686q-.6,1.773-1.141,3.6l-2.393-.753q1.207-4.105,2.732-7.933Z" transform="translate(-299.65 -330.974)"/><path class="a" d="M311.261,388.763a3.051,3.051,0,0,1-1.4-1.342,4.972,4.972,0,0,1-.55-2.132,8.5,8.5,0,0,1,.323-2.654,12.219,12.219,0,0,1,1.183-2.84,11.911,11.911,0,0,1,1.805-2.437,7.667,7.667,0,0,1,2.053-1.55,4.522,4.522,0,0,1,2.045-.515,3.057,3.057,0,0,1,1.82.6,3.3,3.3,0,0,1,1.184,1.525,5.128,5.128,0,0,1,.326,2.047,8.614,8.614,0,0,1-.439,2.373,13.329,13.329,0,0,1-1.119,2.515,13.684,13.684,0,0,1-1.589,2.267,8.77,8.77,0,0,1-1.82,1.624,5.066,5.066,0,0,1-1.925.786A3.078,3.078,0,0,1,311.261,388.763Zm1.82-3.78a1.794,1.794,0,0,0,1.763-.017,5.348,5.348,0,0,0,2.345-4.141,1.888,1.888,0,0,0-.87-1.562,1.752,1.752,0,0,0-1.764-.106,4.089,4.089,0,0,0-1.755,1.817,4.287,4.287,0,0,0-.677,2.48A1.821,1.821,0,0,0,313.081,384.983Z" transform="translate(-298.077 -333.041)"/><path class="a" d="M315.989,372.316q1.261-1.663,2.592-3.242l1.04.89.035-.042a4.017,4.017,0,0,1,.12-1.955,5.319,5.319,0,0,1,1.229-1.954c.163-.173.33-.341.5-.506a4.949,4.949,0,0,1,.5-.427l1.732,1.669a7.264,7.264,0,0,0-.672.516,7.734,7.734,0,0,0-.621.6,5.8,5.8,0,0,0-1.057,1.492,2.3,2.3,0,0,0-.23,1.163,1.789,1.789,0,0,0,.385.943,6.04,6.04,0,0,0,.812.834l2.707,2.315q-1.2,1.429-2.344,2.93Z" transform="translate(-296.986 -334.707)"/><path class="a" d="M337.833,363.721q-1.359.954-2.681,1.974l-.694-.884-.038.03a3.678,3.678,0,0,1-.165.718,4.686,4.686,0,0,1-.378.849,6.722,6.722,0,0,1-.607.9,6.079,6.079,0,0,1-.821.849,9.264,9.264,0,0,1-2,1.334,6.328,6.328,0,0,1-1.982.6,4.4,4.4,0,0,1-1.844-.154,3.839,3.839,0,0,1-2.476-2.452,4.31,4.31,0,0,1-.176-1.85,5.466,5.466,0,0,1,.668-2.01,7.049,7.049,0,0,1,1.62-1.947,9.264,9.264,0,0,1,1.967-1.315,3.856,3.856,0,0,1,1.933-.428l.042-.033q-1.755-2.214-3.507-4.428,1.67-1.3,3.392-2.508Zm-5.315-1.378a1.836,1.836,0,0,0-1.61-.725,4.519,4.519,0,0,0-3.535,2.953,1.817,1.817,0,0,0,.439,1.7,1.9,1.9,0,0,0,1.642.626,3.8,3.8,0,0,0,2.072-.994,3.714,3.714,0,0,0,1.335-1.85A1.871,1.871,0,0,0,332.517,362.343Z" transform="translate(-295.689 -336.682)"/><path class="a" d="M349.047,356.993q-1.568.7-3.109,1.468l-.534-1.024-.044.022a3.126,3.126,0,0,1-.214.656,3.288,3.288,0,0,1-.444.72,5.4,5.4,0,0,1-.716.734,5.967,5.967,0,0,1-.986.678,7.313,7.313,0,0,1-2.076.841,3.3,3.3,0,0,1-1.588-.032,2.908,2.908,0,0,1-1.232-.737,7.526,7.526,0,0,1-1.007-1.25l-2.568-3.932q1.684-1.064,3.411-2.045,1.061,1.794,2.119,3.588c.126.211.267.422.42.637a1.877,1.877,0,0,0,.564.516,1.475,1.475,0,0,0,.768.191,2.418,2.418,0,0,0,1.065-.341,3.131,3.131,0,0,0,.933-.7,1.575,1.575,0,0,0,.371-.742,1.6,1.6,0,0,0-.045-.75,4.3,4.3,0,0,0-.308-.747q-.982-1.874-1.967-3.749,1.773-.89,3.581-1.7Q347.244,353.145,349.047,356.993Z" transform="translate(-293.962 -337.28)"/><path class="a" d="M346.837,348.49q1.839-.729,3.707-1.376.236.639.47,1.278l.05-.017a3.748,3.748,0,0,1,1.014-1.583,4.973,4.973,0,0,1,1.963-1.028c.219-.064.443-.123.664-.178a4.979,4.979,0,0,1,.629-.109q.347,1.145.693,2.285a7.074,7.074,0,0,0-.817.1,7.356,7.356,0,0,0-.813.2,5.436,5.436,0,0,0-1.6.725,2.141,2.141,0,0,0-.74.862,1.758,1.758,0,0,0-.114.989,6.123,6.123,0,0,0,.3,1.114q.611,1.664,1.22,3.326-1.687.584-3.351,1.243Q348.478,352.406,346.837,348.49Z" transform="translate(-291.954 -337.904)"/><path class="a" d="M365.414,350.88l-.046.008a3.44,3.44,0,0,1-1.393,1.231,8.178,8.178,0,0,1-3.542.862,4.977,4.977,0,0,1-1.412-.176,2.908,2.908,0,0,1-1.1-.568,1.967,1.967,0,0,1-.633-1.006,1.927,1.927,0,0,1,.042-1.289,2.794,2.794,0,0,1,.8-1.063,5.842,5.842,0,0,1,1.36-.847,13.512,13.512,0,0,1,1.687-.64q.89-.27,1.8-.455t1.686-.309a1.24,1.24,0,0,0-.914-.968,3.444,3.444,0,0,0-1.792-.091,5.057,5.057,0,0,0-1.653.608,4.632,4.632,0,0,0-1.2,1.021q-1.165-.466-2.36-.9a7.64,7.64,0,0,1,2.244-1.579,11.865,11.865,0,0,1,2.923-.946,10.582,10.582,0,0,1,2.871-.2,4.34,4.34,0,0,1,1.895.576,2.866,2.866,0,0,1,1.1,1.232,6.174,6.174,0,0,1,.5,1.823q.284,2.13.566,4.259-1.63.2-3.252.466C365.536,351.578,365.475,351.229,365.414,350.88Zm-1.367-2.452c-.277.051-.625.117-1.036.213a6.631,6.631,0,0,0-1.168.378,3.049,3.049,0,0,0-.893.557.741.741,0,0,0-.245.748.765.765,0,0,0,.706.561,3.26,3.26,0,0,0,1.192-.012,5.355,5.355,0,0,0,.993-.3,3.829,3.829,0,0,0,.82-.448,1.76,1.76,0,0,0,.528-.584,1.082,1.082,0,0,0,.109-.723c-.033-.183-.064-.365-.1-.548C364.653,348.325,364.351,348.375,364.047,348.428Z" transform="translate(-290.337 -338.22)"/><path class="a" d="M388.673,352.481q-1.626-.241-3.26-.419c.044-.369.086-.737.13-1.106l-.049-.006a3.722,3.722,0,0,1-.614.4,4.623,4.623,0,0,1-.855.345,6.6,6.6,0,0,1-1.05.223,5.5,5.5,0,0,1-1.16.037,8.756,8.756,0,0,1-2.312-.443,6.036,6.036,0,0,1-1.782-.955,4.3,4.3,0,0,1-1.164-1.4,3.861,3.861,0,0,1-.021-3.451,4.278,4.278,0,0,1,1.15-1.423,5.361,5.361,0,0,1,1.845-.953,6.957,6.957,0,0,1,2.468-.255,9.087,9.087,0,0,1,2.282.422,3.739,3.739,0,0,1,1.647,1.022l.051.006.632-5.565q2.071.218,4.131.525Zm-2.768-4.618a1.793,1.793,0,0,0-.621-1.621,3.616,3.616,0,0,0-2.2-.786,3.659,3.659,0,0,0-2.3.448,1.815,1.815,0,0,0-.873,1.51,1.868,1.868,0,0,0,.706,1.581,4.487,4.487,0,0,0,4.344.327A1.906,1.906,0,0,0,385.905,347.864Z" transform="translate(-287.175 -338.966)"/><path class="a" d="M401.045,353.547a6.515,6.515,0,0,1-2.486.5,9.656,9.656,0,0,1-2.738-.334,11.024,11.024,0,0,1-2.351-.921,7.268,7.268,0,0,1-1.8-1.324,4.736,4.736,0,0,1-1.073-1.648,3.352,3.352,0,0,1-.143-1.889,3.22,3.22,0,0,1,.891-1.69,4.552,4.552,0,0,1,1.755-1.073,7.287,7.287,0,0,1,2.405-.379,10.6,10.6,0,0,1,2.777.381,8.37,8.37,0,0,1,2.306.983,5.148,5.148,0,0,1,1.518,1.413,3.742,3.742,0,0,1,.653,1.693,3.973,3.973,0,0,1-.237,1.854q-.141.386-.28.771a85.829,85.829,0,0,0-8.306-2.383,2.057,2.057,0,0,0,.64,1.381,3.531,3.531,0,0,0,1.633.877,3.81,3.81,0,0,0,1.55.133,4.238,4.238,0,0,0,1.27-.4Q400.062,352.508,401.045,353.547Zm-1.823-4.485a1.267,1.267,0,0,0-.279-1.262,2.809,2.809,0,0,0-1.532-.91,4,4,0,0,0-1.138-.151,3.224,3.224,0,0,0-.9.144,1.808,1.808,0,0,0-.648.364,1.26,1.26,0,0,0-.357.534Q396.811,348.353,399.222,349.062Z" transform="translate(-284.853 -338.016)"/><path class="a" d="M414.349,348.047q3.233,1.65,6.334,3.565a17.948,17.948,0,0,1,2.331,1.7,8.125,8.125,0,0,1,1.6,1.828,3.838,3.838,0,0,1,.606,1.861,2.781,2.781,0,0,1-.637,1.806,3.125,3.125,0,0,1-1.524,1.142,3.885,3.885,0,0,1-1.857.112,8.225,8.225,0,0,1-2.115-.7,23.132,23.132,0,0,1-2.331-1.282q-1.23-.766-2.487-1.484-1.237,2.076-2.472,4.153-1.621-.928-3.282-1.775Q411.432,353.512,414.349,348.047Zm1.1,6.566q1.176.673,2.333,1.388a9.062,9.062,0,0,0,.936.5,3.878,3.878,0,0,0,.9.3,1.769,1.769,0,0,0,.806-.016,1.107,1.107,0,0,0,.62-.462.941.941,0,0,0,.151-.814,2.218,2.218,0,0,0-.471-.841,5.035,5.035,0,0,0-.882-.8c-.349-.254-.694-.48-1.033-.689q-.925-.56-1.86-1.1Z" transform="translate(-281.894 -337.485)"/><path class="a" d="M425.91,369.6l-.035-.035a3.64,3.64,0,0,1-1.864-.426,8.336,8.336,0,0,1-1.777-1.217,8.2,8.2,0,0,1-1.092-1.165,5.042,5.042,0,0,1-.715-1.246,2.847,2.847,0,0,1-.2-1.222,1.938,1.938,0,0,1,.443-1.1,1.967,1.967,0,0,1,1.087-.727,2.945,2.945,0,0,1,1.367.021,6.152,6.152,0,0,1,1.527.6,13.262,13.262,0,0,1,1.555,1c.507.378,1,.779,1.472,1.2s.9.829,1.283,1.208a1.23,1.23,0,0,0,.241-1.321,3.573,3.573,0,0,0-1.019-1.526,5.149,5.149,0,0,0-1.509-.992,4.8,4.8,0,0,0-1.573-.373q-.326-1.22-.694-2.441a7.919,7.919,0,0,1,2.669.885,12.13,12.13,0,0,1,2.561,1.828,10.84,10.84,0,0,1,1.917,2.247,4.511,4.511,0,0,1,.679,1.91,2.886,2.886,0,0,1-.344,1.64,6.016,6.016,0,0,1-1.2,1.483l-3.165,2.962q-1.158-1.247-2.367-2.432Zm1.189-2.565c-.21-.2-.48-.444-.808-.727a6.947,6.947,0,0,0-1.022-.734,3.237,3.237,0,0,0-1-.4.741.741,0,0,0-.8,1.146,3.286,3.286,0,0,0,.737.965,5.573,5.573,0,0,0,.849.641,4.136,4.136,0,0,0,.868.412,1.836,1.836,0,0,0,.8.093,1.084,1.084,0,0,0,.663-.334l.393-.4Q427.441,367.366,427.1,367.039Z" transform="translate(-279.986 -335.561)"/><path class="a" d="M438.383,365.6q1.408,1.656,2.745,3.4L430.7,377.183q-1.146-1.5-2.354-2.916Z" transform="translate(-278.661 -334.622)"/><path class="a" d="M439.112,373.792q1.15,1.663,2.233,3.4l-.97.628.029.048a2.392,2.392,0,0,1,.708.215,4.007,4.007,0,0,1,.826.52,6.371,6.371,0,0,1,.863.847,7.116,7.116,0,0,1,.815,1.191,7.849,7.849,0,0,1,.919,2.494,3.327,3.327,0,0,1-.244,2.081,3.915,3.915,0,0,1,1.837,1.131,8.1,8.1,0,0,1,1.415,2.319,8.437,8.437,0,0,1,.678,2.405,4.2,4.2,0,0,1-.155,1.789,2.866,2.866,0,0,1-.8,1.214,4.082,4.082,0,0,1-1.256.756l-4.669,1.8q-.7-1.945-1.485-3.817l4.512-2.013a1.434,1.434,0,0,0,.769-.8,2.07,2.07,0,0,0-.207-1.55,4.337,4.337,0,0,0-.652-1.078,2.014,2.014,0,0,0-.71-.544,1.41,1.41,0,0,0-.728-.108,2.1,2.1,0,0,0-.709.219l-4,2.044q-.865-1.794-1.806-3.511l3.9-2.241c.131-.076.286-.18.472-.3a1.572,1.572,0,0,0,.451-.486,1.348,1.348,0,0,0,.173-.733,2.292,2.292,0,0,0-.366-1.071,3.662,3.662,0,0,0-.822-1.035,1.7,1.7,0,0,0-.81-.391,1.519,1.519,0,0,0-.763.08,3.692,3.692,0,0,0-.72.368l-3.563,2.3q-1.015-1.64-2.1-3.207Z" transform="translate(-278.035 -333.286)"/><path class="a" d="M444.246,405.188l-.013-.058a4.6,4.6,0,0,1-1.363-1.706,11.942,11.942,0,0,1-.879-2.388,11.768,11.768,0,0,1-.324-1.854,6.628,6.628,0,0,1,.036-1.663,3.351,3.351,0,0,1,.462-1.289,1.8,1.8,0,0,1,.951-.746,1.724,1.724,0,0,1,1.307.036,3.232,3.232,0,0,1,1.158.932,7.857,7.857,0,0,1,.991,1.6,17.533,17.533,0,0,1,.807,2.009c.24.708.447,1.435.625,2.172s.332,1.422.461,2.062c.454-.1.753-.466.9-1.117a4.937,4.937,0,0,0-.07-2.18,7.137,7.137,0,0,0-.768-1.984,5.783,5.783,0,0,0-1.147-1.421q.354-1.382.675-2.78a9.786,9.786,0,0,1,1.82,2.632,16.256,16.256,0,0,1,1.229,3.5,15.333,15.333,0,0,1,.456,3.51,6.054,6.054,0,0,1-.426,2.347,2.908,2.908,0,0,1-1.155,1.37,4.914,4.914,0,0,1-1.795.614l-4.241.671q-.326-2.057-.733-4.051Zm2.352-1.663c-.073-.337-.176-.761-.307-1.262a9.886,9.886,0,0,0-.488-1.409,4.14,4.14,0,0,0-.648-1.069.734.734,0,0,0-.778-.291c-.3.086-.464.369-.5.843a4.7,4.7,0,0,0,.124,1.431,8.251,8.251,0,0,0,.388,1.2,5.846,5.846,0,0,0,.525,1,2.178,2.178,0,0,0,.634.648.961.961,0,0,0,.739.138c.181-.04.363-.077.544-.115Q446.718,404.08,446.6,403.525Z" transform="translate(-276.494 -329.858)"/><g transform="translate(34.473 119.867)"><g transform="translate(0 6.348)"><path class="a" d="M329.547,447.74h5.432a15.56,15.56,0,0,1,3.75.441,8.572,8.572,0,0,1,3.1,1.428,6.984,6.984,0,0,1,2.1,2.565,8.616,8.616,0,0,1,.778,3.83,7.8,7.8,0,0,1-.756,3.516,7.546,7.546,0,0,1-2.03,2.554,8.986,8.986,0,0,1-2.948,1.567,11.454,11.454,0,0,1-3.506.534h-5.919Zm3.622,13.092h1.881a10.085,10.085,0,0,0,2.332-.256,4.988,4.988,0,0,0,1.869-.847,4.073,4.073,0,0,0,1.242-1.555,5.545,5.545,0,0,0,.451-2.356,4.614,4.614,0,0,0-.451-2.1,4.2,4.2,0,0,0-1.219-1.474,5.348,5.348,0,0,0-1.8-.871,8,8,0,0,0-2.169-.29h-2.135Z" transform="translate(-329.247 -447.44)"/><path class="a" d="M335.508,464.517h-6.219V447.482h5.732a15.888,15.888,0,0,1,3.822.45,8.918,8.918,0,0,1,3.2,1.478,7.317,7.317,0,0,1,2.192,2.673,8.95,8.95,0,0,1,.808,3.963,8.148,8.148,0,0,1-.786,3.65,7.894,7.894,0,0,1-2.111,2.653,9.311,9.311,0,0,1-3.045,1.62A11.839,11.839,0,0,1,335.508,464.517Zm-5.619-.6h5.619a11.2,11.2,0,0,0,3.415-.52,8.712,8.712,0,0,0,2.851-1.513,7.3,7.3,0,0,0,1.951-2.454,7.547,7.547,0,0,0,.723-3.384,8.357,8.357,0,0,0-.747-3.7,6.7,6.7,0,0,0-2.012-2.456,8.3,8.3,0,0,0-2.992-1.378,15.33,15.33,0,0,0-3.677-.431h-5.132Zm5.2-2.743h-2.181V450.825h2.436a8.319,8.319,0,0,1,2.251.3,5.675,5.675,0,0,1,1.9.92,4.525,4.525,0,0,1,1.306,1.577,4.933,4.933,0,0,1,.484,2.237,5.844,5.844,0,0,1-.48,2.483,4.369,4.369,0,0,1-1.334,1.668,5.3,5.3,0,0,1-1.98.9A10.406,10.406,0,0,1,335.092,461.174Zm-1.581-.6h1.581a9.865,9.865,0,0,0,2.263-.247,4.716,4.716,0,0,0,1.757-.8,3.8,3.8,0,0,0,1.151-1.443,5.267,5.267,0,0,0,.423-2.228,4.342,4.342,0,0,0-.42-1.966,3.929,3.929,0,0,0-1.133-1.37,5.079,5.079,0,0,0-1.7-.821,7.735,7.735,0,0,0-2.089-.278h-1.835Z" transform="translate(-329.289 -447.482)"/></g><g transform="translate(18.408 6.348)"><path class="a" d="M359.232,457.838a7.925,7.925,0,0,1-.442,2.693,5.946,5.946,0,0,1-1.311,2.135,6.026,6.026,0,0,1-2.172,1.415,9.1,9.1,0,0,1-6.011,0,6.017,6.017,0,0,1-2.172-1.415,5.929,5.929,0,0,1-1.311-2.135,7.925,7.925,0,0,1-.442-2.693v-10.1h3.622V457.7a4.016,4.016,0,0,0,.243,1.416,3.391,3.391,0,0,0,.685,1.126,3.1,3.1,0,0,0,1.056.743,3.319,3.319,0,0,0,1.335.266,3.243,3.243,0,0,0,1.324-.266,3.15,3.15,0,0,0,1.044-.743,3.392,3.392,0,0,0,.685-1.126,4.041,4.041,0,0,0,.243-1.416V447.74h3.622Z" transform="translate(-345.074 -447.44)"/><path class="a" d="M352.356,464.934a8.556,8.556,0,0,1-3.126-.532,6.112,6.112,0,0,1-3.656-3.729,8.29,8.29,0,0,1-.458-2.794v-10.4h4.221V457.74a3.708,3.708,0,0,0,.224,1.31,3.126,3.126,0,0,0,.623,1.028,2.812,2.812,0,0,0,.956.671,3.151,3.151,0,0,0,2.418,0,2.863,2.863,0,0,0,.946-.672,3.108,3.108,0,0,0,.625-1.028,3.752,3.752,0,0,0,.223-1.31V447.482h4.222v10.4a8.262,8.262,0,0,1-.459,2.794,6.269,6.269,0,0,1-1.377,2.242,6.348,6.348,0,0,1-2.277,1.486A8.491,8.491,0,0,1,352.356,464.934Zm-6.641-16.852v9.8a7.665,7.665,0,0,0,.425,2.591,5.643,5.643,0,0,0,1.245,2.028,5.743,5.743,0,0,0,2.064,1.345,8.789,8.789,0,0,0,5.792,0,5.724,5.724,0,0,0,2.065-1.345,5.66,5.66,0,0,0,1.246-2.028,7.694,7.694,0,0,0,.423-2.591v-9.8h-3.022v9.658a4.317,4.317,0,0,1-.263,1.52,3.689,3.689,0,0,1-.746,1.225,3.433,3.433,0,0,1-1.143.813,3.75,3.75,0,0,1-2.9,0,3.4,3.4,0,0,1-1.157-.814,3.692,3.692,0,0,1-.744-1.224,4.305,4.305,0,0,1-.263-1.521v-9.658Z" transform="translate(-345.116 -447.482)"/></g><g transform="translate(44.058 6.348)"><path class="a" d="M367.426,447.74h6.105a12.067,12.067,0,0,1,2.415.233,5.5,5.5,0,0,1,1.984.8,4.056,4.056,0,0,1,1.347,1.532,5.249,5.249,0,0,1,.5,2.426,5.573,5.573,0,0,1-.465,2.413,3.957,3.957,0,0,1-1.276,1.556,5.2,5.2,0,0,1-1.926.823,11.276,11.276,0,0,1-2.415.244h-2.646v6.406h-3.622Zm3.622,6.963h2.415a4.593,4.593,0,0,0,.939-.093,2.485,2.485,0,0,0,.813-.313,1.681,1.681,0,0,0,.58-.6,1.912,1.912,0,0,0,.22-.963,1.63,1.63,0,0,0-.288-1.01,1.934,1.934,0,0,0-.744-.592,3.154,3.154,0,0,0-1.008-.267,10.428,10.428,0,0,0-1.068-.058h-1.857Z" transform="translate(-367.127 -447.44)"/><path class="a" d="M371.39,464.517h-4.221V447.482h6.4a12.43,12.43,0,0,1,2.474.238,5.841,5.841,0,0,1,2.092.846,4.378,4.378,0,0,1,1.446,1.642,5.568,5.568,0,0,1,.533,2.565,5.907,5.907,0,0,1-.494,2.544,4.281,4.281,0,0,1-1.372,1.67,5.509,5.509,0,0,1-2.037.872,11.646,11.646,0,0,1-2.479.251H371.39Zm-3.622-.6h3.022V457.51h2.946a10.983,10.983,0,0,0,2.351-.237,4.9,4.9,0,0,0,1.817-.775,3.688,3.688,0,0,0,1.179-1.44,5.333,5.333,0,0,0,.435-2.285,4.984,4.984,0,0,0-.465-2.289,3.788,3.788,0,0,0-1.248-1.42,5.231,5.231,0,0,0-1.876-.756,11.855,11.855,0,0,0-2.355-.226h-5.8Zm5.736-8.871H370.79v-4.5h2.157a10.637,10.637,0,0,1,1.1.059,3.489,3.489,0,0,1,1.1.293,2.236,2.236,0,0,1,.857.683,1.926,1.926,0,0,1,.35,1.191,2.214,2.214,0,0,1-.259,1.112,1.98,1.98,0,0,1-.685.711,2.812,2.812,0,0,1-.908.351A5.015,5.015,0,0,1,373.5,455.046Zm-2.115-.6H373.5a4.4,4.4,0,0,0,.878-.087,2.213,2.213,0,0,0,.716-.274,1.369,1.369,0,0,0,.478-.5,1.634,1.634,0,0,0,.18-.813,1.348,1.348,0,0,0-.229-.829,1.626,1.626,0,0,0-.629-.5,2.913,2.913,0,0,0-.915-.241,9.8,9.8,0,0,0-1.036-.057H371.39Z" transform="translate(-367.169 -447.482)"/></g><g transform="translate(55.902 6.348)"><path class="a" d="M384.847,447.74h2.995l7.15,16.435h-4.086l-1.415-3.482h-6.383l-1.37,3.482h-3.993Zm1.392,4.782-2,5.107h4.016Z" transform="translate(-377.288 -447.44)"/><path class="a" d="M395.513,464.517h-4.744l-1.415-3.482h-5.978l-1.369,3.482h-4.654l7.364-17.035H388.1l.078.18Zm-4.341-.6H394.6l-6.889-15.834h-2.6l-6.845,15.834H381.6l1.37-3.481h6.79Zm-2.408-5.946h-4.9l2.433-6.226Zm-4.017-.6h3.136l-1.577-3.987Z" transform="translate(-377.352 -447.482)"/></g><g transform="translate(75.743 6.348)"><path class="a" d="M394.668,447.74h6.361a11.284,11.284,0,0,1,2.38.243,5.646,5.646,0,0,1,1.973.813,4.046,4.046,0,0,1,1.347,1.532,5.205,5.205,0,0,1,.5,2.4,4.812,4.812,0,0,1-.9,2.959,4.075,4.075,0,0,1-2.646,1.545l4.179,6.94h-4.342l-3.436-6.569H398.29v6.569h-3.622Zm3.622,6.8h2.135c.324,0,.669-.01,1.033-.034a3.269,3.269,0,0,0,.986-.209,1.7,1.7,0,0,0,.732-.545,1.663,1.663,0,0,0,.291-1.045,1.733,1.733,0,0,0-.256-1,1.714,1.714,0,0,0-.649-.569,2.906,2.906,0,0,0-.907-.267,7.335,7.335,0,0,0-1-.07H398.29Z" transform="translate(-394.369 -447.44)"/><path class="a" d="M408.426,464.517h-5.054l-3.435-6.569h-1.306v6.569h-4.221V447.482h6.66a11.583,11.583,0,0,1,2.443.251,5.939,5.939,0,0,1,2.076.856,4.364,4.364,0,0,1,1.447,1.643,5.514,5.514,0,0,1,.532,2.54,5.131,5.131,0,0,1-.964,3.138,4.246,4.246,0,0,1-2.416,1.567Zm-4.691-.6h3.63l-4.128-6.855.425-.079a3.806,3.806,0,0,0,2.46-1.428,4.548,4.548,0,0,0,.847-2.781,4.928,4.928,0,0,0-.465-2.265,3.782,3.782,0,0,0-1.247-1.421,5.392,5.392,0,0,0-1.87-.769,11,11,0,0,0-2.316-.236H395.01v15.834h3.023v-6.569H400.3Zm-3.267-9.034h-2.436v-4.336H400.7a7.693,7.693,0,0,1,1.039.072,3.223,3.223,0,0,1,1,.3,1.9,1.9,0,0,1,1.071,1.835,1.942,1.942,0,0,1-.355,1.228,2.011,2.011,0,0,1-.857.641,3.569,3.569,0,0,1-1.077.229C401.149,454.872,400.8,454.883,400.468,454.883Zm-1.836-.6h1.836c.318,0,.656-.012,1.013-.034a2.97,2.97,0,0,0,.9-.19,1.4,1.4,0,0,0,.6-.451,1.378,1.378,0,0,0,.227-.86,1.462,1.462,0,0,0-.2-.828,1.413,1.413,0,0,0-.537-.471,2.557,2.557,0,0,0-.812-.237,6.888,6.888,0,0,0-.957-.067h-2.068Z" transform="translate(-394.411 -447.482)"/></g><g transform="translate(89.723)"><path class="a" d="M413.925,448.63h2.995l7.15,16.435h-4.085l-1.417-3.482h-6.384l-1.369,3.482h-3.993Zm2.755-6.348h4.735l-4.016,3.343h-3.065Zm-1.362,11.13-2,5.107h4.016Z" transform="translate(-406.366 -441.982)"/><path class="a" d="M424.591,465.407h-4.743l-1.417-3.482h-5.978l-1.369,3.482H406.43l7.362-17.035h3.388l.078.18Zm-4.341-.6h3.427l-6.889-15.834h-2.6l-6.842,15.834h3.332l1.369-3.481h6.789Zm-2.406-5.946h-4.9l2.434-6.226Zm-4.018-.6h3.137l-1.577-3.987Zm3.746-12.294h-3.749l2.766-3.943h5.72Zm-2.6-.6h2.38l3.3-2.743H416.9Z" transform="translate(-406.43 -442.024)"/></g></g></g><path class="a" d="M438.611,455.171a1.714,1.714,0,1,0,1.714,1.713A1.714,1.714,0,0,0,438.611,455.171Z" transform="translate(22.385 18.953)"/><g transform="translate(358.004 369.132)"><path class="a" d="M380.27,431.476a.452.452,0,0,0-.074-.107l-2.4-2.4a.451.451,0,0,0-.636,0l-2.4,2.4a.425.425,0,0,0-.073.111.928.928,0,0,1,.181.137l.96.96.96-.96a1,1,0,0,1,1.388,0l.96.96.96-.96A.956.956,0,0,1,380.27,431.476Z" transform="translate(-345.767 -354.475)"/><path class="a" d="M377.147,431.544l-2.559,2.559a.347.347,0,0,0-.027.031.917.917,0,0,1,.193.142l1.022,1.023,1.024-1.023a1,1,0,0,1,1.388,0l1.022,1.023,1.023-1.023a.909.909,0,0,1,.192-.142.213.213,0,0,0-.026-.031l-2.559-2.559A.5.5,0,0,0,377.147,431.544Z" transform="translate(-345.786 -354.055)"/><path class="a" d="M379.585,428.922l-1.834-1.834a.49.49,0,0,0-.694,0l-1.835,1.834a.515.515,0,0,0-.1.166l.76.761.892-.892a.9.9,0,0,1,1.271,0l.892.891.758-.758A.471.471,0,0,0,379.585,428.922Z" transform="translate(-345.695 -354.783)"/><path class="a" d="M379.671,426.868c-.007-.008-.01-.019-.019-.027l-1.834-1.834a.491.491,0,0,0-.7,0l-1.834,1.834a.456.456,0,0,0-.065.086.9.9,0,0,1,.215.155l.627.627.627-.627a1,1,0,0,1,1.388,0l.627.627.627-.627A.925.925,0,0,1,379.671,426.868Z" transform="translate(-345.678 -355.122)"/><path class="a" d="M375.142,425.269l-.014.006.044.1,0-.047Z" transform="translate(-345.693 -355.056)"/><path class="a" d="M375.725,435.216l-1.023-1.024a.491.491,0,0,0-.7,0l-1.058,1.058c-.071.308-.134.611-.188.914a2.148,2.148,0,0,0,1.361,1.039.961.961,0,0,1,.277-.661Z" transform="translate(-346.08 -353.624)"/><path class="a" d="M374.393,431.34a.879.879,0,0,1,.2-.294l1.165-1.165-.863-.862a.49.49,0,0,0-.694,0l-.452.452a6.253,6.253,0,0,1,.213,1.937A1.032,1.032,0,0,1,374.393,431.34Z" transform="translate(-345.919 -354.468)"/><path class="a" d="M374.756,425.568l-.587.588a5.028,5.028,0,0,1,.4.621,1.013,1.013,0,0,1,.347-.065.953.953,0,0,1,.2-.308l.587-.587-.249-.249a.494.494,0,0,0-.7,0Z" transform="translate(-345.85 -355.031)"/><path class="a" d="M373.3,428.489a5.911,5.911,0,0,1,.345.775l.276-.277a1,1,0,0,1,1.091-.2.935.935,0,0,1,.158-.214l.861-.862-.626-.627a.488.488,0,0,0-.348-.144.47.47,0,0,0-.161.033,1.72,1.72,0,0,1,.084.722C374.9,428.48,373.809,429.089,373.3,428.489Z" transform="translate(-345.991 -354.783)"/><path class="a" d="M373.6,434.277a.976.976,0,0,1,.7-.277,1.01,1.01,0,0,1,.173-.243l1.253-1.253-.96-.96a.49.49,0,0,0-.694,0l-.079.079a5.981,5.981,0,0,1-.213.946c-.261.8-.479,1.518-.661,2.188Z" transform="translate(-346.021 -354.056)"/><path class="a" d="M387.386,395.08l-.015.02c.028.013.062.03.088.041C387.434,395.121,387.412,395.1,387.386,395.08Z" transform="translate(-343.697 -359.98)"/><path class="a" d="M416.732,398.736a13,13,0,0,0-8.566-2.891c2.576-.941,5.367-.421,8.158-.3a14.171,14.171,0,0,0-8.726-.821,54.031,54.031,0,0,1,10.266-2.546,29.7,29.7,0,0,0-10.8,1.6A32.256,32.256,0,0,1,417,389.548c-3.576.5-7.147.908-10.832,3.23a20.887,20.887,0,0,1,1.847-1.388l.306.037c-.088-.023-.178-.042-.268-.064,2.9-1.939,6.01-3.043,9.049-4.421a29.69,29.69,0,0,0-9.183,2.861c-.426-.013-.851-.012-1.277,0a39.674,39.674,0,0,1,9.462-5.593c-2.905.345-8.289,3.115-11.564,5.754-.2.026-.4.05-.607.081.426-.472.915-.956,1.453-1.443l3.781-1.77c-.739.109-1.472.256-2.2.436a40.084,40.084,0,0,1,8.741-5.316,40.739,40.739,0,0,0-11.415,6.163,23.123,23.123,0,0,0-3.3,1.567l.026-.059a43.1,43.1,0,0,1,8.4-5.718,34.435,34.435,0,0,0-7.352,3.578q.152-.277.309-.549c2.047-1.706,4.319-3.523,6-5.049a44.179,44.179,0,0,0-4.509,2.766,25.518,25.518,0,0,1,2.175-2.6,15.027,15.027,0,0,0-4.137,4.05c-.97.759-1.911,1.555-2.814,2.394,2.611-2.88,5.332-5.506,8.1-8.024a41.4,41.4,0,0,0-8.046,6.569l.01-.051c2.417-2.71,4.834-5.732,7.251-8.27a32.73,32.73,0,0,0-6.756,6.1c.322-1.317.687-2.623,1.1-3.9a14.376,14.376,0,0,1,1.486-1.553,14.308,14.308,0,0,0-1.342,1.114,32.931,32.931,0,0,1,2.6-5.94,27.652,27.652,0,0,0-4.457,7.93,38.994,38.994,0,0,0-3.406,4.945c-.045-.585-.086-1.171-.119-1.76A49.508,49.508,0,0,1,399.9,376.8a31.374,31.374,0,0,0-4.487,5.945,50.031,50.031,0,0,1,.183-5.034c.158-.394.319-.784.483-1.164-.145.2-.286.416-.428.628.108-1.048.251-2.082.444-3.089a24.6,24.6,0,0,0-1.295,4.444,35.825,35.825,0,0,0-2.73,5.825,27.261,27.261,0,0,1-.4-4.866c.327-1.053.691-2.069,1.089-3.026q-.565,1.033-1.056,2.106c.01-.181.016-.364.031-.543-.036.22-.06.448-.088.673a34.081,34.081,0,0,0-2.683,9.227q-.438-.632-.862-1.249a42.412,42.412,0,0,1,1.3-9.8,42.662,42.662,0,0,0-2.074,8.665c-.369-.547-.722-1.077-1.053-1.584q.007-2.3.152-4.606-.363,1.95-.592,3.923l-.05-.079.048.1a58.645,58.645,0,0,0,.147,14.629q-.815-5.316-1.632-10.632c.321-.571.628-1.143.91-1.719-.249.409-.578.9-.954,1.426l-.461-3c-.144,1.325-.227,2.656-.256,3.989-.392.533-.808,1.091-1.236,1.659q-.087-.89-.142-1.781c.585-1.124,1.121-2.153,1.529-2.926-.555.684-1.079,1.356-1.577,2.027-.015-.366-.027-.733-.033-1.1q-.092.677-.156,1.357c-.571.779-1.107,1.559-1.61,2.349-.057-.349-.111-.7-.158-1.037.523-.946,1.1-1.9,1.731-2.883-.65.7-1.26,1.4-1.835,2.109v0q-.316.389-.619.782a17.886,17.886,0,0,1,2.081-4.623,9.629,9.629,0,0,0,.841-8.149,16.3,16.3,0,0,1-4.207,11.556c2.263-2.976,3.549-9.43,2.846-13.484.137,3.3-1.185,9.326-3.216,11.934a22.279,22.279,0,0,0,1.76-13.312,17.18,17.18,0,0,1-3.111,11.375,15.7,15.7,0,0,0-.332-14.388,19.663,19.663,0,0,1-.575,12.661,16.365,16.365,0,0,0-2.636-14.11,19.37,19.37,0,0,1,1.606,13.129,21.285,21.285,0,0,0-5.362-15.232,28.305,28.305,0,0,1,4.046,13.455,17.432,17.432,0,0,0-9.29-14.293,18.51,18.51,0,0,1,7.84,13.693c-1.29-3.187-2.494-6.471-4.566-8.465-2.262-2.178-4.547-4.317-7.5-5.4a23.308,23.308,0,0,1,10.058,13.012,34.749,34.749,0,0,0-5.57-7.925c-2.323-2.258-5.465-3.881-8.7-3.654a19.209,19.209,0,0,1,11.91,10.479c-3.279-4.809-9.034-8.267-14.635-8.286a40.62,40.62,0,0,1,7.265,2.914,14.639,14.639,0,0,1,5.764,5.572,35.8,35.8,0,0,0-6.712-5.191,11.243,11.243,0,0,0-7.931-1.286,19.325,19.325,0,0,1,12.736,6.3,36.848,36.848,0,0,0-6.476-3.522,12.335,12.335,0,0,0-7.239-.7,25.2,25.2,0,0,1,12.688,4.812A17.539,17.539,0,0,0,351,375.816a37.212,37.212,0,0,1,10.389,1.816,11.03,11.03,0,0,0-10.946,4.406,14.569,14.569,0,0,1,8.691-3.985,16.861,16.861,0,0,0-6.4,4.021l7.434-3.775a18.69,18.69,0,0,0-6.334,6.331,20.961,20.961,0,0,1,8.4-6.33,24.3,24.3,0,0,0-6.423,6.212A53.773,53.773,0,0,1,363.777,378a28.468,28.468,0,0,1-6.856,6.312,19.157,19.157,0,0,0,8.142-5.853c-1.156,1.7-4.055,4.677-5.211,6.371a23.3,23.3,0,0,0,4.619-4.466,11.067,11.067,0,0,0-.94,3.777c.584-1.414,2.266-4.642,3.6-5.4-1.012.685-1.677,3.005-1.748,4.225.6-1.55,1.931-3.946,3.516-4.449a7.438,7.438,0,0,0-2.437,4.167,7.052,7.052,0,0,1,3.218-3.307,2.415,2.415,0,0,0-1.181,2.771c.643-1.284,1.367-2.544,2.487-1.847a5.251,5.251,0,0,1,1.013,1.147,29.437,29.437,0,0,1,4.928,7.766,13.14,13.14,0,0,0-1.8,4.237c-.268-3.349-1.784-7.026-4.727-8.646a10.068,10.068,0,0,1,3.609,8.922c-.169-4.531-3.57-8.1-7.935-9.327,3.46,2.412,5.482,5.984,6.768,10a13.489,13.489,0,0,0-11.414-9.215,18.148,18.148,0,0,1,10.263,9.206,14.253,14.253,0,0,0-12.565-6.787,16.371,16.371,0,0,1,10.534,6.805,14.7,14.7,0,0,0-13.922-3.509,16.029,16.029,0,0,1,12.189,3.787,16.241,16.241,0,0,0-14.9-.693,17.222,17.222,0,0,1,12.215,1.13,13.2,13.2,0,0,0-13.331,3.2,17.267,17.267,0,0,1,11.158-2.681,13.065,13.065,0,0,0-6.833,1.685,14.158,14.158,0,0,0-2.388.145c.533.094,1.06.213,1.583.348-.349.229-.687.472-1.012.733a12.726,12.726,0,0,0-2.974.434l2.034.4a12.4,12.4,0,0,0-1.311,1.492,14.363,14.363,0,0,1,1.745-1.406l2,.4q-.857.5-1.65,1.06a11.2,11.2,0,0,0-4.447,2.575,20.482,20.482,0,0,1,2.527-1.006,12.841,12.841,0,0,0-1.656,1.888,14.647,14.647,0,0,1,2.385-2.108,20.87,20.87,0,0,1,3.125-.63q-.618.546-1.193,1.135a13.125,13.125,0,0,0-4.713,3.736,22.34,22.34,0,0,1,3.417-2.288,21.481,21.481,0,0,0-1.51,2.09,22.843,22.843,0,0,1,2.914-2.8,22.344,22.344,0,0,1,3.588-1.292,13.885,13.885,0,0,0-7.743,8.442,18.959,18.959,0,0,1,6.819-6.991c-.217.279-.424.565-.626.856a19.759,19.759,0,0,0-4.229,8.513,23.181,23.181,0,0,1,3.5-5.657c.155-.022.309-.041.464-.055a20.722,20.722,0,0,0-2.8,6.033,24.831,24.831,0,0,1,2.3-4.221,15.847,15.847,0,0,0-.449,2.466,17.752,17.752,0,0,1,1.127-3.422q.34-.454.7-.892c.079,0,.158,0,.237.006a14.826,14.826,0,0,0-1.96,5.406,9.389,9.389,0,0,0-3.249,3.139,8.86,8.86,0,0,1,4.174-2.448q-.049.633-.069,1.268a10,10,0,0,0-3.949,3.446,11.249,11.249,0,0,1,3.86-2.5q-.209.839-.418,1.68a13.026,13.026,0,0,0-5.148,5.933,12.312,12.312,0,0,1,9.734-6.176,10.888,10.888,0,0,0-7.781,8.573,14.278,14.278,0,0,1,6.531-7.067c-4.236,2.517-6.455,6.639-7.067,11.527,1-3.778,3.214-7.743,6.225-9.575a14.805,14.805,0,0,0-5.155,10.428c.459-3.036,3.014-7.054,5.141-9.269-1.946,3.446-4.271,8.451-4.6,12.4,1.422-3.376,3.187-7.906,4.611-11.281-.826,3.01-1.992,7.174-2.819,10.184.755-1.819,2.014-5.886,2.768-7.707-.2,1.725-.9,5.7-1.1,7.421,1.161-4.773,2.049-8.43,3.21-13.2-.3,2.517-.323,3.916-.621,6.433.737-2.291,1.474-5.4,2.211-7.693a18.107,18.107,0,0,0,.034,6.359,8.54,8.54,0,0,1,2.559-7.493,3.568,3.568,0,0,0,.618,4.285c-.148-3.062.28-4.712,2.269-4.129a10.537,10.537,0,0,1,3.511,1.781,21.167,21.167,0,0,1,4.073,4.032,19.233,19.233,0,0,1,3.174,7.776,37.8,37.8,0,0,1,.526,4,.929.929,0,0,1,.485.236l.249.249.9-.9a1,1,0,0,1,1.386,0l1,1,.352-.352a1,1,0,0,1,1.108-.181c-.029.173-.055.347-.079.52a.484.484,0,0,0-.335-.136.489.489,0,0,0-.348.144l-.352.352.484.483a.972.972,0,0,1,.212.324,1.072,1.072,0,0,1,.2.065c-.016.179-.024.359-.036.54a.488.488,0,0,0-.69,0l-.627.627.861.861a.944.944,0,0,1,.157.214,1.041,1.041,0,0,1,.25-.065c0,.164,0,.329.009.493a.471.471,0,0,0-.208.114l-.863.862,1.165,1.165a.761.761,0,0,1,.073.11c.029.226.064.451.1.677a.476.476,0,0,0-.252.124l-.958.96,1.253,1.254a.963.963,0,0,1,.173.242,1.035,1.035,0,0,1,.356.064c.074.268.152.533.236.8l-.236-.236a.491.491,0,0,0-.7,0l-1.023,1.024,1.328,1.327a.971.971,0,0,1,.275.584,5.085,5.085,0,0,1-.489.169.485.485,0,0,0-.131-.406l-2.7-2.7a.491.491,0,0,0-.7,0l-2.7,2.7a.485.485,0,0,0-.12.47c2.964.789,8.244.156,7.773-1.324a23.176,23.176,0,0,1-.623-15.469l-1.182.138.2-2.737a44,44,0,0,1,5.439-13.47c-.065,2.42.167,4.334.1,6.754.583-2.146,1.164-5.436,1.747-7.582a35.377,35.377,0,0,0,2.152,11.236c-.647-3.385-.969-8.075-.119-11.415.511,3.652,1.453,8.47,1.964,12.122a36.5,36.5,0,0,0-.889-12.25c1.726,4.191,3.451,9.9,5.177,14.093-.89-4.258-2.113-9.832-3.673-13.506,1.741,3.517,3.2,8.456,4.939,11.974a42.392,42.392,0,0,0-2.818-9.879,40,40,0,0,1,4.427,13.4,42.3,42.3,0,0,0-2.477-11.917c2.173,4.845,4.273,8.921,5.679,13.259-.954-3.616-2.486-8.059-3.439-11.675,1.56,3.492,3.7,7.811,5.254,11.3l-3.243-9.412c-.352-.6-.7-1.2-1.039-1.79,2.395,2.417,5.09,5.134,7.485,7.55-2.246-3.235-4.968-6.744-8.227-8.953,3.673.816,6.895,3.708,9.1,6.756-1.824-3.118-5.893-6.047-9.076-7.753,3.167.451,7.5,2.557,9.383,5.141-2.119-3.378-6.937-6.373-10.916-6.111,3.679-.379,8.224,1.14,11.609,2.629-4-2.911-7.883-4.623-12.717-3.574,3.82-1.932,7.146-1.413,11.032.381-4.184-2.111-7.637-3.123-12.121-1.761,4.533-2.083,9.047-1.848,13.668-.472a22.1,22.1,0,0,0-14.229-1.393c3.888-1.778,10.357-1.455,14.368-.28-2.754-1.892-10.06-2.211-13.6-.766a26.547,26.547,0,0,1,11.822-2.319c-4.071-1-10.255-.127-13.662,2.315,2.823-3.283,8.773-5.29,13.1-5.377-4.586-.971-11.081,1.023-14.762,5.023,2.044-4.062,7.871-7.322,12.219-8.037-5.243.662-9.915,1.86-13.755,7.929a19.143,19.143,0,0,1,16.613-10.355c-7.108-1.15-15.161,3.449-18.527,10.514,2.217-4.734,6.531-10.566,10.977-13.319a28.95,28.95,0,0,0-11.455,11.227l4.362-9.583a42.909,42.909,0,0,0-6.709,12.613,4.6,4.6,0,0,0-.993-2.058,30.912,30.912,0,0,1,4.61-8.255,15.093,15.093,0,0,1,5.835-4.658,10.423,10.423,0,0,1,14.019,12.214,9.512,9.512,0,0,0,.34-6.018c.39,1.312.891,3.1,1.243,4.25a9.05,9.05,0,0,0-2.816-7.5,24.677,24.677,0,0,1,3.784,3.952c-.345-1.74-2.746-3.927-4.751-5.3a14.755,14.755,0,0,1,5.119,3.593c-.94-2.139-4.041-4.091-6.269-4.794a12.783,12.783,0,0,1,5.855,2.612,11.88,11.88,0,0,0-7.122-3.53A15.006,15.006,0,0,1,416.732,398.736Zm-59.619,8.271c-.034.049-.065.1-.1.148-.156.028-.311.059-.465.1q.44-.518.91-1.01Q357.276,406.619,357.112,407.007Zm36.871,6.191a10.585,10.585,0,0,1,3.078.889,9.574,9.574,0,0,1,2.7,1.739,13.307,13.307,0,0,1,1.058,1.206,11.813,11.813,0,0,1,.818,1.376l-.076.062a13.449,13.449,0,0,1-1.236-.969c-.421-.3-.8-.642-1.2-.943-.415-.285-.772-.642-1.186-.924-.2-.151-.391-.319-.6-.458l-.637-.4a9.923,9.923,0,0,0-2.8-1.1,7.547,7.547,0,0,0-3.038-.109l-.03-.092A7.407,7.407,0,0,1,393.984,413.2Zm12.232-23.013,1.234-.13q-.766.427-1.49.923c-.173-.021-.345-.036-.519-.051C405.687,390.675,405.947,390.428,406.216,390.185Zm-.9.873.445.055a15.559,15.559,0,0,0-1.507,1.2A12.4,12.4,0,0,1,405.313,391.059Zm-1.736-.6.424-.044c-.163.142-.321.283-.47.423l-.233-.029C403.387,390.7,403.479,390.58,403.577,390.461Zm-.313.4.257-.009a11.2,11.2,0,0,0-.8.83A7.366,7.366,0,0,1,403.264,390.859Zm-1.662-.482-.251.233c-.211.058-.422.115-.63.18Zm-.756.709c-.208.2-.415.4-.618.6.059-.179.122-.356.185-.534C400.558,391.131,400.7,391.11,400.846,391.087Zm-.608-2.324-.034.061c-.126.1-.251.2-.372.3C399.963,389.007,400.1,388.885,400.238,388.763Zm-1.807-4.548c-.323,1.011-.6,2.038-.85,3.072-.633.791-1.226,1.563-1.763,2.283l0-.022A31.737,31.737,0,0,1,398.43,384.215Zm.408,7.308q-.441.945-.871,1.946c.093-.582.192-1.174.293-1.77C398.452,391.638,398.645,391.578,398.839,391.523Zm-4.4-10.695a36.386,36.386,0,0,0-.247,4.165q-.724,1.443-1.333,2.952-.126-.468-.238-.936C393.16,384.876,393.767,382.8,394.44,380.828Zm-.028,8.74c-.074.138-.151.278-.225.414.06-.258.126-.518.193-.779C394.392,389.325,394.4,389.447,394.412,389.568Zm-2.09-1.333q.072.356.149.709c-.308.824-.594,1.655-.851,2.494Q391.942,389.826,392.322,388.235Zm-.785-8.292a28.323,28.323,0,0,0,.262,5.193,40.328,40.328,0,0,0-1.354,4.926c-.179-.259-.359-.518-.54-.777A41.015,41.015,0,0,1,391.537,379.943Zm-1.42,11.929c-.07.445-.133.89-.184,1.329-.044-.587-.066-1.19-.073-1.8C389.944,391.559,390.03,391.716,390.116,391.872Zm-1.327-2.5a33.588,33.588,0,0,0-.166,3.778l-.178-.162A44.183,44.183,0,0,1,388.1,388Q388.439,388.686,388.789,389.368Zm-.122,5.165c-.071-.432-.133-.865-.191-1.3.05.127.1.255.157.38C388.642,393.919,388.651,394.226,388.667,394.533Zm-1.426-8.287A42.835,42.835,0,0,0,387.3,396.6a74.229,74.229,0,0,1-1.024-12.371Q386.757,385.24,387.241,386.246Zm3.839,8.31a15.765,15.765,0,0,1,3.155-2.4l.886-.455c.3-.135.614-.255.926-.369a11.025,11.025,0,0,1,1.91-.523l.019.062a30.571,30.571,0,0,0-3.411,1.841,28.808,28.808,0,0,0-3.143,2.231,25.984,25.984,0,0,0-2.76,2.726,24.815,24.815,0,0,0-2.358,3.1l-.056-.031A24.954,24.954,0,0,1,391.081,394.556Zm5.591-2.273c-.1.747-.181,1.491-.247,2.228-.093-.656-.183-1.324-.269-2C396.327,392.436,396.5,392.357,396.672,392.284Zm-1.5,2.373c-.184-.437-.363-.887-.54-1.342.088-.052.178-.1.266-.154C394.983,393.664,395.072,394.164,395.17,394.656Zm-1.9-.459c.145-.1.293-.208.442-.308.173.613.348,1.212.518,1.785C393.935,395.2,393.613,394.71,393.273,394.2Zm.74,3.868-2.58-2.355c.2-.19.406-.372.615-.552C392.668,396.142,393.318,397.112,394.013,398.065Zm-10.435-9.44a46.656,46.656,0,0,0,2.288,14.826,47.253,47.253,0,0,1-3.423-12.935C382.823,389.885,383.2,389.255,383.577,388.626Zm1.518,21.052a4.6,4.6,0,0,1,1,.251,4.685,4.685,0,0,1,1.421.858c-.131.4-.259.8-.386,1.213a8.2,8.2,0,0,0-2.3-.868Q384.962,410.405,385.1,409.678Zm-1.611-8.339a77.836,77.836,0,0,1-2.455-8.393c.258-.468.526-.933.8-1.4A35.478,35.478,0,0,0,383.484,401.338Zm-8.415,4.893a35.309,35.309,0,0,1,.3-5.474,6.855,6.855,0,0,1,.528.448,12.147,12.147,0,0,1,2.928,5.489,41.478,41.478,0,0,1,1.068,4.991,8.169,8.169,0,0,0-3.081,2.575,38.028,38.028,0,0,1-1.338-4.141,19.914,19.914,0,0,1-.4-3.811c.127-.083.254-.165.385-.242C375.326,406.117,375.2,406.173,375.069,406.232Zm4.272-.512a15.579,15.579,0,0,1-1.051-4.528,13.072,13.072,0,0,1,1.029-4.594c.07-.19.144-.378.22-.566.753,4.109,1.9,7.625,3.386,13.3a4.563,4.563,0,0,0-1.546,1.349,4.735,4.735,0,0,1,1.672-.858c.038.144.076.286.113.434a6.152,6.152,0,0,1,.133.7,7.6,7.6,0,0,0-1.811.174,7.693,7.693,0,0,0-.8.234A46.391,46.391,0,0,0,379.341,405.72Zm-.828-10.756c.192-.363.414-.788.655-1.248.009.07.02.138.029.208C378.934,394.3,378.7,394.656,378.513,394.963Zm3.359-6.447c-.036.615-.053,1.231-.058,1.847-.354.469-.7.935-1.044,1.391-.056-.267-.112-.536-.163-.8Zm-1.365,5.411a81.685,81.685,0,0,0,1.727,9.464c-.8-2.7-1.641-5.44-2.388-8.087Q380.153,394.612,380.507,393.927Zm-.236-2.33c.02.245.044.493.067.74-.341.461-.658.9-.948,1.312-.022-.079-.043-.158-.064-.237C379.621,392.849,379.941,392.235,380.271,391.6Zm-.154-2.9q.014.6.045,1.2c-.424.683-.825,1.378-1.2,2.092v0a35.6,35.6,0,0,0-1.941,4.348A34.787,34.787,0,0,1,380.117,388.7Zm-2.833,1.391c.141.355.277.711.4,1.071a26.776,26.776,0,0,0-1.8,3.522A21.31,21.31,0,0,1,377.284,390.091Zm-8.807,7.489a8.915,8.915,0,0,1,4.747.865,12.056,12.056,0,0,1,3.75,2.848l-.094.088a12.344,12.344,0,0,0-3.906-2.342,8.069,8.069,0,0,0-4.351-.436,10.37,10.37,0,0,0-3.887,1.86,37.114,37.114,0,0,0-3.529,2.893l-.1-.076a10.41,10.41,0,0,1,2.848-3.843A8.155,8.155,0,0,1,368.477,397.58Zm6.364,2.807a22.611,22.611,0,0,0-.462,4.168c-.012-1.114-.229-2.9-.441-4.662A7.371,7.371,0,0,1,374.841,400.387Zm-13.307,7.038c-.244-.074-.492-.136-.741-.191.092-.3.192-.606.3-.9a12.65,12.65,0,0,1,.9-1.878,13.2,13.2,0,0,1,2.686-2.132l-2.316,3.868a7.319,7.319,0,0,1,3.849-2.422,16.172,16.172,0,0,0-4,3.9c-.2-.078-.4-.15-.6-.214l.755-1.261A7.205,7.205,0,0,0,361.534,407.425Zm3.959-6.74a9.621,9.621,0,0,1,.85-.5q.864,1.57,1.73,3.138A14.517,14.517,0,0,0,365.494,400.685Zm3.332,3.666a10.946,10.946,0,0,0-4.613,4.384c-.222-.151-.45-.3-.689-.438a9.1,9.1,0,0,0-.979-.5A12.694,12.694,0,0,1,368.826,404.351Zm-.192-5a8.9,8.9,0,0,1,2.227-.181c.5,2.128,1.026,4.3,1.144,5.464a14.448,14.448,0,0,0-2.7-4.6A7.289,7.289,0,0,0,368.634,399.349Zm3.176-.091a8.157,8.157,0,0,1,1.606.419,18.805,18.805,0,0,1-.128,3.347C373,402.282,372.421,400.811,371.81,399.259Zm-10.656-1c.262-.091.52-.178.772-.259-.221.1-.44.2-.658.3Zm2.684-1.353a24.187,24.187,0,0,0-3.716,1.017,15.539,15.539,0,0,0-2.041-.442A14.767,14.767,0,0,1,363.839,396.91Zm-3.948,14.668a4.551,4.551,0,0,0-.693.014l.746-4,.067.017A24.188,24.188,0,0,0,359.891,411.578Zm.116,1.462c.031.269.073.536.113.8a7.688,7.688,0,0,0-1.372.16q.087-.466.173-.932C359.283,413.045,359.646,413.032,360.007,413.04Zm.029-5.945.017-.1.035-.057c-.007.052-.012.106-.019.158Zm-.6-7.806-.115.07q-.267-.1-.536-.184l.214-.092C359.142,399.152,359.288,399.22,359.433,399.29Zm-4.012-.721c.323-.171.656-.324.991-.471q.886.274,1.747.625l-.38.177A13.112,13.112,0,0,0,355.421,398.569Zm.429,2c.328-.176.661-.344.994-.51l1.09.216c-.069.049-.14.1-.207.146A11.543,11.543,0,0,0,355.85,400.567Zm1.507,1.367c.234-.145.471-.286.709-.425q.848-.026,1.694.02l-.022.021A12.775,12.775,0,0,0,357.358,401.934Zm1.849,6.544-.009.09c-.038.154-.076.306-.114.459.028-.073.058-.145.087-.217q-.155,1.415-.309,2.83l-.036,0c-.228.047-.451.1-.675.169Zm-1.226-1.446c.144-.17.293-.336.441-.5-.027.076-.051.152-.078.228-.058.088-.119.174-.176.264Zm.721,6.059q-.052.476-.1.951c-.1.026-.2.049-.3.079a9.591,9.591,0,0,0-1,.369l.4-1.252C358.031,413.174,358.366,413.124,358.7,413.09Zm-2.324-.562q.516-1.165,1.032-2.332-.2.991-.324,1.993C356.845,412.292,356.61,412.406,356.378,412.528Zm.04,4.759.543-1.719a10.016,10.016,0,0,1,1.517-.421q-.042.37-.081.742l.141-.756a9.907,9.907,0,0,1,1.778-.159c.033.162.058.326.094.487-.027-.162-.05-.324-.073-.487a9.985,9.985,0,0,1,2.983.456A12.191,12.191,0,0,0,356.418,417.288Zm3.788-3.445q-.037-.4-.057-.8a9.925,9.925,0,0,1,5.6,1.884A14.6,14.6,0,0,0,360.206,413.843Zm-.079-2.244a16.619,16.619,0,0,1,.507-3.8c.207.071.411.151.612.238-.013.03-.027.06-.04.091l.052-.086c.157.069.312.14.465.217.017.008.035.021.052.03a15.98,15.98,0,0,0-.958,1.667,12.245,12.245,0,0,1,1.157-1.554,8.528,8.528,0,0,1,1.7,1.411c-.017.042-.037.083-.055.124l.077-.1a15.928,15.928,0,0,1,3.2,4.886C365.178,413.515,362.428,411.829,360.127,411.6Zm7.8,2.517a8.162,8.162,0,0,0-3.485-5.228,11.041,11.041,0,0,1,2.633-2.523,5.605,5.605,0,0,1,2.623-.874C368.318,407.481,367.622,411.651,367.922,414.116Zm1.111-1.533a22.318,22.318,0,0,1,.771-7.1,3.822,3.822,0,0,1,2,.45,4.559,4.559,0,0,1,1.468,1.377,8.9,8.9,0,0,0-3.073,4.52l.459-3.028Q369.847,410.694,369.033,412.583Zm10.11,14.6a18.244,18.244,0,0,0-5-7.217c-.789-.759-1.887-1.169-2.572-2.024a5.684,5.684,0,0,1-1.022-3.873,10.058,10.058,0,0,1,2.922-6.469,14.372,14.372,0,0,1,.784,1.407,39.6,39.6,0,0,1,2.149,5.877,7.555,7.555,0,0,0-.759,1.752c.318-.348.641-.692.971-1.029,1.479,5.113,2.879,11.56,3.854,16.682,0,.181,0,.363.007.543A32.738,32.738,0,0,0,379.143,427.188Zm2.009-2.695-.772.01q.012,1,.023,2.008c-.81-3.267-1.613-6.221-2.012-7.674-.308-1.123-.779-2.413-1.264-3.728a13.706,13.706,0,0,1,2.388-1.878q.279-.167.569-.316c.64,4.355,1.094,9.646,1.382,14.521Zm.954-3.009c-.327-3.11-.736-6.191-1.207-8.933a7.12,7.12,0,0,1,2.488-.5C383.455,414.873,382.559,418.6,382.1,421.484Zm1.4,6-.11-.008-.618,2.433c-.094-1.749-.226-3.594-.39-5.468q1.124-6.131,2.247-12.264a5.018,5.018,0,0,1,2.125,1.047C385.454,417.76,384.367,422.991,383.508,427.485Zm2.708-5.916c-.216.415-.435.868-.653,1.347.7-3.554,1.359-6.895,1.9-8.955a3.836,3.836,0,0,1,.672,1.41C388.646,417.526,387.242,419.6,386.215,421.569Zm2.911-7.959A7.566,7.566,0,0,0,387.9,412.5h0q.174-.462.349-.911A4.783,4.783,0,0,1,389.127,413.61Zm.193-7.407a32.721,32.721,0,0,0-1.425,3.46,4.553,4.553,0,0,0-1.757-.819,4.476,4.476,0,0,0-.871-.1,32.563,32.563,0,0,1,1.924-7.048,17.876,17.876,0,0,1,1.959-3.414c1.108,1.065,2.256,2.313,2.382,3.125C391.786,403.063,390.44,403.918,389.32,406.2Zm18.119-9.758c-.354-.062-.7-.144-1.041-.215a8.953,8.953,0,0,0-1.025-.221,14.134,14.134,0,0,0-2.063-.211,11.552,11.552,0,0,0-4.076.43,10.876,10.876,0,0,0-3.653,1.943,12.964,12.964,0,0,0-2.83,3.093l-.057-.03A12.293,12.293,0,0,1,393.5,400c-.868-.376-2.518-1.378-3.967-2.219q.419-.534.876-1.035a16.149,16.149,0,0,0,3.107,3.233,13.738,13.738,0,0,1,1.859-2.059,11.3,11.3,0,0,1,3.7-2.185,9.4,9.4,0,0,1,4.282-.585,5.645,5.645,0,0,1,1.072.163c.351.085.7.157,1.051.255a16.826,16.826,0,0,1,1.984.814Z" transform="translate(-349.821 -364.902)"/></g><path class="a" d="M443.026,450.81A1.2,1.2,0,0,1,441.9,449.2c.063-.175,6.257-17.554,5.72-29.151a1.2,1.2,0,0,1,1.142-1.254,1.213,1.213,0,0,1,1.253,1.142c.561,12.075-5.6,29.345-5.858,30.074A1.2,1.2,0,0,1,443.026,450.81Z" transform="translate(23.189 13.021)"/><path class="a" d="M308.653,450.81a1.2,1.2,0,0,1-1.128-.793c-.262-.729-6.419-18-5.858-30.074a1.2,1.2,0,1,1,2.395.112c-.537,11.6,5.657,28.976,5.72,29.151a1.2,1.2,0,0,1-1.128,1.605Z" transform="translate(0.323 13.021)"/><path class="a" d="M313.877,455.171a1.714,1.714,0,1,0,1.713,1.713A1.713,1.713,0,0,0,313.877,455.171Z" transform="translate(2.041 18.953)"/><path class="a" d="M428.716,473.486H338.328a1.2,1.2,0,1,1,0-2.4h90.388a1.2,1.2,0,1,1,0,2.4Z" transform="translate(6.113 21.549)"/><path class="a" d="M411.112,479.671H350.7a1.2,1.2,0,0,1,0-2.4h60.414a1.2,1.2,0,1,1,0,2.4Z" transform="translate(8.13 22.558)"/></g></svg>